<svg xmlns="http://www.w3.org/2000/svg" xmlns:xlink="http://www.w3.org/1999/xlink" viewBox="0 0 1400 680"><defs><style>.cls-1{fill:#0d1117;}.cls-2,.cls-3{font-size:22.78px;font-family:Menlo-Regular, Menlo;letter-spacing:-0.06em;}.cls-2,.cls-8{fill:#62c4ff;}.cls-3{fill:#e8e9ed;}.cls-4{fill:none;stroke:#62c4ff;stroke-miterlimit:10;stroke-width:5px;}.cls-5,.cls-6{font-size:80.35px;}.cls-5,.cls-6,.cls-9{fill:#e397fa;}.cls-5,.cls-6,.cls-8{font-family:Menlo-Bold, Menlo;font-weight:700;}.cls-5{letter-spacing:-0.04em;}.cls-6{letter-spacing:-0.04em;}.cls-7{fill:url(#linear-gradient);}.cls-8{font-size:87.97px;letter-spacing:-0.04em;}.cls-9{font-size:105.19px;font-family:Krungthep;letter-spacing:-0.04em;}</style><linearGradient id="linear-gradient" x1="699.5" y1="504.88" x2="699.5" y2="347.75" gradientUnits="userSpaceOnUse"><stop offset="0" stop-color="#cce0f4" stop-opacity="0"/><stop offset="0.11" stop-color="#b8dbf6" stop-opacity="0.04"/><stop offset="0.29" stop-color="#84cdfb" stop-opacity="0.14"/><stop offset="0.39" stop-color="#62c4ff" stop-opacity="0.2"/><stop offset="0.87" stop-color="#62c4ff" stop-opacity="0.5"/><stop offset="0.99" stop-color="#005b97"/></linearGradient></defs><g id="Layer_3" data-name="Layer 3"><rect class="cls-1" width="1400" height="680"/></g><g id="Layer_6" data-name="Layer 6"><text class="cls-2" transform="translate(32.12 665.01)">quobix.com</text><text class="cls-3" transform="translate(13.25 666.09)">&gt;</text></g><g id="Layer_7" data-name="Layer 7"><rect class="cls-4" x="42.71" y="216.29" width="295.51" height="114.94"/><rect class="cls-4" x="390.36" y="216.29" width="295.51" height="114.94"/><rect class="cls-4" x="726.42" y="216.29" width="295.51" height="114.94"/><rect class="cls-4" x="1061.33" y="216.29" width="295.51" height="114.94"/><text class="cls-5" transform="translate(117.95 299.86) scale(1.04 1)">CLI</text><text class="cls-6" transform="translate(1129.62 299.86) scale(1.04 1)">SDK</text><text class="cls-5" transform="translate(489.36 299.86) scale(1.04 1)">UI</text><text class="cls-6" transform="translate(801.67 299.86) scale(1.04 1)">API</text><polygon class="cls-7" points="40 347.75 616.72 440.81 616.72 504.65 803 504.88 803 445.1 1359 347.75 40 347.75"/><text class="cls-8" transform="translate(155.77 539.12)">Experience Engineering?</text><text class="cls-9" transform="translate(442.2 142.82)">what is...</text></g></svg>