<svg xmlns="http://www.w3.org/2000/svg" xmlns:xlink="http://www.w3.org/1999/xlink" viewBox="0 0 1400 680"><defs><style>.cls-1,.cls-11{fill:#0d1117;}.cls-2{fill:#b685ff;}.cls-3{fill:#62c4ff;}.cls-4{fill:url(#linear-gradient);}.cls-5{fill:#fcd321;}.cls-6{fill:#d4145a;}.cls-7{fill:url(#linear-gradient-2);}.cls-8{fill:url(#linear-gradient-3);}.cls-9{fill:#ff0;stroke:#fcd621;stroke-miterlimit:10;stroke-width:7px;}.cls-10{font-size:45.5px;letter-spacing:-0.04em;}.cls-10,.cls-11{font-family:Menlo-Bold, Menlo;font-weight:700;}.cls-11{font-size:114.96px;letter-spacing:-0.04em;}</style><linearGradient id="linear-gradient" x1="631.92" y1="135.35" x2="755.13" y2="135.35" gradientUnits="userSpaceOnUse"><stop offset="0" stop-color="#b63fff"/><stop offset="1" stop-color="#62a9ff"/></linearGradient><linearGradient id="linear-gradient-2" x1="513.83" y1="307.28" x2="585.7" y2="414.88" gradientUnits="userSpaceOnUse"><stop offset="0.3" stop-color="#b63fff"/><stop offset="1" stop-color="#a5005a"/></linearGradient><linearGradient id="linear-gradient-3" x1="858.39" y1="320.73" x2="773.94" y2="459.35" gradientUnits="userSpaceOnUse"><stop offset="0.16" stop-color="#66a4ff"/><stop offset="0.24" stop-color="#6c94ef"/><stop offset="0.39" stop-color="#7c6ac4"/><stop offset="0.6" stop-color="#962681"/><stop offset="0.72" stop-color="#a5005a"/></linearGradient></defs><g id="Layer_3" data-name="Layer 3"><rect class="cls-1" width="1400" height="680"/></g><g id="Layer_9" data-name="Layer 9"><path class="cls-2" d="M649.4,270.59A269.43,269.43,0,0,1,693.52-2a268.56,268.56,0,0,0-206-96C338.85-98,218.35,22.5,218.35,171.14c0,132.15,95.24,242,220.82,264.81C474.37,349,553.7,284.6,649.4,270.59Z"/><path class="cls-3" d="M1168.7,171.14C1168.7,22.5,1048.2-98,899.56-98a268.57,268.57,0,0,0-206,96,269.34,269.34,0,0,1,43.53,274.06c92.2,16.72,168,80.39,201.84,165.36C1068.89,418.37,1168.7,306.42,1168.7,171.14Z"/><path class="cls-4" d="M736.11,270.36a273.1,273.1,0,0,0-85.75-1.43A267.93,267.93,0,0,1,693.52.33a267.84,267.84,0,0,1,42.59,270Z"/><path class="cls-5" d="M693.52,2.69a266.36,266.36,0,0,1,41.65,266,274.82,274.82,0,0,0-83.85-1.39A265.81,265.81,0,0,1,693.52,2.69m0-4.7a269.43,269.43,0,0,0-44.12,272.6,271.39,271.39,0,0,1,87.65,1.46A269.34,269.34,0,0,0,693.52-2Z"/><path class="cls-6" d="M693.52,344.29a268.56,268.56,0,0,1-206,96A270.79,270.79,0,0,1,439.17,436a268.21,268.21,0,0,0-19.58,100.91C419.59,685.5,540.09,806,688.73,806S957.87,685.5,957.87,536.86a268.45,268.45,0,0,0-19-99.45,271.33,271.33,0,0,1-39.33,2.87A268.57,268.57,0,0,1,693.52,344.29Z"/><path class="cls-7" d="M487.49,439.28a270.82,270.82,0,0,1-46.93-4.1c35.71-87.07,115.33-149.6,208.2-163.49a269.43,269.43,0,0,0,43.46,72.6A267.71,267.71,0,0,1,487.49,439.28Z"/><path class="cls-5" d="M648.13,272.8a270.45,270.45,0,0,0,42.78,71.48,266.71,266.71,0,0,1-203.42,94A269.69,269.69,0,0,1,442,434.41,267.49,267.49,0,0,1,648.13,272.8m1.27-2.21c-95.7,14-175,78.39-210.23,165.36a270.79,270.79,0,0,0,48.32,4.33,268.56,268.56,0,0,0,206-96,269.14,269.14,0,0,1-44.12-73.7Z"/><path class="cls-8" d="M899.56,439.28a267.71,267.71,0,0,1-204.73-95,269.47,269.47,0,0,0,42.84-71.11A268.58,268.58,0,0,1,937.49,436.6,271,271,0,0,1,899.56,439.28Z"/><path class="cls-5" d="M738.29,274.31A267.61,267.61,0,0,1,936.08,435.79a271,271,0,0,1-36.52,2.49,266.69,266.69,0,0,1-203.42-94,270.84,270.84,0,0,0,42.15-70m-1.24-2.26a268.81,268.81,0,0,1-43.53,72.24,268.57,268.57,0,0,0,206,96,271.33,271.33,0,0,0,39.33-2.87c-33.81-85-109.64-148.64-201.84-165.36Z"/><path class="cls-9" d="M649.4,270.59a269.14,269.14,0,0,0,44.12,73.7,268.81,268.81,0,0,0,43.53-72.24,271.39,271.39,0,0,0-87.65-1.46Z"/><text class="cls-10" transform="translate(679.75 313.95)">E</text><text class="cls-11" transform="translate(415.09 202.74)">UX</text><text class="cls-11" transform="translate(621.06 587.54)">DX</text><text class="cls-11" transform="translate(849.39 202.74)">UI</text></g></svg>