<svg xmlns="http://www.w3.org/2000/svg" xmlns:xlink="http://www.w3.org/1999/xlink" viewBox="0 0 1400 680"><defs><style>.cls-1{fill:#0d1117;}.cls-2,.cls-3{font-size:22.78px;letter-spacing:-0.06em;}.cls-2,.cls-7{fill:#62c4ff;}.cls-2,.cls-3,.cls-7,.cls-9{font-family:Menlo-Regular, Menlo;}.cls-3{fill:#e8e9ed;}.cls-4{fill:url(#radial-gradient);}.cls-5{fill:url(#radial-gradient-2);}.cls-6{fill:url(#radial-gradient-3);}.cls-7{font-size:107.47px;letter-spacing:-0.06em;}.cls-8{font-size:154.03px;fill:#e397fa;font-family:Menlo-BoldItalic, Menlo;font-weight:700;font-style:italic;}.cls-9{font-size:72px;fill:red;}.cls-10{fill:none;stroke:red;stroke-miterlimit:10;stroke-width:5px;}</style><radialGradient id="radial-gradient" cx="1093.79" cy="448.81" fx="1075.376905807259" fy="231.2257205717981" r="362.21" gradientUnits="userSpaceOnUse"><stop offset="0" stop-color="#ffd4d4"/><stop offset="0.35" stop-color="#e92000"/><stop offset="0.36" stop-color="#e01e00"/><stop offset="0.5" stop-color="#930a00"/><stop offset="0.56" stop-color="#740200"/><stop offset="0.76" stop-color="#6b0000"/><stop offset="0.79" stop-color="#5a0000"/><stop offset="0.93" stop-color="#190000"/><stop offset="1"/></radialGradient><radialGradient id="radial-gradient-2" cx="1328.55" cy="476.29" fx="1290.1907600582726" fy="350.6911341971613" r="147.75" gradientUnits="userSpaceOnUse"><stop offset="0" stop-color="#ffd4d4"/><stop offset="0.35" stop-color="#e92000"/><stop offset="0.36" stop-color="#e01e00"/><stop offset="0.5" stop-color="#930a00"/><stop offset="0.56" stop-color="#740200"/><stop offset="0.76" stop-color="#6b0000"/></radialGradient><radialGradient id="radial-gradient-3" cx="1021.68" cy="345.17" fx="1000.7372279904097" fy="302.5760141655211" r="182.74" gradientUnits="userSpaceOnUse"><stop offset="0.02" stop-color="#ffd4d4"/><stop offset="0.51" stop-color="#16f9f9"/><stop offset="0.54" stop-color="#15eff2"/><stop offset="0.6" stop-color="#11d6df"/><stop offset="0.66" stop-color="#0bacbf"/><stop offset="0.74" stop-color="#047999"/><stop offset="0.8" stop-color="#035ab3"/><stop offset="0.94" stop-color="#0119ea"/><stop offset="1" stop-color="blue"/></radialGradient></defs><g id="Layer_3" data-name="Layer 3"><rect class="cls-1" width="1400" height="680"/></g><g id="Layer_6" data-name="Layer 6"><text class="cls-2" transform="translate(61.12 665.01)">quobix.com</text><text class="cls-3" transform="translate(42.25 666.09)">&gt;</text></g><g id="Layer_17" data-name="Layer 17"><path class="cls-4" d="M1295,739.51c.28-116.41-8.61-296.28-25.72-411.43-4.33-29.12-9.32-58.54-21.36-85.4s-32-51.3-59.11-62.86c-12-5.1-24.86-7.55-37.68-9.76q-32.76-5.64-65.8-9.5c-34.54-4-72.5-5.77-100.9,14.29-28.22,19.94-39.31,55.9-48.07,89.32-17.54,66.95-33.07,134.7-39.13,203.64-2.95,33.55-3.65,67.26-4.34,100.93-.37,17.57-.71,35.35,3.24,52.47,4.63,20.08,15,38.66,17.95,59.07,2.81,19.76-1.5,40.72,5.72,59.34"/><path d="M1300.91,739.51c.17-83.4-3.28-166.88-9.18-250.06-3-41.84-6.61-83.65-11.69-125.29-5.34-43.71-9.84-90.06-29.64-130-9.24-18.65-22.33-35.6-39.07-48.1-19.55-14.59-42.81-19.13-66.38-23-24.57-4.08-49.35-7.78-74.18-9.91-21.76-1.86-44.47-2-65.46,4.85-20.17,6.55-36.63,19.64-48.32,37.24-11.32,17-18,36.86-23.46,56.42-13.89,49.66-25.66,100.26-34,151.15-8.65,52.74-11.38,105.68-12.5,159-.53,25.34-.92,50.23,7.23,74.55,3.84,11.46,8.63,22.6,11.71,34.3,3.15,11.93,3.16,23.92,3.27,36.17.11,11.63.71,23.36,4.77,34.37,2.63,7.13,14.14,4,11.48-3.17-4.14-11.23-4.3-22.93-4.36-34.76s-.52-23.44-3.45-34.93c-2.85-11.14-7.31-21.78-11.08-32.63a134.81,134.81,0,0,1-7.49-34.93c-1.83-25.67-.05-51.91.83-77.6s2.42-51.15,5.36-76.59c5.86-50.89,16.65-101.1,29-150.75,5.39-21.57,10.41-43.48,18.06-64.39,6.68-18.28,16.18-36.21,31.45-48.77,16.32-13.42,37.7-18,58.36-18.64,22.94-.7,46,2.57,68.64,5.74q19.38,2.7,38.65,6c11.57,2,23.24,4.15,34.23,8.38,19.18,7.37,35,21.92,46.38,38.77,24.89,36.77,30.43,83.1,36.1,126.1,5.17,39.17,8.89,78.53,12,117.91q9.57,123,10.76,246.58.11,13,.08,26c0,7.66,11.89,7.68,11.91,0Z"/><path class="cls-5" d="M1275.32,339.65c42.73-14.27,69.93-.37,90.14,15.17,2,1.52,4.61,2.92,6.64,4.39,2.66,1.91,3.62,5.37,4.33,8.57,7,31.8,5.61,64.78,4.17,97.32q-2.68,60.86-5.39,121.72c-.4,9.2-1.34,19.53-8.4,25.44-4.47,3.74-10.51,4.87-16.3,5.55a157.19,157.19,0,0,1-52-2.59"/><path d="M1276.9,345.39c22.11-7.21,45.37-8.26,66.55,2.39a107.68,107.68,0,0,1,11.68,6.88c4.13,2.78,8.95,5.6,12.68,8.82,4.1,3.53,4.21,12.09,5,17.16a229,229,0,0,1,2.42,23.09c1.74,29.72-.52,59.61-1.84,89.3q-2,45.9-4.06,91.79c-.28,6.28-.27,13.26-3.28,18.95-3.4,6.44-10.79,7.59-17.41,8.3a154.05,154.05,0,0,1-48.6-2.59c-7.48-1.6-10.67,9.88-3.17,11.48a165.68,165.68,0,0,0,48,3.36c13.61-1.1,27.26-3.83,32.91-17.82,2.42-6,3-12.55,3.29-19,.43-8.56.76-17.12,1.14-25.67l2.3-51.89c1.48-33.4,4.22-67.08,2.87-100.53-.34-8.27-1-16.53-2.08-24.74-1-7.43-1.73-15.58-4.35-22.64-2.43-6.52-7.72-8.84-13-12.74-4-3-8-5.84-12.3-8.39-25.4-15.15-54.22-16.1-82-7-7.25,2.36-4.15,13.86,3.17,11.48Z"/><path class="cls-6" d="M1088.77,259.32c-45.82-12-77.74-8.45-124,1.74-27.15,6-54.75,16.6-73.21,38.5S867,357,883.9,380.26c7.16,9.85,17.49,16.52,27.94,22.18,44.7,24.21,95.39,33.79,145.57,35.85,18.86.78,38,.5,56.2-4.85s35.49-16.27,45.72-33.05c14.2-23.29,12.46-54.8.22-79.3S1127,276.28,1103,265c-2.69-1.26-6.34-3.71-14.26-5.7"/><path d="M1090.35,253.58c-27.29-7.08-55-9.5-83-6.13-27.08,3.25-55.23,8.41-80.32,19.42-23.09,10.13-43.26,26.95-52.92,50.68-8.74,21.5-8.79,48,5.68,67,8.34,11,20.2,18.37,32.25,24.68a278.54,278.54,0,0,0,39.09,16.66c27.45,9.34,56.21,14.48,85.05,17s60.18,4.26,87.57-6.67c23.66-9.44,42.84-27.81,49.11-53,7.17-28.84-1.66-59-18.76-82.63-15.28-21.09-38.11-40.17-63.71-47-7.41-2-10.57,9.51-3.16,11.48,20.59,5.48,39.38,20.31,52.71,36.5,14.91,18.11,24.44,40.72,23.44,64.42s-13.91,43.55-34.63,54.86c-23.28,12.71-50.84,12.59-76.62,11.25-26.7-1.38-53.3-5-79.14-12-24.45-6.59-49.75-15.86-70.66-30.43-18.87-13.15-25.75-34.4-20.7-56.55,5.11-22.33,20.36-39.33,40-50.36,24.24-13.6,53.36-18.88,80.57-22.76a214.29,214.29,0,0,1,85,5c7.42,1.93,10.59-9.55,3.16-11.48Z"/><text class="cls-7" transform="translate(116.68 162.58)">How To Beat</text><text class="cls-8" transform="translate(69.41 351.08)">Impostor <tspan x="0" y="184.83">Syndrome</tspan></text><text class="cls-9" transform="translate(1174.85 121.92)">sus!</text><line class="cls-10" x1="1140" y1="150" x2="1162" y2="122"/></g></svg>