<svg xmlns="http://www.w3.org/2000/svg" viewBox="0 0 1400 680"><defs><style>.cls-1{fill:#0d1117;}.cls-2{fill:#003144;}.cls-3{font-size:95.64px;}.cls-3,.cls-5,.cls-6,.cls-7{fill:#fff;}.cls-10,.cls-3,.cls-5,.cls-8{font-family:Menlo-Bold, Menlo;}.cls-10,.cls-3,.cls-4,.cls-8{font-weight:700;}.cls-4,.cls-7{font-size:94px;}.cls-11,.cls-4{fill:#00d8ff;}.cls-4{font-family:Menlo-BoldItalic, Menlo;font-style:italic;}.cls-5,.cls-6{font-style:normal;}.cls-5{letter-spacing:0em;}.cls-6,.cls-7{font-family:Menlo-Regular, Menlo;}.cls-6{font-weight:400;}.cls-6,.cls-8,.cls-9{letter-spacing:0em;}.cls-8{fill:#f7931e;}.cls-10{fill:#f0f;}.cls-11,.cls-12{stroke:#00d8ff;stroke-miterlimit:10;stroke-width:19px;}.cls-12{fill:none;}.cls-13{fill:#f7df1e;}</style></defs><g id="Layer_3" data-name="Layer 3"><rect class="cls-1" width="1400" height="680"/></g><g id="Layer_13" data-name="Layer 13"><circle class="cls-2" cx="878.5" cy="340.5" r="663.5"/><text class="cls-3" transform="translate(512.02 114.94)">Build a</text><text class="cls-4" transform="translate(511.23 217.94)">React<tspan class="cls-5" x="282.96" y="0"> </tspan><tspan class="cls-6" x="339.56" y="0">Pub-Sub</tspan><tspan class="cls-5" x="735.71" y="0"> </tspan></text><text class="cls-7" transform="translate(508.12 329.23)">Stock Ticker</text><text class="cls-7" transform="translate(507.42 441.13)">using <tspan class="cls-8" x="339.56" y="0">STOMP </tspan><tspan class="cls-9" x="679.11" y="0">and</tspan><tspan class="cls-10"><tspan x="0" y="112.8">WebSockets</tspan></tspan></text></g><g id="Layer_15" data-name="Layer 15"><circle class="cls-11" cx="214.51" cy="309.63" r="48.61" transform="translate(-125.49 471.77) rotate(-80.78)"/><path class="cls-12" d="M214.51,210.81c65.25,0,125.87,9.37,171.57,25.09,55.06,19,88.92,47.7,88.92,73.72,0,27.11-35.88,57.65-95,77.23-44.71,14.81-103.54,22.55-165.48,22.55-63.51,0-123.64-7.26-168.86-22.71C-11.55,367.14-46,336.22-46,309.62c0-25.82,32.33-54.33,86.63-73.25,45.87-16,108-25.56,173.88-25.56Z"/><path class="cls-12" d="M128.49,260.51C161.08,204,199.49,156.15,236,124.43c43.93-38.23,85.75-53.2,108.28-40.21,23.49,13.54,32,59.89,19.44,120.91-9.51,46.13-32.19,100.95-63.15,154.62-31.72,55-68,103.48-104,134.93C151,534.47,107,548.86,84,535.57,61.59,522.68,53,480.43,63.76,423.94c9.06-47.77,31.8-106.36,64.73-163.43Z"/><path class="cls-12" d="M128.57,359.86C95.88,303.39,73.62,246.23,64.34,198.8,53.16,141.65,61.06,97.94,83.58,84.91c23.47-13.59,67.87,2.17,114.45,43.53,35.22,31.28,71.38,78.31,102.41,131.93,31.83,55,55.68,110.64,64.95,157.5,11.74,59.3,2.23,104.61-20.79,117.93-22.34,12.93-63.21-.76-106.8-38.26C201,465.85,161.58,416.89,128.57,359.86Z"/></g><g id="Layer_14" data-name="Layer 14"><rect class="cls-13" x="1206" y="485.83" width="194.27" height="194.27"/><path d="M1336.5,637.6c3.91,6.39,9,11.09,18,11.09,7.56,0,12.39-3.78,12.39-9,0-6.26-5-8.47-13.29-12.11l-4.56-2c-13.17-5.62-21.92-12.65-21.92-27.51,0-13.69,10.43-24.11,26.73-24.11,11.61,0,20,4,26,14.61l-14.21,9.13c-3.13-5.61-6.51-7.82-11.75-7.82s-8.74,3.39-8.74,7.82c0,5.48,3.4,7.69,11.23,11.09l4.56,1.95c15.51,6.65,24.27,13.43,24.27,28.68,0,16.44-12.91,25.44-30.25,25.44-17,0-27.91-8.08-33.27-18.67ZM1272,639.18c2.87,5.09,5.48,9.39,11.75,9.39,6,0,9.78-2.34,9.78-11.47V575h18.26v62.32c0,18.9-11.09,27.51-27.26,27.51-14.62,0-23.08-7.57-27.39-16.68Z"/></g></svg>