<svg xmlns="http://www.w3.org/2000/svg" xmlns:xlink="http://www.w3.org/1999/xlink" viewBox="0 0 1400 680"><defs><style>.cls-1{fill:none;}.cls-2{fill:#0d1117;}.cls-3{font-size:213.32px;fill:#62c4ff;font-family:MyriadPro-Regular, Myriad Pro;}.cls-4{letter-spacing:-0.01em;}.cls-5{letter-spacing:-0.01em;}.cls-6{letter-spacing:0em;}.cls-7{clip-path:url(#clip-path);}.cls-8{fill:#fff;}.cls-9{fill:#231f20;stroke:#f0f;stroke-miterlimit:10;stroke-width:19px;}</style><clipPath id="clip-path"><rect class="cls-1" x="72.98" y="240.57" width="1231.42" height="442.43"/></clipPath></defs><g id="Layer_3" data-name="Layer 3"><rect class="cls-2" width="1400" height="680"/></g><g id="Layer_12" data-name="Layer 12"><text class="cls-3" transform="translate(216.1 254.07)"><tspan class="cls-4">T</tspan><tspan x="104.53" y="0">hank </tspan><tspan class="cls-5" x="589.41" y="0">y</tspan><tspan class="cls-6" x="687.75" y="0">ou</tspan></text><g class="cls-7"><path class="cls-8" d="M636.41,524.72l-42.4-118a19.34,19.34,0,0,1-1.35-5.69,10.28,10.28,0,0,1,10.52-10c5.4,0,8.93,3.53,10.54,8.64l35.13,101.7,35.36-102c1.62-4.82,4.87-8.35,10.25-8.35h1.09c5.68,0,9.2,3.53,10.81,8.35l35.09,102,35.69-102.25c1.36-4.32,4.31-8.09,10-8.09a10,10,0,0,1,10.26,9.71,20,20,0,0,1-1.33,5.69l-42.68,118.3c-2.19,6.19-6.5,9.42-11.34,9.42h-.83c-5.4,0-9.45-3.23-11.36-9.42L695,424.42,659.9,524.72c-1.88,6.19-5.94,9.42-11.34,9.42H648c-5.13,0-9.43-3.23-11.6-9.42"/><path class="cls-8" d="M945.44,401.32a10.49,10.49,0,0,1,10.26-10.55,10.37,10.37,0,0,1,10.56,10.55v24C976.54,402,999.32,391,1014.42,391c6.22,0,10.31,4.6,10.31,10.53a10.38,10.38,0,0,1-9.23,10.57c-27.06,3.25-49.24,23.53-49.24,63.87v47.43a10.41,10.41,0,1,1-20.82,0V401.32"/><path class="cls-8" d="M1091.56,535.27c-37.67,0-68.4-29.19-68.4-72v-.55c0-39.86,27.83-72,65.75-72,40.53,0,63.61,33.45,63.61,70.15a9.57,9.57,0,0,1-9.55,9.63h-99.11c2.88,30,23.82,46.85,48.23,46.85,17,0,29.4-6.69,39.49-16.07a8.81,8.81,0,0,1,14.85,6.48,8.75,8.75,0,0,1-3.2,6.66c-13,12.58-28.36,20.89-51.67,20.89m40.55-80.08c-2.12-25.16-16.46-47.11-43.73-47.11-23.86,0-41.91,20.07-44.52,47.11Z"/><path class="cls-8" d="M797.78,491.93v-.56c0-29.39,24.25-45.05,59.59-45.05a148.68,148.68,0,0,1,42.91,5.94V447.4c0-25.08-15.43-38-41.55-38-14,0-22.2,1.81-32.46,6.36a10.76,10.76,0,0,1-3.76.82,9.25,9.25,0,0,1-9.2-8.9c0-4.31,1.89-7,5.7-8.65,13.72-6,24.07-7.94,41.87-7.94,19.69,0,34.78,5.1,45,15.36,9.45,9.44,14.32,22.93,14.32,40.72v77a9.86,9.86,0,0,1-10,10.25,9.54,9.54,0,0,1-9.93-9.72V511.33c-9.73,12.69-25.91,24-50.42,24-25.92,0-52.08-14.84-52.08-43.42m102.75-10.8V467.65a146,146,0,0,0-41-6c-26.12,0-40.72,11.36-40.72,28.88v.54c0,17.51,16.19,27.77,35.07,27.77,25.61,0,46.66-15.65,46.66-37.75"/><path class="cls-8" d="M258.54,399.78a19.65,19.65,0,0,0-26.4-9.86c-10.54,4.69-14.44,16.38-9.67,26.42l44.27,96.2c6.95,15.07,14.29,23,28.06,23,14.7,0,21.12-8.62,28.07-23,0,0,38.61-84.08,39-84.94a5.59,5.59,0,0,1,5.56-3.59,6.15,6.15,0,0,1,6.12,6.22v82.24c0,12.65,7,23,20.56,23s20.81-10.4,20.81-23V445.19c0-13,9.3-21.39,22-21.39S458,432.49,458,445.19v67.28c0,12.65,7.06,23,20.55,23s20.85-10.4,20.85-23V445.19c0-13,9.27-21.39,22-21.39s21.1,8.69,21.1,21.39v67.28c0,12.65,7,23,20.56,23s20.83-10.4,20.83-23V435.91c0-28.14-22.61-47.86-49.85-47.86s-44.22,18.83-44.22,18.83c-9.05-11.74-21.54-18.81-42.65-18.81-22.29,0-41.78,18.81-41.78,18.81-9.07-11.74-24.48-18.81-37.25-18.81-19.75,0-35.43,8.68-45,30.57L294.8,485.26l-36.26-85.48"/><path class="cls-8" d="M1154.2,408.12V408a17.26,17.26,0,1,1,34.51-.08V408a17.34,17.34,0,0,1-17.26,17.37,17.15,17.15,0,0,1-17.25-17.25m31.19-.12v0a14,14,0,1,0-27.91,0v.1a13.86,13.86,0,0,0,14,14.06A14,14,0,0,0,1185.39,408"/><path class="cls-8" d="M1164.85,401.19a1.84,1.84,0,0,1,1.85-1.86h5.76a6.5,6.5,0,0,1,4.87,1.72,5.14,5.14,0,0,1,1.47,3.79v.06a5.13,5.13,0,0,1-3.34,5.09l2.55,3.1a2.18,2.18,0,0,1,.58,1.4,1.72,1.72,0,0,1-1.75,1.7,2.34,2.34,0,0,1-1.8-.93l-3.57-4.54h-2.93v3.63a1.85,1.85,0,0,1-3.69,0Zm7.4,6.25c1.8,0,2.79-.92,2.79-2.36V405c0-1.55-1.06-2.38-2.83-2.38h-3.67v4.79Z"/></g><line class="cls-9" x1="69.5" y1="108" x2="69.5" y2="540.5"/><line class="cls-9" x1="1321.5" y1="108" x2="1321.5" y2="540.5"/></g></svg>