<svg xmlns="http://www.w3.org/2000/svg" viewBox="0 0 428.5 592.04"><defs><style>.cls-1,.cls-3{fill:#fc00ea;}.cls-1,.cls-2{fill-rule:evenodd;}.cls-2{fill:#fff;}.cls-3{font-size:68px;font-family:Menlo-Regular, Menlo;letter-spacing:-0.06em;}</style></defs><g id="Layer_2" data-name="Layer 2"><g id="Layer_6" data-name="Layer 6"><path class="cls-1" d="M154,499.81h-8.28v-2.17H154v2.17ZM43.63,460.18V458H40.27v2.17Zm99.17,38.33v-1.95h-4.47v1.95Zm-17.45-1.09v-1.94l-7.84-2.6-.67,1.74,8.51,2.8Zm-24.84.87-3.13-2.81L96,496.56l3.14,3,1.34-1.3Zm-30.42-6.7V486a7.84,7.84,0,0,1-3.36-1.3c0,1.88-.9,4.54-2.69,8a11.77,11.77,0,0,0,3-.55,11.81,11.81,0,0,1,3-.54Zm-4.91-12.54-.89,1.73-3.14-1.51.67-1.74,3.36,1.52Zm-3.36.65L60,479.05l-1.78,3,1.78.86,1.79-3.24Zm7.74,25a6.05,6.05,0,0,0-4.7-1.72q2.46-2,3.57-1.95a9.53,9.53,0,0,1,1.13,3.67Zm62.34-9.57-1.11-1.51-4.48,2.81,1.12,1.74,4.47-3Zm175.81,6.76H303v-2.16h4.7v2.16Zm-7.61,0h-9.4v-2.16h9.4v2.16Zm14.37-8.8h-3.36V491h3.36v2.16Zm-53.92,62.53v-2.16h-3.36v2.16Zm1.59-6.91-1.79-.65-1.79,3,1.79.87,1.79-3.25Zm-5.78-6.18v-2.15h-4.7v2.15Zm4,2.6c-1.2,1.3-3.06,2-5.6,2-.29-.14-.45-.29-.45-.43,0,.57,1-.94,2.91-4.55l3.14,3Zm162-133h-2.24v-.77l-.49.91-1.58-.65,1.58-3.25,1.39.51h1.34v3.25Zm-11.23,36-.67,1.74-4.25-1.51v-1.73l4.92,1.5ZM423,400.3l-1.56,4.76-1.79-.65,1.56-4.11Zm-1.56,29.43-.67-1.73-3.14,1.51v1.73l3.81-1.51Zm3.7-2.6h-3.35V425h3.35v2.17Zm-12.3,0h-4.7V425h4.7v2.17Zm6.76-8.81h-.45l-4.2,5.57-1.79-1.3,3.22-4.27h-.14v-2.16h3.36v2.16Zm-30.26,36.11-1.79-.65L386,457l1.79.64,1.56-3.24ZM401,453.38h-2l-.26-.94-.09.17-2.29-.87-.23,1.14h-2l.51-2.28v-1.24l.27.08,1.87-8.31h-2.15v-2.34a65.32,65.32,0,0,0-24.21,14.81,63.87,63.87,0,0,0-9.74,12h.8v2.16h-2.09a60.72,60.72,0,0,0-6.13,15.15h2v2.16h-2.47c-.28,1.29-.52,2.59-.71,3.9H275.7l-2.84,2.52v1.62h-3.37V491h1.59l-5.65-5L262,489h-4.53l-2,1.81.37.36V491h4.7v2.16h-2.72l.54.54,3.16,3.14,7.58,7.53L282,506.76h42l3.42-1.84,6.85,3.68,1.11-.59-2.12-2.8,1.57-1.08,2.33,2.92.53-.29h2.78l3.43-2.47,6.84,4.94,3.43-2.47h6.64a7.4,7.4,0,0,0,.58-1.44,4.11,4.11,0,0,0,.53,1.44h7.82v-8.89a43,43,0,0,1,1.47-11.17,8.56,8.56,0,0,1-1.75.22c1.78-3.46,2.68-6.13,2.68-8,.59.33,1.11.61,1.59.82a44.81,44.81,0,0,1,6.52-10.22,1,1,0,0,1-.78-1.25l.06-.18h-1.14l.93-1.9a2.67,2.67,0,0,1-2.09.14q-1.56-.22-1.56-.87c.15.15.86-.11,2.12-.75a7.33,7.33,0,0,1,2.57-1,47.34,47.34,0,0,0-5.81-7.36c-.6.58-.9,1.74-.9,3.47a10.58,10.58,0,0,0-2-2.81,67.87,67.87,0,0,1,7.17-4.12,2.94,2.94,0,0,1-1.13,2.82l2,1.72c1.35-.72,2-1.44,2-2.16a7.08,7.08,0,0,0,3.58,1.51,6,6,0,0,0-3.14,1.19c-1.19.8-1.79,1.63-1.79,2.49q0,2,3.12,5.6c.52-.5,1.06-1,1.6-1.47l-.24-.23,1.34-1.08.23.2a45.25,45.25,0,0,1,5.19-3.66H390l-1.34-3,1.56-.64,1.53,3.59a47.61,47.61,0,0,1,5.06-2.65l-3.53-1.25v-1.73l4.92,1.51-.4,1.05a47,47,0,0,1,16.5-3.66c1.58-.27,2.37-.95,2.37-2,0-.71.11-.05.34,2h8.36V374a9.65,9.65,0,0,0-1.42-1.78l1.42-.89V366.4l-.83-1.07L411.22,372v2.65a6.76,6.76,0,0,0-1,.08l13.57,23.65s-5,2.08-11.91,4.84h6.67v2.16h-8.28v-1.52L407,405.14v5.43l1.38-1.45q1.33,1.29,1.33,5a4.82,4.82,0,0,0-1.56-2.59l-1.15.38v24q-2.61.36-5.16.92A10.75,10.75,0,0,1,400,440a5.08,5.08,0,0,1,1.13-3.12c-1.44.34-2.86.72-4.27,1.14V441h1.75l-1.87,9,1.47.45-.75-2.69h2.23l1.34,5.62ZM351.79,501a8,8,0,0,0-1.12,3.24q-2.91-.86-3.36-1.08a4.35,4.35,0,0,1-1.52-1.35H345v-1.94h3.36v1.94h-2.08a7,7,0,0,0,2.15.27,4.68,4.68,0,0,0,3.36-1.08Zm13.87-20.13H362.3v-2.16h3.36v2.16Zm-26.84,25.33h-2.24v-5.41h2.24v5.41Zm73.94-65.69H409.4v-1.95h3.36v1.95Zm-19.92,4.75-6.27-.64v-2l6.27.65v1.94ZM331,491.2h-6.93V489H331v2.17Zm39.62-17.9-.89,1.73-3.14-1.52.68-1.73,3.35,1.52ZM322,493.84c0,.58-1.12,1.94-3.35,4.11a1.36,1.36,0,0,0,.9.22,4.44,4.44,0,0,0,2.23-.87,3.24,3.24,0,0,1,1.12,2.38,4.3,4.3,0,0,1-.9,2.38c-.7-.31-1.38-.57-2-.79v.65h-3.36v-1.49a8.85,8.85,0,0,0-1.32-.1,7.4,7.4,0,0,0-2.69.43c1.48-1.59,4.62-3.9,9.39-6.92ZM367.26,474l-1.8,3.24-1.78-.86,1.78-3,1.8.65Zm1.91,25-8.73,4.12v-2l8.06-3.9.67,1.73ZM340,492.87a6.5,6.5,0,0,1-4.48-2.17c-1.5,1.45-2.47,2.17-2.91,2.17l1.34-3.25c1.79,0,3.8,1.08,6.05,3.25Zm78.57-45-3.12,3-1.35-1.3,3.13-3,1.34,1.3ZM365.5,470.36q-1.78,2-5.59,1.95c-.3-.14-.45-.28-.45-.43q0,.86,2.91-4.54l3.13,3Zm2.69,19.05-.67,1.73-4.26-1.52V487.9l4.93,1.51ZM209,461.65H205.6v-2.16H209v2.16Zm-12.3,0H192v-2.16h4.7v2.16ZM209,495.47h-1.79l-1.56-4.11,1.79-.66,1.56,4.77Zm31.58,33.11H235v-2.17h8.28v.65h.7v2.16h-3.36v-.64Zm-65-34.22-1.56-3.68-1.57.65,1.34,3ZM171,489h-8.56a3.13,3.13,0,0,1-1,1.27l2,1.72c1.34-.72,2-1.44,2-2.16a7.13,7.13,0,0,0,3.57,1.52,5.86,5.86,0,0,0-3.13,1.19c-1.19.79-1.79,1.62-1.79,2.49q0,2.81,6.05,8.65c-.6,0-1.53.07-2.8.21a27.11,27.11,0,0,1-2.8.23c-1.05,0-1.49-.44-1.34-1.3l.06-.19h-1.13l.91-1.9a2.6,2.6,0,0,1-2.08.14c-1-.14-1.57-.44-1.57-.87.16.15.86-.1,2.13-.76a7.68,7.68,0,0,1,2.57-1,47.18,47.18,0,0,0-5.82-7.36c0,.06-.11.12-.16.19v3h-.73v.27l-.14-.27H156v-2a6.44,6.44,0,0,0-.51-.53l.51-.33v-.37h.59c1.09-.68,2.14-1.31,3.13-1.87H114.79a31.37,31.37,0,0,0-2.48,7.55c-2-1.51-1.91-3.64.28-6.36a3.87,3.87,0,0,0,.59-1.19h-3.27v.17a2,2,0,0,0,.72.26v5.84q-.67-2-4-6.06l-2.69,2.38a11.53,11.53,0,0,0-.42-2.54l-1.77,0L103,492h-.74l1.48.77-.67,1.72-3.36-1.72.67-1.74.52.27-1-2.19h-.61l-.35.71-1.79-.65h-.23c.38.23.63.84.75,1.84a4.6,4.6,0,0,1-.9,3,6.38,6.38,0,0,1-2.35-.87,6.49,6.49,0,0,0-2.35-.86,20.57,20.57,0,0,1,4-3.12l-1,0a8.27,8.27,0,0,0-1.75.92c-1.19.79-1.79,1.62-1.79,2.49q0,2.81,6,8.65c-.6,0-1.53.08-2.79.22s-2.21.21-2.8.21c-1.05,0-1.49-.43-1.35-1.3.45-1.29.53-2.08.23-2.37a2.35,2.35,0,0,1-2.3.47l1.47,2-1.79,1.08-2.91-4.32,1.57-1.08.87,1.2c.31-.13.71-.32,1.19-.56a7.41,7.41,0,0,1,2.57-1,48.41,48.41,0,0,0-5.82-7.36c-.59.58-.89,1.74-.89,3.47a10.64,10.64,0,0,0-2-2.82l1.18-.75-3.42.66-.81-7.8-4,.76-.66-.27a4,4,0,0,0,.76.48,2,2,0,0,0,2.47-.43c-1,1.15-2.76,1.73-5.15,1.73V481l-1.55-.63,1.55-6.56H73l.44-.92.2-.84a2.79,2.79,0,0,1-1.81,0c-1-.15-1.57-.44-1.57-.87.1.1.44,0,1-.21l-1.73-.7,1.12-6.36-2.08-.84a8,8,0,0,0-.32,2.49,10.74,10.74,0,0,0-2-2.81l.61-.38-.21-.09-.14-.19-4.5-.63.1-8.79-3.47-.48-.78,2.48h0a4.5,4.5,0,0,0,1.47,1.16,1.94,1.94,0,0,0,2.46-.43q-1.56,1.72-5.15,1.73v-3l-.78-.34.92-2.43-.23-.19c-2.68,0-6.78.94-12.29,2.82q3.36-3.46,4.93-3.47l.86.08-2.55-8.42-4.61,1.33-2.93-4.72-3.6.25c-.07,1.35-1,3.06-2.63,5.16q2.84,2.11,4.72,1.89a23.21,23.21,0,0,0-8.22,6.71c-.72.91-1.4,1.84-2,2.77l5,1.67c.28.12.56.25.83.39l1.28.9,3.88.47,3.34,6.83,3.87.47a45.71,45.71,0,0,1,3.4,3.7l1.57,2.39v-1.07H56v2.16h-4l2.47,3.76c.47-.67,1.27-2.08,2.41-4.19l3.13,3a6.86,6.86,0,0,1-5,1.93l.07.11a44.9,44.9,0,0,1,2.61,6.28h2.51v2.16H58.37a43.68,43.68,0,0,1,1.33,7.62l3.06.94-.67,1.73-2.27-.8c0,.59,0,1.18,0,1.78v6.69L63.07,503l.67,1.72-3.88,1.83v.2H97.92l3.43-1.84.7.37,3.64,2,2.5,1.34.87-.46.14,0-1.24-.44,1.8-3,1.56.65-1.42,2.76,1.88-.18,2.73-.19,1.68-1.34-.91-1.35,1.56-1.08.83,1.23.09-.07,2.78,1.67.84-1.64,1.8.66-1,2,1.63,1A1.73,1.73,0,0,0,124,508q0-.86.21.9l.74.44,1.28-1v-2.82h2.24v1.23h3l3.26-1.62q-.63-.7-1.53-1.65c1.94,0,2.91-.36,2.91-1.09v3.26l5.64,2.81.32-.16-1.11-6h2.24l.67,3.59q.72-1.06,2.34-4.08l3.13,3a7.07,7.07,0,0,1-5.3,1.94l.08.45,1.05-.52h2.17l2.57-1.28V505h2.24v.79l5.46,2.73,3.43-1.71h21.2a1,1,0,0,1,0-.24l.08.24h2.9v-.59h2.23v.59h1.24l0,0v0h11.89v-3.51c-.75-.72-2.32-1.08-4.7-1.08h-4v-6.93a33.17,33.17,0,0,1,10.29,5.84A4.73,4.73,0,0,0,203,501l-3.15-3,4.26-2.16c-.14.13-.21,1.79-.23,5l.32-.13,1-.43q-1.32,2.36-3.73,6.54h5.68a8.52,8.52,0,0,0-2.34-4.06c.44,0,1.19.58,2.24,1.74s1.93,1.73,2.68,1.73c1.34,0,2.09-.14,2.24-.44v1h7l2,2.69-.58-1.51,1.79-.66,1.57,4.76h-.88l2.41,3.31,2.66-3.33a16.41,16.41,0,0,1,4,.28c-.11-.81.4-1.8,1.52-3a4.78,4.78,0,0,1,3.12-1.78q.28,2.13-2.6,5.72c1.89,1.42,3.46,2,4.71,1.89a23,23,0,0,0-8.21,6.72l-.24.29,7.52,10.3,2.27-1.19.68,1.73-1.94.83.34.46v-.59h2.24v3.65l1.47,2,3.26-2,1.11,1.52-3.26,2,16.42,22.46,2.7.82-.68,1.74-.2-.07,4,5.43a5.31,5.31,0,0,1,2.58-1.2,9.51,9.51,0,0,1,1.12,3.68,5.18,5.18,0,0,0-3.05-1.59l5.75,7.87h2v2.73l4.71,6.45.44-1.17-11-27.22q-.6.12-1.32.33a11.82,11.82,0,0,1-3,.54,29.33,29.33,0,0,0,2.36-5.76l-2.58-6.36-2.67-1.29.67-1.73.95.43L252.48,520.8q-2.21.47-5,1.32v.74h-2.23v0l-.69.23.69-.69v-2.76h2.23v.84a3.83,3.83,0,0,1,2-.85l2.63.23-6.38-15.78-2.37-5.83a3.66,3.66,0,0,1-2.59.83c-.89,0-1.34.22-1.34.65a1.73,1.73,0,0,0,.67,1.08l-2.91-2.38c.91-.35,2.17-.87,3.75-1.55L239,496l1.9-4.66-.06-3.68-4-1.65,1.55-8.34-4-1.66-4.46-11-38.76-12-7.64,6.49H189v2.16h-8.11l-14.73,12.5v.05h-.06l-1.8,1.53v.57h-.68L152,486.19l18.36-7.62v-1.4l2.71.28,19-7.88H207L214.56,489H201l.17,1.72c.3,3,.22,5.06-.22,6.07a5.07,5.07,0,0,1-2.8-1.3c-1.12-.87-1.68-1.59-1.68-2.17a5,5,0,0,0,2.69,1.09q.45-1.31,2-5.2A9.51,9.51,0,0,1,200,489H178.22l3.81,1.17-.67,1.73-4.25-1.51V489h-4l-1.55,3.21-1.8-.64L171,489Zm1.43,11h1.44v2.17h-4.48V500h.41l-1.16-1.12,1.34-1.08,2.45,2.2Zm63.38-2.17a11.82,11.82,0,0,0-3,.54,11.75,11.75,0,0,1-3,.54q2.69-5.19,2.69-8a7.73,7.73,0,0,0,3.35,1.3v5.63ZM198.76,492H195.4v-2.16h3.36V492ZM245,510.74h-2.23V507.5H245v3.24Zm3.58,6.07h-2v-3.25h2v3.25Zm-7.38-8.87-1.57,3.24-1.79-.87,1.57-3,1.79.66ZM91.37,489.36c-.15.1-.31.18-.48.28l-.3-.26.78,0ZM56.51,451.21l-5-.44,3.3-.95,1.74,1.39ZM35.1,438.82a6.66,6.66,0,0,0-1.92,1.48c-1.13,1.16-1.64,2.14-1.53,2.95a7.38,7.38,0,0,0-1.36-.21v-.71H28.05V443h-.42l-5.07,6.35c3.23-2.15,5-3.3,5.29-3.43a6.53,6.53,0,0,1,.66-.31h1.78V445a5,5,0,0,1,3.25.46q.12.9-3.25,4.41l-4.71,4.83-2.1-.69a47.51,47.51,0,0,0-10-1.07H4.24V434.64L1,431.33l6.42-6.62L4.24,421.4v-1.5l1.6,1.66c3.58-1.73,5.37-3.76,5.37-6.06a10.87,10.87,0,0,1-7,2.76v-9.11l2.88,4.29,1.57-1.09L5.77,408l-1.53,1.07V376.78l.69-1.22-.69.29V365.24l2.16,1.07-1.07.38,1.57,4.12H8.69l-1.33-4,12.37,6.14L5.15,398.33l.67.28-.05.11,1.6.53c3,1.23,8.73,3.55,15.26,6.13v2.2h-.52l.52.54v6.72h0v2.68l-.45.35c-1.64,1.3-2.46,2.09-2.46,2.38a13.22,13.22,0,0,1,2.91-.91v.9l3.35,3-5.09,7,.91,1.09,2.31,2.06,2.1,3a67.63,67.63,0,0,1,8.89,2.39Zm189.54,50.94L221.5,493a30.43,30.43,0,0,1-3.12-4.54,12.94,12.94,0,0,1,3.12.65,13.67,13.67,0,0,0,3.14.65Zm-37.24,8-1.34,6.71h-2.24l1.35-6.71Zm-51.24.86-4.47,2.81-1.12-1.51,4.47-2.82,1.12,1.52Zm-55.94-3-1.57,3.25-1.79-.87,1.79-3,1.57.65Zm49.45-2.81-3.58,1.51v-1.73L129,491l.67,1.73Zm15.62,9.54H140.6v-2.16h4.69v2.16ZM16.36,412.89v4.77H18.6v-5.84H17.38v-2.18H15.15v3.25Zm3.72,17.91a8.6,8.6,0,0,0-1.35-2.91A8.82,8.82,0,0,1,17.39,425q-.45,1.74-3.58,6.28t-4.47,4.54a23,23,0,0,1-3.58-.43c-.9-.29-1.35-.22-1.35.22q8.06,0,8.06,2.81a11.43,11.43,0,0,1-.34,2.38,11.9,11.9,0,0,0-.33,2.38,6.13,6.13,0,0,0,2,4.54c0-1.87,1-2.81,2.91-2.81A4.63,4.63,0,0,1,14,440.33q0-1.95,3.58-10.61a3.49,3.49,0,0,1,2.46,1.08Zm-8-20.93-1.79-.65-1.57,3,1.79.86,1.57-3.24Zm-.41-26.2v-2.6c-.15.29-.9.44-2.24.44-.75,0-1.64-.59-2.68-1.74S5,378,4.54,378A9.19,9.19,0,0,1,7.22,385a7,7,0,0,0,2.24-.65,7.06,7.06,0,0,1,2.24-.65Zm269.06,207,.56,1.4-.7-1,.14-.43Zm-51.69-70.11L226,516.31c1.27-.84,2-1.3,2.19-1.39,2.18-1.09,4.08-1.21,5.68-.38.09.61-1,2.08-3.25,4.41Z"/></g><g id="Layer_3" data-name="Layer 3"><polygon class="cls-1" points="393.23 130.41 391.89 131.5 388.76 128.47 390.1 127.17 393.23 130.41 393.23 130.41"/><polygon class="cls-1" points="16.43 283.53 8.14 282.45 8.14 280.28 16.43 281.58 16.43 283.53 16.43 283.53"/><polygon class="cls-1" points="20.88 154.19 16.18 154.19 16.18 152.03 20.88 152.03 20.88 154.19 20.88 154.19"/><polygon class="cls-1" points="10.87 246.01 6.39 246.01 6.39 243.84 10.52 243.84 11.82 241.14 13.61 241.78 12.04 245.03 10.87 244.6 10.87 246.01 10.87 246.01"/><polygon class="cls-1" points="16.45 213.32 14.89 209.64 13.32 210.29 14.35 212.63 13.84 212.36 13.16 214.09 16.52 215.82 17.19 214.09 15.71 213.32 16.45 213.32 16.45 213.32"/><polygon class="cls-1" points="13.99 207.91 12.43 211.16 10.64 210.51 12.21 207.27 13.99 207.91 13.99 207.91"/><polygon class="cls-1" points="13.99 219.6 10.86 216.79 9.52 217.87 12.65 220.9 13.99 219.6 13.99 219.6"/><polygon class="cls-1" points="20.81 167.54 17.46 167.54 17.46 165.6 20.81 165.6 20.81 167.54 20.81 167.54"/><polygon class="cls-1" points="11.64 190.26 10.3 196.97 8.06 196.97 9.4 190.26 11.64 190.26 11.64 190.26"/><polygon class="cls-1" points="11.64 201.73 11.64 198.7 9.4 198.7 9.4 201.73 11.64 201.73 11.64 201.73"/><polygon class="cls-1" points="17.41 233.17 16.74 231.43 13.83 232.95 13.83 233.43 7.12 234.65 7.12 236.81 14.28 235.51 14.28 234.49 17.41 233.17 17.41 233.17"/><path class="cls-1" d="M10.25,215.39a4.62,4.62,0,0,0,.9-3c-.15-1.3-.52-2-1.12-2s-2.09,1.09-4.47,3.24a6.41,6.41,0,0,1,2.34.87,6.38,6.38,0,0,0,2.35.87Z"/><path class="cls-1" d="M413.66,338.48a4,4,0,0,0-2.46-1.09,30.41,30.41,0,0,0,1-3.57c.52-2.09.93-3.14,1.23-3.14a17.83,17.83,0,0,1,.67,4.77,10.94,10.94,0,0,1-2.47,7.14,5.72,5.72,0,0,1,2-4.11Z"/><path class="cls-1" d="M413.87,233h-4.7l1.57-3.25c2.08,1.88,3.13,3,3.13,3.25Z"/><path class="cls-1" d="M414.54,241c-1.05,1.16-2.76,1.73-5.15,1.73v-3l-.78-.33,1.57-4.11h2l-1.57,5h0a4.4,4.4,0,0,0,1.47,1.16,1.93,1.93,0,0,0,2.46-.44Z"/><path class="cls-1" d="M412.31,315a3.52,3.52,0,0,0-.35-.59,2.14,2.14,0,0,0-1.56-.61l.56-.62c-.41-.48-.92-1-1.52-1.65,1.95,0,2.92-.36,2.92-1.08v1.17l.94-1.07q2.25,0,4.26,3.69l2.46-2.6c.9.86,1.34,2.52,1.34,5a4.87,4.87,0,0,0-1.57-2.6c-3.43,1.15-6.11,1.95-8.05,2.38a1.52,1.52,0,0,0,.57-1.4Z"/><polygon class="cls-1" points="413.02 272.16 413.02 270 409.66 270 409.66 272.16 413.02 272.16 413.02 272.16"/><path class="cls-1" d="M422.87,277.15v-5.63a7.8,7.8,0,0,1-3.36-1.3q0,2.82-2.68,8a11.75,11.75,0,0,0,3-.54,11.82,11.82,0,0,1,3-.54Z"/><polygon class="cls-1" points="419.07 306.58 419.07 304.63 414.6 304.63 414.6 306.58 419.07 306.58 419.07 306.58"/><polygon class="cls-1" points="417.97 264.61 417.08 266.34 413.94 264.82 414.61 263.09 417.97 264.61 417.97 264.61"/><polygon class="cls-1" points="414.61 265.25 412.82 264.61 411.03 267.63 412.82 268.5 414.61 265.25 414.61 265.25"/><polygon class="cls-1" points="422.79 350.66 422.12 352.39 417.87 350.88 417.87 349.15 422.79 350.66 422.79 350.66"/><path class="cls-1" d="M422.34,290.29a6,6,0,0,0-4.7-1.73c1.65-1.29,2.84-1.95,3.58-1.95a9.56,9.56,0,0,1,1.12,3.68Z"/><polygon class="cls-1" points="416.52 290.29 407.8 294.4 407.8 292.45 415.86 288.56 416.52 290.29 416.52 290.29"/><path class="cls-1" d="M412.86,261.67c-1.19,1.3-3.06,1.95-5.59,1.95-.3-.14-.45-.29-.45-.43q0,.87,2.9-4.55l3.14,3Z"/><polygon class="cls-1" points="415.55 280.72 414.88 282.45 410.62 280.94 410.62 279.2 415.55 280.72 415.55 280.72"/><path class="cls-1" d="M68.81,71.14H60.19l-.57.39V80c0,.76,0,1.52-.06,2.27H60v5.85H58.85a43.22,43.22,0,0,1-3.51,10.63L54,101.1l-1.83,3.13-.2,1.44a20.93,20.93,0,0,0,3.26-4q3.14-4.55,3.58-6.27a8.81,8.81,0,0,0,1.34,2.92,8.62,8.62,0,0,1,1.35,2.92A3.49,3.49,0,0,0,59,100.21q-3.57,8.66-3.57,10.6a4.62,4.62,0,0,0,2.68,4.54q-2.91,0-2.91,2.82a6.15,6.15,0,0,1-2-4.55,11.73,11.73,0,0,1,.33-2.37,11.51,11.51,0,0,0,.34-2.39c0-1-.7-1.66-2.08-2.13l-.2,1.4-7.84,2.17-.57,3.91c-1,.8-2,1.57-3,2.3,1.22-.51,2.68-1.15,4.37-1.89q0,3.67-3.58,3.67c-.89,0-1.34.22-1.34.65a1.77,1.77,0,0,0,.67,1.09l-2.45-2a47.12,47.12,0,0,1-24.63,6.9H4V152h9.27v2.16H4v22.63l2.25.69-.75-2.69H7.73l1.35,5.62h-2l-.27-.94-.09.16-2.71-1v3.28l.09.1,2.17.67L5.77,184l1.07,1.25-3.76,4.38-.4,4,.81.94L4,198.11l1.76,3.51L0,207l.47.94c1.07-.6,2.06-1.13,3-1.58a2.94,2.94,0,0,1-1.12,2.81l2,1.73q2-1.08,2-2.16A7.11,7.11,0,0,0,10,210.29a5.94,5.94,0,0,0-3.14,1.19C5.64,212.28,5,213.11,5,214q0,2.82,6,8.66-.88,0-2.79.21a26.22,26.22,0,0,1-2.8.22c-1,0-1.49-.43-1.34-1.3.44-1.29.52-2.09.22-2.38a2.09,2.09,0,0,1-.75.46L4,226.65v28.16H4l.84.24a13.58,13.58,0,0,0,3.14.65L4.84,259,4,257.87v15.92l1.51-.55L7.08,278H5.29L4,274.62V322l3.21,3.32L.79,332,4,335.27V354.5a162.13,162.13,0,0,0,18.39,9.65v-1.26l-2.63-3.32,4.1-5.16.66-2.09-2.13-2.68V336l-2.63-3.31L25,326.1l-2.63-3.31v-7.31l-2.63-3.31L25,305.54l-2.62-3.31-1.84-3.31,3.67-6.62L22.39,289v-8.58l-2.63-3.31,2.83-3.56.16-.3.06,0,2.2-2.78-2.62-3.31V265.9l-1.88-1.54c.52-.2,1.14-.45,1.88-.76V263l-.3-3.18.1-2.81-1.12,1.09-1.34-1.3,2.56-2.47.22-6.25-1.09-1.53-1-2-1.39-2.74h-3v-2.16h3.36v.46L24.1,235l-1.82-3.57L21.65,230l-1.1-2,1.21-2.18,1.84-5.55L22.39,218v-.18L21,215.38,20.83,214l.84-1.5c-.47-.62-1-1.3-1.59-2l-2.68,2.38a14.87,14.87,0,0,0-.67-3.46,14.74,14.74,0,0,1-.68-3.68c2.12,1.46,3.81,2.6,5.1,3.42v-3.84h1.64l-.4-.72v-9.75a15.61,15.61,0,0,0-2.31-.15h-4v-6.92a32.53,32.53,0,0,1,6.34,3V188h0c-1.12-.87-1.68-1.59-1.68-2.17a7,7,0,0,0,1.68.9v-2.21H19.64v-2.16h2.75V181c-.59-.21-1.23-.45-1.91-.73a11.66,11.66,0,0,0,1.91-.15v-3.21l-.24-.22.24-.23V142.07a66,66,0,0,0,21.14-6.7l-.45-1.73a6.9,6.9,0,0,1,2.11.84c.53-.29,1.05-.59,1.57-.9v-.79h1.31A65.31,65.31,0,0,0,59,124.3c1.3-1.26,2.54-2.56,3.72-3.92l1.05-1.53.2-3.84,7.12-3.4.21-3.83L72,106.3c.27-.57.53-1.13.78-1.7l-.85-.41,1.56-3,.62.22a60.69,60.69,0,0,0,3.24-12.46H146.1l3.43-1.67,3.17,1.57V85.1h2.24v4.82l1.44.7L159.8,89l2.87-2a4.13,4.13,0,0,1-.75-.82h-.8v-2h3.36v2H162.4a7,7,0,0,0,2.15.26,4.66,4.66,0,0,0,3.36-1.08,8.07,8.07,0,0,0-1.11,3.24l-1.39-.41L170,91.57l3.46-2.43,8.53.4,3.19-2.72,7,4.64,1.34-1.13v-.75h.87l1-.83,11.21.17h17.75l.43-.22.08.22H249V87.35h-1.22V84.1H250v2.18h1.21v2.64h11.35l13.82,2.25,1,1,1.91-1.78.94-.75,3.32-1.71,6.74,3.21,3.33-1.71,8.67-.28,1.67,0,2.41-1.34h.12a7.13,7.13,0,0,1-.77-.29,3.94,3.94,0,0,1-2-2.38c0,.87,1,1.3,3.13,1.3a4.68,4.68,0,0,0,3.36-1.08,10.06,10.06,0,0,0-1.08,2.81l.24.13,3.74,1.39,3.25-2.36L322.84,92l3.25-2.35,2.06,1.13,3.42-1.88h20.22a60.75,60.75,0,0,0,5.52,17.75l4.82,8.18q.66,1,1.38,1.92l2.76,2.86,4.34.31,1.44,8.3,4.34.31,4.58,3.38c.33-.85.74-1.89,1.24-3.13a20.24,20.24,0,0,1-4.92-1.52q4.24,0,4.25-2.16,0-1.52.67,5.19c.1,1,.15,1.89.17,2.67l1.55,1.14.31.18,12.44,5.4,7.77,1.86,2.28,2.55-2.26,6.37.62.7,4.79-2.32.67,1.73-4.21,2,.4.46v18.5l.59-.65c1.5,0,2.91,1.23,4.25,3.68L414,172q1.35,1.31,1.35,5a4.81,4.81,0,0,0-1.57-2.59c-2.89,1-5.24,1.68-7.08,2.14v15.79q.43-1.29.72-1.29a17.37,17.37,0,0,1,.67,4.76,11.1,11.1,0,0,1-1.39,5.55v35.24l2.58.23a17.14,17.14,0,0,0-2.58.22v9.93l2.48,3.31-4.94,6.62,0,.07h4.52v2.16h-2.9l.8,1.08v5.51l2,3.31-4,6.62,2,3.32v21.64a16,16,0,0,0,2-3.94,8.53,8.53,0,0,0,1.35,2.92,8.82,8.82,0,0,1,1.34,2.93,3.47,3.47,0,0,0-2.46-1.08q-1.39,3.38-2.26,5.74v8.46a5.11,5.11,0,0,0,1.37.94,4,4,0,0,0-1.37.21v9l1.69,2L404.54,335l-.58.69.82,1,1.75,3.21,0,.57h2v3.1h1.74l-.55,2.68.21.22-.33.34-1.79,8.66h-2l.93.95v.05l2.8,3.31-3.91,4.64a158.83,158.83,0,0,0,19.51-10.28V325.37l-.33-.24.33-.43V307.88H422v-2.17h3.16v-4.43L421.77,298l6.73-6.62L425.14,288V283l-1.9-3.31,3.79-6.62-1.89-3.31v-12a3.33,3.33,0,0,1-.53-.11c-1.05-.15-1.57-.44-1.57-.87.15.15.85-.1,2.1-.74v-4.64a34,34,0,0,0-3.22-3.71c-.59.58-.89,1.73-.89,3.46a10.74,10.74,0,0,0-2-2.81q3.38-2.18,6.13-3.59V233.09h-3.06v-2.16h3.06v-21.3H422v-2.16h3.17v-6.95l-1.9-3.32,2.29-4-2.22.89v-1.73l3.13-1.52.17.46.42-.72-1.89-3.31V175.05l-1.4-.58,1.4-2.89v-8.12l-2.58-3.31,5.15-6.62-2.57-3.31v-6l-2.69-3.31,5.37-6.63-2.68-3.3v-3.24a2,2,0,0,1-2.44.4,5.47,5.47,0,0,1-2.59-3.22h5v2.82q-1.58,1.7-5.12,1.7v-4.52h-4.08c-1.48,0-2.93-.07-4.37-.2l.42.19-.89,1.73L408,125.12l.32-.82c-1-.16-1.94-.34-2.89-.56l-.87-.28a10.15,10.15,0,0,1-3.23.46c-.3-.14-.45-.28-.45-.43,0,.32.29,0,.87-.92l-3.94-1.26a47.38,47.38,0,0,1-5.92-3l-1.16-.77-1.45.91L388.13,117l.84-.53-.86-.57a46,46,0,0,1-13-14.59,32.34,32.34,0,0,0-5.22,12.33c-2-1.51-1.92-3.64.27-6.36a7.68,7.68,0,0,0,1.09-3.3,7.41,7.41,0,0,1,1.08-3.29l1.6-1.64a44.12,44.12,0,0,1-2.21-5.41l-2.34,1.55,2-2.53a42.93,42.93,0,0,1-1.82-10.23l-.06-5.78V71.14h-64.3l-3.42,3-6.85-6-3.42,3h-6.46l-3.43,1.32-1.87-.72v.92h-2.24V70.87l-2.73-1.06-3.43,1.33h-5.82l-3.42,3-6.85-6-3.42,3h-12l-7.66,1.08v1.6a8.38,8.38,0,0,0-.73-1.5l-.22,0-7.08-1.76h-.37l1.48.76-.67,1.73-3.36-1.73.53-1.36-.14,0-1.6-1-.82.53,0,.18a4.66,4.66,0,0,1-.89,3,6.4,6.4,0,0,1-2.36-.87,12.13,12.13,0,0,0-1.54-.69l-1.31.42q.28,2.82,6,8.38c-.59,0-1.52.08-2.8.22s-2.2.21-2.79.21c-1,0-1.49-.43-1.34-1.3.45-1.29.52-2.09.22-2.37a2.33,2.33,0,0,1-2.29.47l1.46,2-1.79,1.08-2.91-4.33,1.57-1.08.87,1.21c.32-.14.71-.32,1.19-.57a7.68,7.68,0,0,1,2.57-1c-.58-.87-1.14-1.67-1.69-2.42l-.42.14-1.54,1.15-2.13.61-2.8-1.58L200,72.06l-1.21.9-1.67-1-4.46-.11-2.46.06-3.63,1.62-6.19-4.9-3.62,1.62-1.34.08-.55,0-3.28,2.47-5.86-3.42h-.43v-.25l-.83-.48-3.27,2.47h-7l-13.5.26-7.62.35-5.48.47-.64.24-6.85-2.65-3.42,1.33Z"/><polygon class="cls-1" points="23.39 206.41 24.23 207.91 23.39 209.41 23.39 206.41 23.39 206.41"/><path class="cls-1" d="M3.51,217.69l-.16-2.9c.54.75,1.1,1.56,1.69,2.43a4.58,4.58,0,0,0-1.53.47Z"/><polygon class="cls-1" points="425.14 246.97 425.14 247.1 425.06 247.03 425.14 246.97 425.14 246.97"/><polygon class="cls-1" points="405.79 355.4 403.48 353.08 407.17 349.26 405.79 355.4 405.79 355.4"/><polygon class="cls-1" points="408.2 344.68 407.2 343.67 408.43 343.67 408.2 344.68 408.2 344.68"/><path class="cls-1" d="M406.74,199.84v-1.7a6.27,6.27,0,0,1,.94.64,9.05,9.05,0,0,0-.94,1.06Z"/><polygon class="cls-1" points="390.04 135.07 388.48 130.31 386.69 130.96 388.26 135.07 390.04 135.07 390.04 135.07"/><polygon class="cls-1" points="424.28 168.18 416 168.18 416 166.01 424.28 166.01 424.28 168.18 424.28 168.18"/><polygon class="cls-1" points="407.04 132.47 403.69 132.47 403.69 130.3 407.04 130.3 407.04 132.47 407.04 132.47"/><path class="cls-1" d="M416.89,137.45a11.78,11.78,0,0,0-3,.55,12.18,12.18,0,0,1-3,.53c1.78-3.46,2.68-6.13,2.68-8a7.86,7.86,0,0,0,3.35,1.3v5.62Z"/><polygon class="cls-1" points="413.09 166.88 408.61 166.88 408.61 164.93 413.09 164.93 413.09 166.88 413.09 166.88"/><polygon class="cls-1" points="363.29 102.92 360.15 102.92 360.15 100.97 363.29 100.97 363.29 102.92 363.29 102.92"/><polygon class="cls-1" points="408.64 125.56 406.85 128.81 405.06 127.94 406.85 124.91 408.64 125.56 408.64 125.56"/><polygon class="cls-1" points="416.81 210.96 416.14 212.7 411.89 211.18 411.89 209.63 408.32 209.63 408.32 207.47 413.02 207.47 413.02 209.63 412.47 209.63 416.81 210.96 416.81 210.96"/><path class="cls-1" d="M416.36,150.59a6,6,0,0,0-4.69-1.73c1.64-1.29,2.83-1.94,3.58-1.94a9.6,9.6,0,0,1,1.11,3.67Z"/><polygon class="cls-1" points="421.06 160.33 418.83 160.33 418.83 156.87 421.06 156.87 421.06 160.33 421.06 160.33"/><polygon class="cls-1" points="424.87 181.1 420.62 186.73 418.83 185.43 423.08 179.8 424.87 181.1 424.87 181.1"/><polygon class="cls-1" points="396.59 136.69 390.55 136.69 390.55 134.53 396.59 134.53 396.59 136.69 396.59 136.69"/><polygon class="cls-1" points="409.57 141.02 408.9 142.75 404.64 141.24 404.64 139.5 409.57 141.02 409.57 141.02"/><polygon class="cls-1" points="295.46 80.76 290.98 80.76 290.98 78.59 295.46 78.59 295.46 80.76 295.46 80.76"/><polygon class="cls-1" points="275.55 78.38 267.26 78.38 267.26 76.21 275.55 76.21 275.55 78.38 275.55 78.38"/><path class="cls-1" d="M257.64,85.73c0-.43-1-1.66-2.9-3.67,1.93,0,2.9-.36,2.9-1.08v4.75Z"/><polygon class="cls-1" points="264.35 77.08 259.88 77.08 259.88 75.13 264.35 75.13 264.35 77.08 264.35 77.08"/><polygon class="cls-1" points="246.91 75.99 238.4 73.18 239.07 71.45 246.91 74.05 246.91 75.99 246.91 75.99"/><polygon class="cls-1" points="241.31 86.82 239.74 87.9 236.83 83.57 238.4 82.49 241.31 86.82 241.31 86.82"/><polygon class="cls-1" points="222.06 76.86 220.72 78.16 217.58 75.13 218.93 74.05 222.06 76.86 222.06 76.86"/><polygon class="cls-1" points="147.12 75.52 140.18 75.52 140.18 73.36 147.12 73.36 147.12 75.52 147.12 75.52"/><path class="cls-1" d="M138.17,78.16q0,.87-3.36,4.11a1.31,1.31,0,0,0,.9.22,4.41,4.41,0,0,0,2.23-.87A3.24,3.24,0,0,1,139.06,84a4.35,4.35,0,0,1-.89,2.38,17.9,17.9,0,0,0-6.71-1.73,7.66,7.66,0,0,0-2.69.43q2.23-2.37,9.4-6.92Z"/><polygon class="cls-1" points="266.07 88.07 263.83 88.07 262.49 80.93 264.73 80.93 266.07 88.07 266.07 88.07"/><path class="cls-1" d="M191.11,83.3a6,6,0,0,0-4.7-1.72c1.64-1.3,2.84-2,3.58-2a9.52,9.52,0,0,1,1.12,3.67Z"/><polygon class="cls-1" points="185.29 83.31 176.56 87.42 176.56 85.47 184.62 81.58 185.29 83.31 185.29 83.31"/><polygon class="cls-1" points="253.46 73.73 248.98 76.76 247.86 75.03 252.34 72.22 253.46 73.73 253.46 73.73"/><polygon class="cls-1" points="244.73 84.33 243.17 87.58 241.38 86.71 242.94 83.69 244.73 84.33 244.73 84.33"/><polygon class="cls-1" points="273.68 89.15 271.44 89.15 271.44 83.52 273.68 83.52 273.68 89.15 273.68 89.15"/><path class="cls-1" d="M156.12,77.19A6.53,6.53,0,0,1,151.64,75q-2.23,2.16-2.91,2.16L150.08,74c1.78,0,3.8,1.08,6,3.24Z"/><polygon class="cls-1" points="184.31 73.73 183.64 75.46 179.39 73.95 179.39 72.22 184.31 73.73 184.31 73.73"/><polygon class="cls-1" points="33.28 136.81 25 135.73 25 133.57 33.28 134.87 33.28 136.81 33.28 136.81"/><path class="cls-1" d="M119,81.32a8.11,8.11,0,0,0-1.12,3.25c-1.94-.58-3.06-.94-3.36-1.09a3.87,3.87,0,0,1-2-2.38c0,.87,1,1.3,3.13,1.3A4.68,4.68,0,0,0,119,81.32Z"/><polygon class="cls-1" points="104.25 76.78 99.77 76.78 99.77 74.61 104.25 74.61 104.25 76.78 104.25 76.78"/><polygon class="cls-1" points="84.33 74.4 76.05 74.4 76.05 72.23 84.33 72.23 84.33 74.4 84.33 74.4"/><path class="cls-1" d="M66.43,81.75c0-.43-1-1.66-2.91-3.67q2.91,0,2.91-1.08v4.75Z"/><polygon class="cls-1" points="45.2 129.98 42.96 129.98 42.96 126.73 45.2 126.73 45.2 129.98 45.2 129.98"/><polygon class="cls-1" points="41.39 127.17 39.82 130.41 38.04 129.55 39.6 126.52 41.39 127.17 41.39 127.17"/><polygon class="cls-1" points="23.94 131.28 22.15 131.28 20.58 127.17 22.37 126.52 23.94 131.28 23.94 131.28"/><polygon class="cls-1" points="73.14 73.1 68.67 73.1 68.67 71.15 73.14 71.15 73.14 73.1 73.14 73.1"/><polygon class="cls-1" points="74.86 84.09 72.62 84.09 71.28 76.95 73.52 76.95 74.86 84.09 74.86 84.09"/><path class="cls-1" d="M68.29,89.44a17.59,17.59,0,0,0-7.16,1.3c0-.29.81-1.08,2.46-2.38l2.24-1.73a2,2,0,0,0-1.8-1.3q2.91,0,4.26,4.11Z"/><polygon class="cls-1" points="82.47 85.17 80.23 85.17 80.23 79.54 82.47 79.54 82.47 85.17 82.47 85.17"/></g><g id="Layer_4" data-name="Layer 4"><path class="cls-2" d="M213.16,257.32s-2.2,3.48-11.29,2.23-11.3-4.47-11.3-4.47-.55,4.22-8,2.74c-6.14-1.23-12.84.93-16.07,5.91h-2.63v2h1.59a13.38,13.38,0,0,0-.51,1.55c-1.93,7.46,0,16.91,5.23,18.65a37.22,37.22,0,0,0,15.72,1.72l-2.63,2.67-2.72,1.35.19-.19a11.79,11.79,0,0,1-2.78-.59,11.5,11.5,0,0,0-2.77-.6,22.06,22.06,0,0,0,2,3.08l-.66.32-8-1.43-3.45-4-.18-.21-.27,0L159,287l5.07,2.49,2.5,2.9-1,.37-.11-.38-1.59.59.14.38-3.95,1.5c0-.72-.06-1.54-.15-2.47-.4-4.1-.6-5.68-.6-4.76,0,1.32-1.25,2-3.76,2a17.91,17.91,0,0,0,4.36,1.38c-.93,2.38-1.52,4-1.79,4.76a4.33,4.33,0,0,1-2.37-1c0,.53.49,1.19,1.48,2a4.41,4.41,0,0,0,2.48,1.19,7.68,7.68,0,0,0,.35-2.8l4.31-.81.89,2.42h1.58L166,294l1.62-.31,9.11,1.95,7.83-3.32L196.35,284c4.37-2.06,4.94-2.17,6.07-2.78,1.38-.74-2.75-7.95,1.93-11.43,3.61-2.69,8.21-8.34,8.81-12.43Zm163.43,2.29h-5.27A7.41,7.41,0,0,0,373,256l3.6,3.59ZM114.74,375.67a3.57,3.57,0,0,0-2.18-1,28.05,28.05,0,0,0,.89-3.27c.47-1.91.83-2.87,1.09-2.87a16.42,16.42,0,0,1,.6,4.36,10.29,10.29,0,0,1-2.18,6.54,5.27,5.27,0,0,1,1.78-3.76Zm.19-96.65h-4.17l1.39-3c1.85,1.72,2.78,2.71,2.78,3ZM129,277.21h-1.65v1.93h-5.15v-2h5l-1.38-5.1h2l1.18,5.15Zm85.87,52h-4v-2h4v2ZM197.22,327h-7.33v-2h7.33v2Zm-23.53,8.21h-1.07v-3h2v2h1.07v5.35h-2v-4.38Zm-40.91,18.63h-2v-.7l-.45.83L129,353.4l1.39-3,1.24.46h1.19v3Zm57.9-55a9.83,9.83,0,0,0-2.68.5,10,10,0,0,1-2.67.49c1.58-3.17,2.38-5.62,2.38-7.33a6.78,6.78,0,0,0,3,1.19v5.15Zm-1.47,53.25-1.59-.59-1.38,2.76,1.58.81,1.39-3Zm-17.36-27.28v-1.79l-6.94-2.38-.59,1.59,7.53,2.58Zm-61.74,55.58H108.2v-3h2v2.84h1.55l-2.18,10.9h-1.79l2.35-10.77Zm47.71-86.91h-3v-2h3v2Zm-10.74,56.3h-4v-2h3.65l1.16-2.48,1.58.6-1.39,3-1-.39v1.28Zm51.1-53.2c0,2.25-1.05,3.37-3.17,3.37-.79,0-1.18.2-1.18.6a1.61,1.61,0,0,0,.59,1l-2.58-2.18q2-.79,6.34-2.78Zm.6,14.07h-2v-3h2v3Zm3.17,5.55h-1.78v-3H202v3Zm-6.54-8.12-1.39,3-1.58-.79,1.39-2.78,1.58.6ZM201,321.78h-2v-3h2v3ZM98.12,345.84l-1.59-.59L95.15,348l1.58.8,1.39-3Zm1,9.53-2.57-4-1.39,1,2.58,4,1.38-1Zm39.14-73.06-5.55-.6v-1.78l5.55.6v1.78Zm14.62,55.75-.59-1.59-2.58,1.39v.44l-5.94,1.11v2l6.35-1.19v-.93l2.76-1.21Zm-51.14,33.72v-1.59l-3.17,1.39.59,1.59,2.58-1.39Zm80.36,11.48h-2v-3h2v3ZM130,359.48l-3.76,5.15-1.59-1.19,3.77-5.16,1.58,1.2Zm-24.51,6.26-6.54-1.38c0,.52.46,1,1.39,1.38a2.38,2.38,0,0,0,2.37-.39,2.73,2.73,0,0,0,1.59,1,1.69,1.69,0,0,0,1.19-.59ZM97.92,364l-1.39-3.37-1.59.79L96.33,364Zm-5.75-1.2V358.6H90.38v4.16Zm90.84-22c-.8-2.52-2-3.77-3.77-3.77a1.8,1.8,0,0,1,1.59,1.19l-2,1.59c-1.45,1.19-2.17,1.91-2.17,2.18A14.92,14.92,0,0,1,183,340.8Zm-13.08-8.33-1.59-.59L167,334.66l1.59.78,1.39-3ZM154.66,346v-2h-3v2Zm-63.42,1.78v-4.35A7.2,7.2,0,0,1,86.09,341a24,24,0,0,0,5.15,6.73ZM161,284.68l-2.77,2.78-1.19-1.19,2.77-2.77,1.19,1.18ZM296.92,350l-1.19,1L293,348.2l1.19-1.18,2.77,3Zm30.83,40.82h-2v-.71l-.45.84-1.38-.6,1.38-3,1.25.46h1.18v3Zm25.4-36.61v-4.71h-2V353q-1.71-1.12-4.52-3.13a13.83,13.83,0,0,0,.6,3.37,13.44,13.44,0,0,1,.59,3.17l2.38-2.19a22.62,22.62,0,0,1,3.57,5.55v-5.35a1.82,1.82,0,0,1-.64-.23ZM339.5,395.65a11.45,11.45,0,0,1-2.78-.6,11.24,11.24,0,0,0-2.77-.59,28.5,28.5,0,0,0,2.77,4.16l2.78-3Zm2.56-8.89h-4v-2h3.65l1.15-2.48,1.59.59-1.39,3-1-.38v1.28Zm-48-32.5-1.38-4.37-1.59.6,1.39,3.77Zm30.33,30.32h-7.33v-2h7.33v2Zm-37.26-36.07a17.59,17.59,0,0,1-4.36-1.39c2.51,0,3.77-.66,3.77-2,0-.93.19.66.59,4.75.26,2.78.2,4.63-.2,5.56a4.39,4.39,0,0,1-2.47-1.19c-1-.8-1.49-1.45-1.49-2a4.3,4.3,0,0,0,2.38,1c.26-.79.86-2.37,1.78-4.75ZM347,356.83h-.66l1.31.69-.59,1.59-3-1.59.59-1.58.46.25-.91-2.14,1.38-.6,1.39,3.38Zm-2.18-5-1.58-.6-1.39,3,1.58.6,1.39-3Zm0,10.7L342.05,360l-1.19,1,2.78,2.78,1.19-1.19Zm-2.58,2.78c-.53,0-1.36.07-2.48.19a22.15,22.15,0,0,1-2.47.21c-.93,0-1.33-.4-1.19-1.19.39-1.19.46-1.92.19-2.19a2,2,0,0,1-2,.44l1.3,1.85-1.59,1-2.57-4,1.39-1,.77,1.1c.27-.12.63-.3,1.05-.52a6.49,6.49,0,0,1,2.28-.89,43.12,43.12,0,0,0-5.16-6.74q-.78.8-.78,3.18a10.09,10.09,0,0,0-1.79-2.58,60.85,60.85,0,0,1,6.34-3.77,2.71,2.71,0,0,1-1,2.58l1.78,1.58c1.19-.66,1.79-1.32,1.79-2a6.16,6.16,0,0,0,3.17,1.39,5.17,5.17,0,0,0-2.77,1.09,3,3,0,0,0-1.59,2.28q0,2.58,5.35,7.93Zm-33.09-13.48v-2h-3v2Zm8.72,4.57v-5.16a6.69,6.69,0,0,1-3-1.18c0,1.72-.8,4.16-2.38,7.33a10.1,10.1,0,0,0,2.67-.5,10.14,10.14,0,0,1,2.68-.49Zm24.86-10.24v-2.77h-2v2.77Zm-46,62.53v-1.59l-3.17,1.39.6,1.59,2.57-1.39Zm20.7-40.26a5.25,5.25,0,0,0-4.16-1.58c1.46-1.19,2.51-1.79,3.17-1.79a9.1,9.1,0,0,1,1,3.37Zm4.16,8.92h-2v-3.17h2v3.17Zm6.74,2.58-1.38,4.36-1.59-.59,1.39-3.77Zm-41.16,19.74v-4.17h-1.79v4.17Zm54.37-41a5.5,5.5,0,0,1-2.09-.79,5.42,5.42,0,0,0-2.08-.79c2.12-2,3.44-3,4-3s.85.6,1,1.79a4.31,4.31,0,0,1-.79,2.77Zm-41.63-3v-2h-5.34v2Zm11.5,4-.59,1.59L307,359.9v-1.58l4.36,1.38Zm-42.55,51.73h-4.17v-2h4.17v2Zm-41,13.31h-4.16l1.38-3c1.85,1.71,2.78,2.7,2.78,3Zm.59,7.34q-1.38,1.57-4.56,1.58v-2.72l-.69-.31,1.39-3.77h1.78l-1.38,4.55h0a3.83,3.83,0,0,0,1.3,1.06,1.67,1.67,0,0,0,2.18-.39Zm-16.05,4.36v-2h-3v2Zm46-1H256.6l-.24-.86-.07.15-3.57-1.39v-1.59l3.15,1-.66-2.47h2l1.19,5.15Zm10.39-11.81h-3v-1.78h3v1.78ZM251.13,428l-5.54-.6v-1.78l5.54.6V428Zm-62.83,5.55h-2.77v-1.79h2.77v1.79Zm85.63-3.17-2.78,2.77L270,432l2.78-2.78,1.19,1.19ZM78.83,236.59c0-.69-1.49-2.63-4.45-5.82,3,0,4.45-.57,4.45-1.71v7.53ZM98.19,271v-7.18H94.77V271Zm-5.82-2.73-1.78,3.81A3.73,3.73,0,0,1,93,270.88c.17,1.28-.59,3-2.25,5.17a44.25,44.25,0,0,1,22.7,5.09h0l.28.15,19.14,10.32.7-1.5,1.58.6-.79,1.7.58.31,1-.43.51,1.25,7,3.78c-.44-1.28-.82-2.63-1.18-4L138.65,292v-1.58l3.14,1c-.28-1.15-.54-2.27-.77-3.31l-1.18-.46v-1.59l.79.25-1-4.38,2.6-1.69-.36-1c-1.14-3.22-2.31-6.31-3.45-9.42L118.61,261c-1.24-.55-2.4-1.11-3.51-1.67q-3.94-1-7.67-2.15v.49H99.11v-2h4c-10.62-3.95-19.37-9.65-24.82-19,0,0,11.5,10.33,25.14,14.75-7.78-7.22-9.4-14.67-13.51-21.05l1.8,9.9H88.29L86.24,229H89a24.4,24.4,0,0,0-6.32-6.08h-.39v-.26a34.85,34.85,0,0,0-4.55-2.44,15.49,15.49,0,0,0-7.14-1.3l-5,3.5-1.19-1.9a18.23,18.23,0,0,0-8.76,9.09c-2.58,5.79-2.27,10.36.24,15.21a12.17,12.17,0,0,0,1.83-1.53,7.16,7.16,0,0,1-.81,3.31,45.33,45.33,0,0,0,2.82,4,30.4,30.4,0,0,0-9.74,2l-.48.25,0,0c-3.52,1.64-6.11,4.35-8.1,8.82a18.74,18.74,0,0,0-1.62,7.73h.94V273h-.53c.08.38.18.75.29,1.12l2.23-2.23a15.85,15.85,0,0,1,1.14-9.13c2.08-4.69,4.89-7,8.63-8.22a17.31,17.31,0,0,0-2.86,4.56c-2.38,5.36-1.62,11.8,2.12,16a23.81,23.81,0,0,0,3.13.29c1.37,0,3.64-2.4,6.84-7.19s5-8.1,5.48-9.93q0,1,2,4.63c1.37,2.39,2.05,3.94,2.05,4.62a5.22,5.22,0,0,0-3.76-1.71,126.3,126.3,0,0,0-5.12,14.49,24.16,24.16,0,0,0,9.85-.36c4-.9,7.64-2.14,11.53-3l1.54-2a13.93,13.93,0,0,1,3.56.26,2.87,2.87,0,0,1,.73-2l-2.35-1.17,2.39-4.79,2.74,1ZM81.66,248.75a26.07,26.07,0,0,0-11,2.05c0-.45,1.26-1.71,3.77-3.76l3.42-2.74a3.08,3.08,0,0,0-2.74-2.05q4.45,0,6.5,6.5Zm288.86,15.88a13.21,13.21,0,0,0-1.71,5.14q-4.44-1.36-5.13-1.71a6.75,6.75,0,0,1-2.32-2.13h-1.22v-3.08h5.14v3.08h-3.19a10.5,10.5,0,0,0,3.3.42,7,7,0,0,0,5.13-1.72Zm-4.78-27.7H363l-2.4-6.51,2.74-1,2.39,7.53Zm-15.05,35.94V264.3h-3.43v8.57Zm-40.36,11.64-4.45-6.85-2.74,1.72,4.45,6.84,2.74-1.71ZM160.49,377h.08v.91h2V377h3.78L164,380.5h0v.06l-1.12,1.65a6.71,6.71,0,0,0-2.14-.93l.75,3c-1.43,2.1-2.93,4.27-4.52,6.56-2,2.84-4.13,5.87-6.44,9s-4.75,6.45-7.39,9.93c-.54.71-.13,1.38.94,1.49l5.95.6c-1.79,2.65-3.65,5.43-5.63,8.31s-4.07,5.82-6.27,8.85a3.65,3.65,0,0,1-3.4,1.19c-5.89-1.13-11.78-2.42-17.67-3.74-1.21-.27-1.46-1.07-.63-1.84,5.49-5,10.45-9.81,14.86-14.47s8.49-9.27,12.07-13.46q4.53-5.31,8.32-10.06c2.57-3.19,4.95-6.2,7.14-9a2.43,2.43,0,0,1,1.73-.65Zm23.36,6.36q-1-2.31-1.93-4.69l-2.71-1.58c-2.32,4.76-4.62,9.48-6.94,14.15l-4.78,9.51q-2.53,5.06-5.47,10.7a2.88,2.88,0,0,1-2.66,1.22l-6-.49c-1.69,2.71-3.45,5.53-5.32,8.47s-3.86,5.93-5.94,9.08c-.62.94-.14,1.85,1.07,2.05q8.81,1.44,17.65,2.62a3,3,0,0,0,3-1.58c2.86-6.83,5.43-13.09,7.76-18.82s4.46-10.95,6.33-15.68c1-2.47,2-5,2.92-7.45s2-5,2.95-7.51Zm81.9-6.36h5.85a2.53,2.53,0,0,1,1.75.65L276,381h-4.27v2h5.15v-.87q1.72,2.17,3.59,4.49,3.81,4.72,8.37,10l1.34,1.55-.25.12,1.39,2.58h1.21c2.57,2.93,5.33,6,8.36,9.2,1.33,1.42,2.73,2.85,4.18,4.29h-1.88v3h1.91l-2.35,10.76h1.79l2.18-10.9h-1.55v-2.72c2.6,2.6,5.37,5.25,8.29,8V424l2.55.94c.49.68.11,1.35-1,1.58-5.89,1.26-11.79,2.51-17.66,3.6a3.7,3.7,0,0,1-3.39-1.22q-3.33-4.53-6.28-8.83t-5.61-8.31l6-.58c1.06-.11,1.48-.76.94-1.47-2.64-3.48-5.12-6.78-7.4-9.91s-4.43-6.18-6.41-9c-3.53-5.05-6.64-9.62-9.43-13.75Zm-12.87.09q1.86,3.84,3.73,7.62l-.75,1.06,2,1.54,1.92,3.88q2.2,4.44,4.75,9.5c1.69,3.34,3.54,6.88,5.49,10.64a2.89,2.89,0,0,0,2.65,1.21l6-.48c1.66,2.69,3.42,5.51,5.31,8.44s3.82,5.93,5.93,9.08c.63.94.16,1.84-1.07,2-5.47.87-10.95,1.71-16.4,2.43-.12-1-.18-1.26-.18-.76a1.62,1.62,0,0,1-.2.81l-.87.11a3,3,0,0,1-3-1.59q-4.32-10.15-7.78-18.73l-1-2.46h2.69v-2H258.6c-1.63-4-3.12-7.74-4.5-11.2-1-2.46-2-4.92-2.95-7.4s-2-5-2.91-7.49c.67-1.54,1.32-3.1,1.9-4.68l2.74-1.59Zm-5.73,8.52a41.6,41.6,0,0,1-5.59,8.55c.84,3.11,1.69,6.22,2.53,9.31s1.71,6.17,2.57,9.25c.23.81-.44,1.51-1.5,1.56-2,.09-4,.18-5.95.25l.65,3.24h.83l1.19,5.15h-1l.26,1.26c.68,3.38,1.42,6.93,2.2,10.68a2.54,2.54,0,0,0,2.64,1.86h0l.41-.88,1.59.59-.08.15,3.58-.3v-.14l.35.11c3.92-.33,7.85-.73,11.78-1.12A1.54,1.54,0,0,0,265.1,433c-2.7-6.9-5.13-13.19-7.32-18.94l-1-2.63h-3v-2H256l-4.18-11.13q-2.34-6.31-4.7-12.71Zm-20.29,19.22a34.91,34.91,0,0,1-9.63,1.07c0,5,.1,10,.14,14.94q0,3.39.07,6.8l6.34.58a24.87,24.87,0,0,0-6.31,1.11l.08,6.43a2.14,2.14,0,0,0,2.23,2.05c4.93-.06,9.86-.22,14.79-.42q2.25-1.41,4.14-2.35a2.74,2.74,0,0,1-.49,2.06,1.8,1.8,0,0,0,1.09-2c-.63-3.59-1.25-7-1.8-10.26h-2.43v-2h2.08l-1.39-8.24-6,.16a1.91,1.91,0,0,1-2.07-1.47q-.45-4.24-.87-8.49Zm-12,1.08c-.06,5-.14,10-.18,14.94,0,2.76-.06,5.52-.1,8.29q-.76.68-1.68,1.65l1.67-.57c0,1.86,0,3.71-.05,5.57a2.14,2.14,0,0,1-2.24,2.05c-5.45-.08-10.91-.21-16.35-.42a34.09,34.09,0,0,1,4.54-7.71,20.52,20.52,0,0,1,7.28-6.15c-1.11.13-2.5-.44-4.18-1.73q2.55-3.29,2.31-5.24a4.1,4.1,0,0,0-2.76,1.63c-1,1.06-1.45,2-1.36,2.71a13.93,13.93,0,0,0-3.56-.26l-3.76,4.86.19-1.13c.58-3.41,1.15-6.64,1.69-9.71,2,.06,4,.12,6,.16a2,2,0,0,0,2.07-1.51q.42-4.25.86-8.5a35.37,35.37,0,0,0,9.64,1.07Zm-20.32,31.44a8.53,8.53,0,0,0,.83-2.82,6.83,6.83,0,0,1,1-3l4.22-4.5c2-2.14,3-3.48,2.88-4-1.42-.76-3.1-.65-5,.35-.26.12-1.59,1-4,2.7l-1.59,9.17a1.84,1.84,0,0,0,1.78,2.15Zm-4-43.16a42.71,42.71,0,0,1-5.57-8.58q-2.38,6.42-4.72,12.77c-1.78,4.76-3.76,10-6,15.8s-4.63,12.05-7.31,19a1.54,1.54,0,0,0,1.44,2.14c5.87.62,11.78,1.14,17.66,1.57a2.51,2.51,0,0,0,2.63-1.87c.75-3.74,1.51-7.32,2.19-10.72s1.37-6.63,2-9.69c-2-.05-4-.12-6-.21-1.07-.05-1.74-.75-1.51-1.57.86-3.08,1.69-6.18,2.53-9.28s1.71-6.22,2.58-9.34Zm28.43-136.88s2.2,3.48,11.29,2.23,11.3-4.47,11.3-4.47.55,4.22,8,2.74,15.7,2,17.63,9.44,0,16.91-5.23,18.65a37.22,37.22,0,0,1-15.72,1.72l2.63,2.67,6.77,3.37,8-1.43,3.45-4,.18-.21.27,0,5.61-1L268,289.44l-2.5,2.9,8,3-9.05-1.71-9.12,1.95-7.82-3.32L235.75,284c-4.37-2.06-4.94-2.17-6.07-2.78-1.38-.74,2.75-7.95-1.93-11.43-3.61-2.69-8.21-8.34-8.81-12.43ZM162.7,244c-2.2,3.36-5,7.49-7,10a15.46,15.46,0,0,0-3.28,9.77h-.66v2h.68c.19,4.93,1.12,9.05-3,10.85-1-2.95-2.49-6.47-4-10.85h3.77v-2h-4.44c-.71-2.11-1.43-4.4-2.13-6.91-2.21-8-1-16.46,1.2-25,2.87,1,5.36,2.15,6,3l.77,1.13,1.24.38.47,1.21c-2-.22-3-.88-3-2a6.2,6.2,0,0,0,3.08,3.77q.68.33,5.13,1.7a5.37,5.37,0,0,1,.2-1.36l.1,0L162.7,244Zm125.55-12.21c-2.87,1-5.35,2.15-6,3l-.78,1.13-1.24.38-.47,1.22-2.15,1.67-3.36.49L269.39,244c2.21,3.36,5,7.49,7,10,7.29,9.22-.94,19.44,6.25,22.6,1.67-4.73,4.39-10.91,6.83-19.74,2.22-8,1-16.46-1.2-25Zm-72.2-60s21.07-2,49.72,17.4a45.17,45.17,0,0,1,9.84,9.26,40.48,40.48,0,0,0-9.43,7.2l-4.67-6-.62-7.26-6.95-5.75,5,7,.17,5.38-8.62-1.72-10.3-6-18.45,1.19,18,.48,9.82,7.19,6.95,1,3.59,5.51-5,3.83-1.7,5.68-4.89-6.51,1.91,6.43,1.89,5.23,5,4-10.06,6-11.5-1.68-4.43-5.32-2.58-12.23-7.55-6,5.63,6.53,1.35,8.28-8.24-2.29,8.15,4.55L235,233l13.19,1.19L257,233l1.91,3.83,6.23,1.44,1.81,4.36c3,9.23,9.22,15.09,7.77,22.29-2.38,11.78-.85,14.59,8.68,20.75-.46,2.11-2,9.09-3.44,11.82a26.79,26.79,0,0,1-4.31,5.86c-10,6.49-24-4.59-37.57,8.81,0,0,5-2,8.82-1a32.55,32.55,0,0,0-2.76,8.95c-.67,4.22.28,4.22.1,7.72l-1.59.58-.05-1.17-4.4,2.24c-.8.41-1.64.89-2.4,1.38l-.41-1.61H233a9.44,9.44,0,0,0-4,1.4,4.31,4.31,0,0,0-1.2,1,5,5,0,0,0-2.38-1l-.76-.11-.72.23a7.87,7.87,0,0,0-2.68,1.49,6.05,6.05,0,0,0-4.78-2.51h-.74a6,6,0,0,0-4.78,2.51,7.87,7.87,0,0,0-2.68-1.49l-.72-.23-.77.11a5,5,0,0,0-2.37,1,4.45,4.45,0,0,0-1.2-1,9.44,9.44,0,0,0-4-1.4h-2.44l-.41,1.61c-.76-.49-1.6-1-2.4-1.38l-4.41-2.24,0,1.17-1.59-.58c-.18-3.5.76-3.5.1-7.72a32.55,32.55,0,0,0-2.76-8.95c3.86-1,8.81,1,8.81,1-9.72-9.6-19.63-6.64-28.16-6.57a8.43,8.43,0,0,1-.65-.67c-.92-1-1.59-1.58-2-1.58a7.66,7.66,0,0,1,1.57,2.25,22.32,22.32,0,0,1-3.51-.35c.94-1.71,1.71-3.1,2.29-4.18l-.89.4-.29.12a23.8,23.8,0,0,1,.2-4.57l-3.76,2,2.78,2.8a5.46,5.46,0,0,1-.82.06,29,29,0,0,0-9.08-5.34,83.49,83.49,0,0,1-3-10.84c9.53-6.16,11.05-9,8.68-20.75-.63-3.15.2-6,1.59-9.09v1.83h3v-2H159c1.78-3.85,4.43-7.93,6.11-13l1.8-4.36,6.23-1.44L175.1,233l8.86,1.19L197.14,233l7-9.83,8.15-4.55L204,220.89l1.35-8.28,5.63-6.53-7.55,6-2.57,12.23-4.44,5.32-11.5,1.68-10.06-6,4.95-4,1.89-5.23,1.9-6.43-4.89,6.51-1.7-5.68-5-3.83,3.6-5.51,6.95-1,9.82-7.19,18-.48-18.45-1.19-10.3,6L173,199l.17-5.38,5-7-6.94,5.75-.62,7.26-4.67,6a40.33,40.33,0,0,0-9.44-7.2,45.33,45.33,0,0,1,9.85-9.26c28.65-19.39,49.72-17.4,49.72-17.4ZM159.4,304.74v-.92c-.58-.59-1.71-.91-3.41-1l.46.49a12.84,12.84,0,0,0,3,1.41Zm56.65,8c-2.64,2.67-5.92,4.1-7.09,3.47-1.37-.75-6.75-4.1-5.51-11.94s7-10.81,8.26-17.77a14.18,14.18,0,0,1,4.34-8.43,14.13,14.13,0,0,1,4.33,8.43c1.24,7,7,9.95,8.26,17.77s-4.13,11.19-5.5,11.94c-1.18.63-4.45-.8-7.09-3.47Zm0,20c.12-.08.24-.16.37-.23a3,3,0,0,1,2.55,1.8c.9,1.81,2.07,5.22,2.07,5.22a8.27,8.27,0,0,1,1.93-5,4.42,4.42,0,0,0,1,.79c.27.13,1.26.46,3,1a3.49,3.49,0,0,1,.15-.91,14.53,14.53,0,0,1,1.51,4.9s.14-6.34,1.93-7.33a6.37,6.37,0,0,1,2.41-1,42.44,42.44,0,0,1,1,5.41,11.43,11.43,0,0,1-.41,4.54s2.2-2.86,2.2-4.67.56-3.35,1.59-4,2.34-1.36,2.34-1.36.14,2.92.21,4.47-.07,3.49-.07,3.49,1.44-3.24,1.44-4.79v-3.17l2.21-.8s1.58,5.84.27,7.2l-2.27,2c3.18-.72,2.82.25,2.89,2.16.06,1.56.16,3.56-.49,3.62s-2.06-2.17-2.06-2.17-.2,4.22-1.79,4.84-3,1.68-3.16,1.25,1-4.36.55-6-1.1-2.05-1.72-2.18a11.32,11.32,0,0,0-1.65-.12s2.06.68,2.06,2.43-.69,5.77-2,6.09-2.2-.26-2.61-2-.56-4.1-1.45-5a8.22,8.22,0,0,0-1.45-1.18,13.64,13.64,0,0,1,1.31,5.6c-.14,2.61-1,4.1-2.13,3.79a16.08,16.08,0,0,1-3.17-1.74s.48-4.11,1-5a9.8,9.8,0,0,1,.83-1.18s-2.9.25-3.72.25-1.51-2.3-1.51-2.3l-.56,3.36h3.44s-.34,4.29-1.24,5.53a2.24,2.24,0,0,1-3.1.62c-.61-.56-1-5.6-1-5.6-1.64,8.69-3.92,8.69-5.57,0,0,0-.34,5-1,5.6a2.24,2.24,0,0,1-3.1-.62c-.9-1.24-1.24-5.53-1.24-5.53h3.44l-.55-3.36s-.68,2.3-1.51,2.3-3.72-.25-3.72-.25a9.8,9.8,0,0,1,.83,1.18c.55.87,1,5,1,5a16.08,16.08,0,0,1-3.17,1.74c-1.1.31-2-1.18-2.13-3.79a13.64,13.64,0,0,1,1.31-5.6,8.22,8.22,0,0,0-1.45,1.18c-.9.88-1,3.23-1.45,5s-1.3,2.3-2.61,2-2-4.36-2-6.09,2.06-2.43,2.06-2.43a11.32,11.32,0,0,0-1.65.12c-.62.13-1.3.5-1.72,2.18s.69,5.59.56,6-1.59-.62-3.17-1.25-1.79-4.84-1.79-4.84-1.45,2.24-2.07,2.17-.54-2.06-.48-3.62c.07-1.91-.28-2.88,2.89-2.16l-2.27-2a3.53,3.53,0,0,1-.52-2.38h1l-.59-3.22c.19-.94.37-1.6.37-1.6l2.21.8V335c0,1.55,1.44,4.79,1.44,4.79s-.14-1.93-.07-3.49.21-4.47.21-4.47.53.28,1.19.66v4.35h2v-2.76a6,6,0,0,1,.75,3.15c0,1.81,2.21,4.67,2.21,4.67a11.54,11.54,0,0,1-.42-4.54,43.56,43.56,0,0,1,1-5.41,6.37,6.37,0,0,1,2.41,1c1.79,1,1.93,7.33,1.93,7.33,1-6.58,3.71-7,3.71-7,3.72,1.18,3.86,6.15,3.86,6.15s1.17-3.41,2.07-5.22a3,3,0,0,1,2.55-1.8c.13.07.25.15.37.23Zm7.3,1.48a7.19,7.19,0,0,0,1.62.15,6.13,6.13,0,0,0,1.26-.12,2.56,2.56,0,0,0-1.34-.87,4.66,4.66,0,0,0-1.54.84Zm-7.3,29.29s-2.7-2.15-9.62-1.53-15.06-2.62-15.06-2.62,2.77,4,10.15,5.7,10.14,2.3,11.83,6.29a55.08,55.08,0,0,1,2.7,10.08,55.08,55.08,0,0,1,2.7-10.08c1.69-4,4.46-4.61,11.83-6.29s10.14-5.7,10.14-5.7-8.14,3.23-15.06,2.62-9.61,1.53-9.61,1.53Zm46.88-141.35a42.4,42.4,0,0,1,7.47-5.87c.39-2.86,2.21-9.2,10.44-13.36,0,0-5.42,4.27-5.68,10.71,1.42-.7,2.84-1.33,4.28-1.89a16.13,16.13,0,0,1,2.5-5.86l-1.27-.64,2.74-4.8,2.39,1-.23.51a23.36,23.36,0,0,1,4.13-2.66s-5.45,4.31-5.67,10.79c1.37-.43,2.75-.81,4.12-1.16.44-2.93,2.33-9.13,10.42-13.22,0,0-6.23,4.91-5.64,12.14,1.28-.26,2.55-.49,3.82-.7.94-3.22,3.43-7.9,10-11.21,0,0-5.31,4.2-5.65,10.53l4.57-.63c.75-3.2,3.06-8.44,10.19-12,0,0-5.83,4.6-5.68,11.43,1.37-.19,2.72-.39,4-.6.63-3.14,2.81-8.73,10.28-12.51,0,0-5.92,4.67-5.66,11.6,1.31-.3,2.57-.63,3.77-1,.63-3.14,2.81-8.71,10.28-12.49,0,0-5.33,4.21-5.66,10.57,5-2.72,8.31-7.1,8.92-14.81-4.52,3-13.58,5.35-29.95,7.41-32.26,4.07-43.48,18.43-43.21,28.76Zm-93.76,0a42.4,42.4,0,0,0-7.47-5.87c-.4-2.86-2.21-9.2-10.44-13.36,0,0,5.42,4.27,5.67,10.71q-2.12-1.05-4.27-1.89c-.65-3.16-2.86-8.67-10.27-12.42,0,0,5.46,4.31,5.68,10.79-1.38-.43-2.75-.81-4.12-1.16-.44-2.93-2.33-9.13-10.42-13.22,0,0,6.23,4.91,5.64,12.14-1.28-.26-2.55-.49-3.82-.7-.94-3.22-3.44-7.9-10-11.21,0,0,5.31,4.2,5.66,10.53l-4.57-.63c-.74-3.2-3.06-8.44-10.19-12,0,0,5.82,4.6,5.68,11.43q-2.07-.28-4-.6c-.59-3-2.56-8.09-9-11.83v-1.19h-3.43v3.21a19.33,19.33,0,0,0-2.5-2.29l.11-.23-.85-.32a23.07,23.07,0,0,0-3-1.77,12.15,12.15,0,0,1,1.18,1.1l-.1,0-1.79,3.58A20.38,20.38,0,0,1,96,186c4.51,3,13.57,5.35,29.94,7.41,32.26,4.07,43.48,18.43,43.22,28.76Zm-68.83-24.88a17.36,17.36,0,0,0,4.59,3.52,14,14,0,0,0-2.51-7.05l-1.73,3.7-.35-.17Zm6.67-.51a16.26,16.26,0,0,1,2.55,5.95c.56.18,1.15.36,1.74.52v-2h1.84a15.83,15.83,0,0,0-4.23-7.9v3.45ZM93.7,99.34a53.18,53.18,0,0,1,1,7.23l.83-.31.33,1a43.23,43.23,0,0,0-1.25-5.57c6.48,13.91,5.79,27.26,2.31,39.65a8.55,8.55,0,0,0,6.79-1.59c-2.41,3.69-5.32,4.78-7.78,4.86-.52,1.59-1.07,3.17-1.65,4.72a10.25,10.25,0,0,0,7.74-2.16c-2.84,4.31-6.34,5.52-9.12,5.65-.68,1.68-1.4,3.34-2.13,5a10.28,10.28,0,0,0,8.62-2c-3.27,5-7.39,5.8-10.3,5.64q-1.11,2.34-2.2,4.61a9.81,9.81,0,0,0,2.76.6,12.07,12.07,0,0,0,.08-1.3c.81.48,1.56.89,2.23,1.2a10.37,10.37,0,0,0,4.79-2.12,14.71,14.71,0,0,1-2.49,2.91,3.29,3.29,0,0,0,.6.06v3.29c4.93-10.59,14.31-26,8.18-49.44l-3.48-.47v-3.42l2.47.4A92.34,92.34,0,0,0,93.7,99.34ZM89,170a45.67,45.67,0,0,1-2.33,6,9.86,9.86,0,0,1-4.31-.39c.86-1.84,1.77-3.72,2.71-5.65A11.62,11.62,0,0,0,89,170Zm-1.14,7.83a10.66,10.66,0,0,1-7.19,1.58c-.91,2.11-1.72,4.15-2.37,6.11a10.25,10.25,0,0,0,9.16-1.85c-3.24,4.89-7.32,5.78-10.23,5.64a24.61,24.61,0,0,0-.69,6.4A10.21,10.21,0,0,0,86,192.11c-2.15,5.41-5.91,7.12-8.78,7.59a14.15,14.15,0,0,0,3.68,5.85,10.2,10.2,0,0,0,6.56-7c.2,4.68-1.54,7.61-3.48,9.41a32.82,32.82,0,0,0,6,3.08c1.79.72,3.62,1.41,5.46,2.07a3.23,3.23,0,0,0,.61-.48l-.29.6c14.17,5.07,29.48,8.72,40.79,12h.08v0c8.51,2.48,14.74,4.74,16.45,7.25a14.41,14.41,0,0,0,7.41.48c-8.11-12.21-30.39-14.25-47.86-19.56v2.43h-3.42v-3.53c-15.06-5.22-25.2-13.8-16.68-35.52l.07-.25c-.71.14-1.49.34-2.35.59a24.63,24.63,0,0,1-2.43.61Zm7-65C94.08,132.12,83,148.65,74.69,163a14.36,14.36,0,0,0,3.07.54L73,168.68l-.85-1.11c-7,12.85-10.26,23.88.51,33.59-16.41-20.67,24.23-51.77,23.82-87.37H95.24l-.37-1ZM338.4,99.34a53.2,53.2,0,0,0-.58,19.53l-1.08-.32-.94-.27a44.86,44.86,0,0,1,1.64-16.54,51.49,51.49,0,0,0-4.55,15.87,5.93,5.93,0,0,0-.94-.08c.22.44.49.93.79,1.44a62,62,0,0,0,2.39,22.42,8.55,8.55,0,0,1-6.79-1.59c2.41,3.69,5.33,4.78,7.78,4.86.31,1,.64,1.94,1,2.89l-2.07.78.41,1.1a10.36,10.36,0,0,1-5.41-2.21,11.94,11.94,0,0,0,6.51,5.2l.89,2.41H340c.43,1,.87,2,1.32,3a10.28,10.28,0,0,1-8.62-2c2.85,4.32,6.35,5.52,9.13,5.65v.38l1.44.19.82,1.72c-.66,0-1.38,0-2.17,0l-2.14,2.76a10.34,10.34,0,0,1-4.44-2.06,14,14,0,0,0,3.29,3.56l-1.67,2.14c-6.42-13.61-19.43-35,1.48-70.84Zm2.37,69.95c-.78.52-1.87,1.25-3.25,2.19a30.51,30.51,0,0,1,2,5.38c.47,1.19.86,2.32,1.21,3.42l2.79-3a13.92,13.92,0,0,1-3.2-3.5,10.3,10.3,0,0,0,4.53,2.08l1.08-1.15c.85-.91,1.59-1.73,2.22-2.47L347,170a11,11,0,0,1-6.26-.66Zm8.75,5.87.21.44a7.57,7.57,0,0,1-.87.24l.66-.68Zm-3.26,3.66a10.8,10.8,0,0,0,5.17.57c.91,2.11,1.71,4.15,2.36,6.11a10.24,10.24,0,0,1-9.15-1.85c3.24,4.89,7.31,5.78,10.22,5.64a24.21,24.21,0,0,1,.7,6.4,10.24,10.24,0,0,1-9.48-3.58c2.16,5.41,5.92,7.12,8.79,7.59a14.15,14.15,0,0,1-3.68,5.85,10.23,10.23,0,0,1-6.57-7c-.19,4.68,1.54,7.61,3.49,9.41a33.14,33.14,0,0,1-6,3.08c-26.06,10.4-58.8,15.19-63.1,21.47a14.42,14.42,0,0,1-7.41.48c15-22.53,78.15-10.42,70.41-48.14a64.23,64.23,0,0,1,3.83-5.51l.45-.57Zm-7.72-56-1.8,1.92h0c2.46,12,8.65,23.47,14.45,34a7.8,7.8,0,0,1,2.7-1.77c-6-10.26-12.57-21.59-15.34-34.18ZM355,158.86a10.63,10.63,0,0,1-.55,1.65h0v3.08l-.68-.09c1,1.75,1.87,3.46,2.73,5.15a5.43,5.43,0,0,0,1.86.12c-.48.23-.95.47-1.42.73,3.26,6.46,5.74,12.5,6.3,18.07h3.1v.65c.64-8.73-4.93-18.43-11.37-29.36ZM365.92,191a19.79,19.79,0,0,1-6.45,10.16A17.43,17.43,0,0,0,363.34,191ZM353.18,367.74c-2.58,2.86-5.9,4-10.11,4.6l-2.32-3,5-.37a32.23,32.23,0,0,0,7.45-1.24ZM61.82,249c-2.61-3.37-4.49-6.34-5.08-9.58l-.06.12-2.74-1.37,2.39-4.79.69.25a20.35,20.35,0,0,1,1-2.92,15.62,15.62,0,0,1,9-8.4A15.81,15.81,0,0,0,63.85,227c-2.78,6.25-1.56,10.64,1.73,15.52v-3.4H63.72V234h3.43v3.44H69v9.25h-.32l2,2.55-5,.37c-1.08.07-2.12.18-3.11.31l-.75-1ZM269.31,359.64l3,1.33v-1.61h3l-4.45-2a23.3,23.3,0,0,1-1.5,2.26Zm3.84,1.7h5.29v-.56l1.93.85-.49,1.25c.25,0,.71-.29,1.37-.86l1.08.48a60.29,60.29,0,0,1,13.89,8.28,4.7,4.7,0,0,1-2.33.51,6.93,6.93,0,0,1-1.58-.15l-.13-.09h1.64v-1.79h-3v.88a64.23,64.23,0,0,0-9.6-5.19l-8.1-3.61Zm21.4,11.52a37.32,37.32,0,0,1,7.22,7.82l.45-.66c.42-.62.79-1.2,1.13-1.73l-.36-.49a39.68,39.68,0,0,0-6.47-6.78,6.15,6.15,0,0,0-.65,2.25l-1.32-.41Zm9.12,10.85c1.21,2.13,2.21,4.22,3.21,6.26l.45-.52c-.37-.43-.81-.93-1.35-1.5,1.43,0,2.26-.23,2.51-.68a76.23,76.23,0,0,0-3.64-6.75c-.46,1.19-.86,2.25-1.18,3.19Zm3.25,6.32c.38.78.76,1.55,1.16,2.31a1.36,1.36,0,0,0,.44-1.21,3,3,0,0,0-.31-.55,1.84,1.84,0,0,0-1.29-.55Zm1.19,2.36c2.72,5.14,6.08,9.78,14,13.32a16.41,16.41,0,0,0,2,.73l2.19-1.1.6,1.58-.09,0c7,.71,14.18-3.42,17.38-10.63s2-12.38-2.29-18.6l-3.19.61v-2l1.93-.36-.52-.68a46.29,46.29,0,0,0,4.61-.55l2.5-1.35.26.73c5-1.44,8.47-4.27,11-9.88a18.5,18.5,0,0,0,1.42-4.85l-.61-.21.6-1.58.19.06a17,17,0,0,0-5.1-13.22l-.6,1.06v-1.59a14.92,14.92,0,0,0-3.72-2.34,29.25,29.25,0,0,0-8.58-2.47l-.52,2.73h-2l.56-2.87c-4.52-.17-8.44,1-12.59,2.16h0c-5.15,1.46-10.65,3-18.12,2.17l1.05.5.09-.25,3,1.39-.08.15c2.46,1,4.89,1.81,7.19,2.48v-2.84a5.15,5.15,0,0,0,2.37,3.17,1.7,1.7,0,0,0,2.19-.4,4,4,0,0,1-1.28,1,79.53,79.53,0,0,0,10,1.89c-8.37,1.74-16.44.43-24.43-2.8l-.51,1-1.59-.8.48-.84a96.68,96.68,0,0,1-14.27-7.95l-.21.14-.39-.54-.06,0L277,331.41a28.71,28.71,0,0,0-.78,3.2,3,3,0,0,1-.91-3.95l-1.35-.61,0,.07v12l0-.07,1.39.59-1.23,2.47a22.75,22.75,0,0,1-1.7,9l15.69,4.72c6.36,2.83,12.32,6.35,17.16,11.23l6.39-3.19.6,1.58-5.83,2.84c.82.9,1.6,1.84,2.35,2.83a49.89,49.89,0,0,1,4.48,7.47h1.25v1.78h-.35c.87,1.76,1.75,3.54,2.77,5.33a24.46,24.46,0,0,0,5.91,7.22l.51-.71,1.6,1.19-.52.7a30,30,0,0,0,4.59,2.49,12.82,12.82,0,0,0,9.51.37c-3.94,4-9.85,5.71-15.29,3.29a23.77,23.77,0,0,1-12.09-10.89l-.4-.71c-1,.3-1.89.54-2.64.72Zm.65-4.58-.19-.39V388l.19-.22ZM41.61,277.05l2-2a12.89,12.89,0,0,0,6.67,6.85,25.5,25.5,0,0,0,8.63,2.33,17.43,17.43,0,0,0-.31,2.65,28.47,28.47,0,0,1-9.41-2.54,15.61,15.61,0,0,1-7.58-7.28ZM63,286.84a7.7,7.7,0,0,1-.86-2.62,29,29,0,0,0,4.3-.65c5.18-1.16,9.66-2.88,14.94-3.56l-.59.75,1.21-.83.74-.08a37.06,37.06,0,0,1,6.23,0c-.38.45-.82.94-1.33,1.49l-1,1.07c-9.73-.1-16.06,3.73-23.64,4.46Zm25.84-4.38a23.29,23.29,0,0,1,2.51-2.39,56.21,56.21,0,0,1,11,2.76,19.86,19.86,0,0,0-2.17,2,46.76,46.76,0,0,0-11.39-2.36Zm11.65,2.45c1.48-.51,2.84-.94,4.09-1.29,1.12.42,2.24.87,3.35,1.33l3,1.26v1.73a8.13,8.13,0,0,0,3-.48l8.72,3.63c-1,.58-2,1.23-3.1,2l-12.7-5.65c-2.26-1-4.37-1.82-6.36-2.49Zm20.93,9a2.61,2.61,0,0,1,.63-1.38,27.8,27.8,0,0,1,2.31,2.69l-2.94-1.31Zm5.79,2.57v-.18A2.93,2.93,0,0,1,128.8,294l.32-.21,15.44,6.43c.15.32.29.62.44.91l.24.45-.52,2.67-17.5-7.79Zm19,8.45,1.65.74c-.39-.52-.77-1.05-1.13-1.59l-.17.85ZM127.34,293a6.47,6.47,0,0,1-.72.45l-1.6-1.43,2.32,1ZM51.83,275.2q7.8.74,7.79,4.26v.12a33.82,33.82,0,0,1-3.57-1.35,12.67,12.67,0,0,1-4.22-3Zm27.09,92.54c2.57,2.86,5.89,4,10.11,4.6l2.31-3-5-.37a32.14,32.14,0,0,1-7.45-1.24ZM370.28,249c2.58-3.33,4.45-6.28,5.06-9.48h.42v-3.42h-.24a16.88,16.88,0,0,0-1.49-5.39,15.66,15.66,0,0,0-9-8.41,16,16,0,0,1,3.25,4.74l-2.42-2.58-2.05,2,4.79,4.79.88-.73a12.94,12.94,0,0,1,.08,5.53h-3v3.42h1.79a34.31,34.31,0,0,1-3.81,5.82l-3.06,3.94,5,.37c1.08.07,2.12.18,3.11.31l.75-1ZM162.79,359.64a22.21,22.21,0,0,1-1.51-2.26l-3,1.35-2.15,2.14-.83-.82-5.52,2.45c-8,3.56-15.36,8.22-20.67,15.3-3.54,4.73-5.32,9.58-8.15,14.58a23.81,23.81,0,0,1-12.09,10.89c-5.45,2.42-11.35.68-15.29-3.29a12.82,12.82,0,0,0,9.51-.37,23.77,23.77,0,0,0,12.09-10.89c2.83-5,4.62-9.85,8.15-14.58,4.59-6.12,10.71-10.43,17.44-13.78a22,22,0,0,1-1.79-2.85,11.4,11.4,0,0,1,2.77.6,12.18,12.18,0,0,0,2.72.59l15.22-4.57a23,23,0,0,1-1.71-8.61,1.86,1.86,0,0,1-.34,0c-.78-1.2-1.51-1.79-2.17-1.79.25-.09,1.16-.5,2.71-1.23V330.12l0-.07-19,8.44c-2.43,1.63-4.86,3.15-7.29,4.54h1.47L132,347.38l-1.59-.59,1.36-3.68q-2.41,1.36-4.83,2.54h2.55v2h-7a53.77,53.77,0,0,1-7.87,2.48c1.27.06,2.48,1.19,3.64,3.37l2.18-2.38c.79.79,1.18,2.3,1.18,4.55a4.39,4.39,0,0,0-1.39-2.38,70.43,70.43,0,0,1-7.13,2.18,1.38,1.38,0,0,0,.5-1.28,2.77,2.77,0,0,0-.31-.55,1.89,1.89,0,0,0-1.38-.55l.5-.57c-.36-.43-.81-.93-1.34-1.5,1.41,0,2.24-.23,2.49-.67a39.72,39.72,0,0,1-6,.75l0,.31a4.26,4.26,0,0,0,2.38,4.17,2.27,2.27,0,0,0-2.58,2.57,5.69,5.69,0,0,1-1.78-4.16,11.57,11.57,0,0,1,.29-2.18l.14-.67a36.34,36.34,0,0,1-7.71-.77,74.25,74.25,0,0,0,7.76-1.37c-.41-1-1.9-1.62-4.45-1.85v.29h-2V347h-.59c0-.28.19-.4.59-.35V343.9l-3-1,.59-1.58,6.94,2.37v1.79l-2.58-.89v2.49a12.38,12.38,0,0,0,1.79.18q1.18,0,4-4.16l.67-1c-6.33-1.63-11.71-3.89-18.73-2.82l1.66,2.15-1.58,1-2-2.77a31.4,31.4,0,0,0-5.8,2,15.57,15.57,0,0,0-3.88,2.48h4.34v2H76.74v-1.23a16.59,16.59,0,0,0-2.33,3l.35.79H74a18,18,0,0,0-.36,15.63c3.57,8,9.09,10.37,18.34,11.05-5.69,7.33-7.64,13-4.08,21,3.94,8.85,13.83,13.05,22.08,9.38,21.33-9.48,9.69-26.88,40.9-40.76l11.94-5.31Zm-52.54-17a37.88,37.88,0,0,0,12.42.69c-1,.51-2.09,1-3.14,1.43v-.08h-4v1.6c-2.63.92-5.17,1.65-7.46,2.22.46-1.47,1.18-3.43,2.14-5.86Zm3.34,7.7.81-.17-.81.93v-.76Zm258.8-99.71c5.69-7.34,7.64-13,4.08-21-3.93-8.85-13.82-13.05-22.07-9.39-.54.25-1.06.49-1.56.74.14.75.45,3.56.93,8.46s.34,8-.35,9.58h-.21l1.43.61-1.68,3.6-1.91-1,1.88-3.28a2.77,2.77,0,0,1-.48-.11A37.66,37.66,0,0,1,345,246.9q3.4.85,7.48,4.91-3.44,0-6.85-3.42c-2.28,2.28-3.77,3.42-4.45,3.42l1.17-2.92c-5.88,4.08-12.94,6.94-20.73,9.18-.52.54-1.1,1.14-1.73,1.77a2,2,0,0,0,1.37.34,6.69,6.69,0,0,0,3.42-1.37,5.26,5.26,0,0,1,1.71,3.77,7,7,0,0,1-1.37,3.77q-6.16-2.75-10.27-2.74a11,11,0,0,0-4.1.68,38.38,38.38,0,0,1,4.78-4.22l-1.95.9-19.86,8.83c-1.13,3.11-2.3,6.2-3.44,9.42l-.36,1,2.61,1.69-1.2,5.43a99.08,99.08,0,0,1-2.6,10l5.45-2.93v-1.79h3.32l2.31-1.25h0l1.71-2.4,1.17.85,11.68-6.3q-1.14,0-2.58,0,2.74-2.73,2.74-4.45a4.44,4.44,0,0,0,1.66,3.49l2.28-1.22a44.2,44.2,0,0,1,25.19-5.1c.84.07,1.65.18,2.44.3l-3.79-5.18,2.39-1.71,6.06,7.88c3,.77,6,1.7,9.2,2.42.59.13,1.17.24,1.74.34l.71-1.91,6.16,2.11a26.56,26.56,0,0,0,7.57-2.22,13.33,13.33,0,0,0,7.71-10.82V264.9l.1,0a15.85,15.85,0,0,0-1.36-5.77,17.29,17.29,0,0,0-2.85-4.56c3.71,1.21,6.52,3.5,8.6,8.14l2.39-1.2c-3.56-7.86-9.07-10.17-18.25-10.85Zm19.24,13.53a17.55,17.55,0,0,1-2.62,15.3c-.29-.69-.74-1.6-1.36-2.73a14.15,14.15,0,0,0,1.53-3.75h2.48v-2.4h-2.07a15.91,15.91,0,0,0-.41-5.22l2.45-1.2ZM388.55,280a15.42,15.42,0,0,1-4.88,3.94c.53-1.38,1.1-2.87,1.74-4.46l.47-.48a5,5,0,0,1,2.67,1Zm-12.64,6.53a24.45,24.45,0,0,1-6.07.34v-2.69l.74.05,3.72,1.27v-1.42a25.24,25.24,0,0,0,3.35-.69l.63.16a33.71,33.71,0,0,1-2.37,3Zm-9.49-.1c-1.61-.3-3.2-.72-4.8-1.16l-.34-.13v0a85.73,85.73,0,0,0-9.13-2.28v-1a11.39,11.39,0,0,1-6.67-2.23c1,0,1.94,0,2.93.07l.32.44.58-.37h.05c5.88.54,10.68,2.47,16.29,3.72l.78.16v2.73ZM346,282.38a40.12,40.12,0,0,0-10,1.25v-.49h-7.21a53,53,0,0,1,15.49-3.39c.51.88,1.08,1.76,1.68,2.63Zm-18.77,4.19c-.64.26-1.28.54-1.94.83l-2.64,1.17-1.1-2.52,2.65-1.1c1-.4,2-.8,2.94-1.18v2.8Zm-7,3.07-11,4.9h0v-1.92h-2.67l-.25-.19,12.62-5.26,1.34,2.48ZM305.86,296l-21.64,9.62a31,31,0,0,0,2.88-4.52c.15-.28.29-.59.43-.91l13.5-5.62h1.38V294l.52-.21,2.93,2.22Zm45.75-57.5a12,12,0,0,1-2.47-1.59q-2.56-2.06-2.56-3.43a7.53,7.53,0,0,0,4.11,1.71c.46-1.36,1.48-4.11,3.08-8.21a28.24,28.24,0,0,1-6.9-2.13c-6.7,5.86-7.84,13.31-13.21,20.88h5.06v1.31a88.22,88.22,0,0,0,12.89-8.54Zm-17.14,10.65a58.59,58.59,0,0,1-5.8,2.26c.81-.76,1.55-1.51,2.24-2.26Zm12.75-24.59c3.68-.16,5.52-1.3,5.52-3.4V221a28.48,28.48,0,0,0-5.52,3.59ZM214,354.17a3.28,3.28,0,0,1-.7-.49,5.64,5.64,0,0,1-5.59-.77,12,12,0,0,1-2.45,1.12,4.57,4.57,0,0,1-1.77.12,4.14,4.14,0,0,1-2.8-1.56,5.25,5.25,0,0,1-3.46.22,3.58,3.58,0,0,1-.74-.25c-1.36.63-2.64.12-3.88-.48v1.63h-2v-2.57a4.85,4.85,0,0,1-2.27-2.33,3.54,3.54,0,0,1-.46,0c-4.15-.41-3.45-6.42-3.16-9.54a25.1,25.1,0,0,1-5.41-8.32l-.51-.55h.29a38.21,38.21,0,0,1-2-7.18l-3.34,2.34-1-1.59,4-2.58.06.1a59.85,59.85,0,0,1-.62-8.84c-6.1,0-12.82-.07-17.81-1.85a54.59,54.59,0,0,0,2.11,6.33,78.44,78.44,0,0,0,5.78,10.69v5.87l.7,1.08-.7.49v4.24a8.16,8.16,0,0,0,2.94-1.86q0,2.5-2.94,4.5v1.34a15.23,15.23,0,0,0,3.08,11.47,37.45,37.45,0,0,0,5.34-8.63,8.1,8.1,0,0,0,1.18,2.67,8,8,0,0,1,1.19,2.67,3,3,0,0,0-2.17-1q-2,4.84-2.7,7.4c4.15,4.61,5.94,7.61,10.56,9.81.27-5.63-2.52-15.77-2.52-15.77a50.76,50.76,0,0,1,5.56,10.11H186V363c3.37,7.94,5.85,16.1,11.56,21.26,5,4.48,8,6.47,18.46,6.22,10.47.25,13.49-1.74,18.46-6.22,8.44-7.62,9.82-21.82,17.44-32.13,0,0-2.79,10.14-2.52,15.77,5.23-2.49,6.83-6,12.34-11.73a15,15,0,0,0,3.53-5.84h-3.69a6.24,6.24,0,0,0,1.39-3l2.46,2.46a14.78,14.78,0,0,0,.44-6.32V327.8s.79-1.19,1.85-3h-.13V323h1.14a63.79,63.79,0,0,0,2.93-5.91,54.59,54.59,0,0,0,2.11-6.33c-5,1.78-11.71,1.85-17.81,1.85,0,15.47-5.08,23.15-8.59,26.62.29,3.12,1,9.13-3.16,9.54a3.46,3.46,0,0,1-.45,0,4.94,4.94,0,0,1-2.53,2.44c-1.79.71-3.62,2.24-5.62,1.31a3.58,3.58,0,0,1-.74.25,5.24,5.24,0,0,1-3.46-.22,4.14,4.14,0,0,1-2.81,1.56,4.54,4.54,0,0,1-1.76-.12,11.73,11.73,0,0,1-2.45-1.12,5.64,5.64,0,0,1-5.59.77,3.55,3.55,0,0,1-.7.49A5.45,5.45,0,0,1,214,354.17Z"/><text class="cls-3" transform="translate(99.91 58.79)">quobix</text></g></g></svg>