<svg xmlns="http://www.w3.org/2000/svg" viewBox="0 0 428.5 523.89"><defs><style>.cls-1{fill:#fc00ea;}.cls-1,.cls-2{fill-rule:evenodd;}.cls-2{fill:#fff;}</style></defs><g id="Layer_2" data-name="Layer 2"><g id="Layer_6" data-name="Layer 6"><path class="cls-1" d="M154,431.67h-8.28V429.5H154v2.17ZM43.63,392v-2.17H40.27V392Zm99.17,38.33v-1.95h-4.47v1.95Zm-17.45-1.09v-1.94l-7.84-2.6-.67,1.73,8.51,2.81Zm-24.84.87-3.13-2.81L96,428.42l3.14,3,1.34-1.3Zm-30.42-6.7v-5.63a7.79,7.79,0,0,1-3.36-1.29q0,2.81-2.69,8a11.68,11.68,0,0,0,3-.54,11.81,11.81,0,0,1,3-.54ZM65.18,410.9l-.89,1.74-3.14-1.52.67-1.73,3.36,1.51Zm-3.36.66L60,410.9l-1.78,3,1.78.86,1.79-3.24Zm7.74,25a6.06,6.06,0,0,0-4.7-1.73q2.46-2,3.57-1.95a9.56,9.56,0,0,1,1.13,3.68ZM131.9,427l-1.11-1.52-4.48,2.81,1.12,1.74,4.47-3Zm175.81,6.76H303v-2.16h4.7v2.16Zm-7.61,0h-9.4v-2.16h9.4v2.16ZM314.47,425h-3.36v-2.16h3.36V425ZM260.55,487.5v-2.16h-3.36v2.16Zm1.59-6.9-1.79-.65-1.79,3,1.79.86,1.79-3.24Zm-5.78-6.18v-2.16h-4.7v2.16Zm4,2.6c-1.2,1.29-3.06,2-5.6,2-.29-.15-.45-.29-.45-.44q0,.87,2.91-4.54l3.14,3Zm162-133h-2.24v-.76l-.49.9-1.58-.64,1.58-3.25,1.39.51h1.34V344Zm-11.23,36-.67,1.74-4.25-1.52v-1.73l4.92,1.51ZM423,332.16l-1.56,4.75-1.79-.64,1.56-4.11Zm-1.56,29.42-.67-1.73-3.14,1.52v1.72l3.81-1.51Zm3.7-2.6h-3.35v-2.16h3.35V359Zm-12.3,0h-4.7v-2.16h4.7V359Zm6.76-8.81h-.45l-4.2,5.57-1.79-1.3,3.22-4.27h-.14V348h3.36v2.16Zm-30.26,36.11-1.79-.65L386,388.88l1.79.65,1.56-3.25Zm11.69-1h-2l-.26-.95-.09.17-2.29-.86-.23,1.13h-2l.51-2.27v-1.25l.27.08,1.87-8.31h-2.15v-2.34a65.34,65.34,0,0,0-24.21,14.82,63.55,63.55,0,0,0-9.74,12h.8v2.15h-2.09a60.87,60.87,0,0,0-6.13,15.15h2v2.17h-2.47c-.28,1.28-.52,2.58-.71,3.89H275.7l-2.84,2.53V425h-3.37v-2.16h1.59l-5.65-5-3.42,3h-4.53l-2,1.82.37.36v-.2h4.7V425h-2.72l.54.55,3.16,3.14,7.58,7.53L282,438.62h42l3.42-1.85,6.85,3.69,1.11-.59-2.12-2.81,1.57-1.08,2.33,2.92.53-.28h2.78l3.43-2.48,6.84,4.95,3.43-2.47h6.64a7.2,7.2,0,0,0,.58-1.45,4.14,4.14,0,0,0,.53,1.45h7.82v-8.89a43,43,0,0,1,1.47-11.17,8.56,8.56,0,0,1-1.75.22c1.78-3.47,2.68-6.13,2.68-8a16.32,16.32,0,0,0,1.59.82,44.53,44.53,0,0,1,6.52-10.21,1,1,0,0,1-.78-1.25l.06-.19h-1.14l.93-1.9a2.66,2.66,0,0,1-2.09.15c-1-.15-1.56-.45-1.56-.87.15.15.86-.11,2.12-.76a7.55,7.55,0,0,1,2.57-1,47.18,47.18,0,0,0-5.81-7.35c-.6.58-.9,1.73-.9,3.46a10.74,10.74,0,0,0-2-2.81,69.4,69.4,0,0,1,7.17-4.11,2.93,2.93,0,0,1-1.13,2.81l2,1.73c1.35-.72,2-1.44,2-2.16a7.17,7.17,0,0,0,3.58,1.51,6,6,0,0,0-3.14,1.19c-1.19.8-1.79,1.63-1.79,2.49,0,1.35,1,3.21,3.12,5.6.52-.5,1.06-1,1.6-1.47l-.24-.23,1.34-1.09.23.2a46.53,46.53,0,0,1,5.19-3.66H390l-1.34-3,1.56-.65,1.53,3.59a45.77,45.77,0,0,1,5.06-2.64l-3.53-1.26V386l4.92,1.5-.4,1a47.39,47.39,0,0,1,16.5-3.66c1.58-.27,2.37-.94,2.37-2,0-.72.11-.05.34,2h8.36v-79a9.57,9.57,0,0,0-1.42-1.77l1.42-.9v-4.92l-.83-1.07-13.33,6.63v2.65a5.53,5.53,0,0,0-1,.08l13.57,23.65s-5,2.07-11.91,4.84h6.67v2.16h-8.28v-1.52L407,337v5.43l1.38-1.45q1.33,1.3,1.33,5a4.84,4.84,0,0,0-1.56-2.6l-1.15.39v23.95q-2.61.36-5.16.93A11,11,0,0,1,400,371.9a5,5,0,0,1,1.13-3.12c-1.44.33-2.86.71-4.27,1.14v2.91h1.75l-1.87,9,1.47.45-.75-2.69h2.23l1.34,5.62Zm-49.23,47.6a8,8,0,0,0-1.12,3.24c-1.94-.58-3.06-.94-3.36-1.09a4.33,4.33,0,0,1-1.52-1.34H345V431.7h3.36v1.95h-2.08a7,7,0,0,0,2.15.27,4.72,4.72,0,0,0,3.36-1.08Zm13.87-20.13H362.3v-2.17h3.36v2.17ZM338.82,438h-2.24v-5.42h2.24V438Zm73.94-65.7H409.4v-1.95h3.36v1.95Zm-19.92,4.76-6.27-.65V374.5l6.27.66v1.94Zm-61.85,46h-6.93v-2.17H331v2.17Zm39.62-17.91-.89,1.73-3.14-1.51.68-1.73,3.35,1.51ZM322,425.69q0,.87-3.35,4.12a1.37,1.37,0,0,0,.9.21,4.44,4.44,0,0,0,2.23-.87,3.27,3.27,0,0,1,1.12,2.38,4.33,4.33,0,0,1-.9,2.39c-.7-.31-1.38-.57-2-.8v.66h-3.36v-1.5a10.34,10.34,0,0,0-1.32-.09,7.4,7.4,0,0,0-2.69.43c1.48-1.59,4.62-3.9,9.39-6.93Zm45.22-19.89-1.8,3.25-1.78-.87,1.78-3,1.8.65Zm1.91,25L360.44,435V433l8.06-3.89.67,1.73ZM340,424.73a6.5,6.5,0,0,1-4.48-2.17c-1.5,1.45-2.47,2.17-2.91,2.17l1.34-3.25c1.79,0,3.8,1.08,6.05,3.25Zm78.57-45-3.12,3-1.35-1.3,3.13-3,1.34,1.3ZM365.5,402.22q-1.78,1.95-5.59,1.95c-.3-.15-.45-.29-.45-.44,0,.58,1-.94,2.91-4.54l3.13,3Zm2.69,19-.67,1.74-4.26-1.52v-1.73l4.93,1.51ZM209,393.51H205.6v-2.16H209v2.16Zm-12.3,0H192v-2.16h4.7v2.16ZM209,427.32h-1.79l-1.56-4.11,1.79-.65,1.56,4.76Zm31.58,33.11H235v-2.16h8.28v.64h.7v2.17h-3.36v-.65Zm-65-34.22-1.56-3.68-1.57.65,1.34,3ZM171,420.83h-8.56a3.07,3.07,0,0,1-1,1.27l2,1.73c1.34-.72,2-1.44,2-2.16a7.09,7.09,0,0,0,3.57,1.51,5.94,5.94,0,0,0-3.13,1.19c-1.19.8-1.79,1.63-1.79,2.49q0,2.82,6.05,8.66c-.6,0-1.53.07-2.8.21a26.41,26.41,0,0,1-2.8.22c-1.05,0-1.49-.43-1.34-1.29l.06-.19h-1.13l.91-1.9a2.6,2.6,0,0,1-2.08.13c-1-.14-1.57-.43-1.57-.86.16.14.86-.11,2.13-.76a7.68,7.68,0,0,1,2.57-1,46.71,46.71,0,0,0-5.82-7.36c0,.06-.11.12-.16.19v3h-.73v.26l-.14-.26H156v-2c-.17-.19-.33-.36-.51-.53l.51-.32v-.37h.59c1.09-.69,2.14-1.32,3.13-1.88H114.79a31.51,31.51,0,0,0-2.48,7.55q-3-2.26.28-6.36a3.75,3.75,0,0,0,.59-1.19h-3.27V421a1.94,1.94,0,0,0,.72.25v5.85q-.67-2-4-6.06l-2.69,2.38a11.51,11.51,0,0,0-.42-2.55l-1.77.05,1.25,2.94h-.74l1.48.77-.67,1.73-3.36-1.73.67-1.74.52.27-1-2.19-.61,0-.35.71-1.79-.65h-.23c.38.23.63.85.75,1.84a4.6,4.6,0,0,1-.9,3,6.3,6.3,0,0,1-2.35-.86,6.38,6.38,0,0,0-2.35-.87,21,21,0,0,1,4-3.12l-1,0a8.76,8.76,0,0,0-1.75.92c-1.19.8-1.79,1.63-1.79,2.49q0,2.82,6,8.65c-.6,0-1.53.08-2.79.22a26.41,26.41,0,0,1-2.8.22c-1.05,0-1.49-.44-1.35-1.3.45-1.3.53-2.09.23-2.38a2.35,2.35,0,0,1-2.3.48l1.47,2-1.79,1.08-2.91-4.33,1.57-1.08.87,1.2c.31-.13.71-.32,1.19-.56a7.53,7.53,0,0,1,2.57-1,47.9,47.9,0,0,0-5.82-7.36c-.59.58-.89,1.73-.89,3.46a10.74,10.74,0,0,0-2-2.81l1.18-.75-3.42.65-.81-7.8-4,.76-.66-.26a5.41,5.41,0,0,0,.76.48,2,2,0,0,0,2.47-.44c-1,1.16-2.76,1.73-5.15,1.73v-2.55l-1.55-.62,1.55-6.56H73l.44-.92.2-.85a2.85,2.85,0,0,1-1.81,0c-1-.15-1.57-.44-1.57-.87.1.1.44,0,1-.22l-1.73-.69,1.12-6.37L68.56,395a8.08,8.08,0,0,0-.32,2.5,10.64,10.64,0,0,0-2-2.82l.61-.38-.21-.09-.14-.19-4.5-.62.1-8.79-3.47-.48-.78,2.47h0a4.5,4.5,0,0,0,1.47,1.16,1.94,1.94,0,0,0,2.46-.44Q60.19,389,56.6,389v-3l-.78-.33.92-2.43-.23-.19q-4,0-12.29,2.81,3.36-3.47,4.93-3.46l.86.08-2.55-8.42-4.61,1.33-2.93-4.73-3.6.25c-.07,1.36-1,3.07-2.63,5.16q2.84,2.13,4.72,1.9a23,23,0,0,0-8.22,6.71c-.72.91-1.4,1.83-2,2.76l5,1.67.83.39,1.28.91,3.88.46,3.34,6.83,3.87.48a45.58,45.58,0,0,1,3.4,3.69l1.57,2.4v-1.07H56v2.15h-4l2.47,3.77q.7-1,2.41-4.19l3.13,3a6.9,6.9,0,0,1-5,1.93l.07.11a44.41,44.41,0,0,1,2.61,6.28h2.51v2.16H58.37a43.68,43.68,0,0,1,1.33,7.62l3.06.94-.67,1.73-2.27-.81c0,.6,0,1.19,0,1.79v6.68l3.21-1.55.67,1.73-3.88,1.83v.2H97.92l3.43-1.85.7.38,3.64,2,2.5,1.35.87-.46.14,0-1.24-.45,1.8-3,1.56.66-1.42,2.76,1.88-.18,2.73-.19,1.68-1.34-.91-1.35,1.56-1.08.83,1.23.09-.07,2.78,1.66.84-1.63,1.8.65-1,2,1.63,1a1.75,1.75,0,0,0,.13-.7c0-.56.07-.26.21.91l.74.44,1.28-1v-2.81h2.24v1.23h3l3.26-1.63c-.42-.46-.93-1-1.53-1.65q2.91,0,2.91-1.08v3.26l5.64,2.8.32-.16-1.11-6h2.24l.67,3.58c.48-.7,1.26-2.07,2.34-4.08l3.13,3a7.07,7.07,0,0,1-5.3,1.95l.08.45,1.05-.52h2.17l2.57-1.28v-.53h2.24v.79l5.46,2.72,3.43-1.7h21.2a1,1,0,0,1,0-.25l.08.25h2.9V438h2.23v.6h1.24l0,0v0h11.89V435.1c-.75-.72-2.32-1.08-4.7-1.08h-4v-6.93a33,33,0,0,1,10.29,5.85,4.73,4.73,0,0,0,.93-.08l-3.15-3,4.26-2.16c-.14.13-.21,1.79-.23,5l.32-.13c.67-.3,1-.43,1-.43-.88,1.56-2.12,3.75-3.73,6.54h5.68a8.47,8.47,0,0,0-2.34-4.06c.44,0,1.19.58,2.24,1.73S209,438,209.78,438c1.34,0,2.09-.14,2.24-.43v1h7l2,2.69-.58-1.52,1.79-.65,1.57,4.76h-.88l2.41,3.3,2.66-3.33a16.93,16.93,0,0,1,4,.28c-.11-.8.4-1.79,1.52-2.95a4.73,4.73,0,0,1,3.12-1.78c.19,1.42-.68,3.32-2.6,5.72q2.84,2.12,4.71,1.89a23.1,23.1,0,0,0-8.21,6.71l-.24.3,7.52,10.29,2.27-1.18.68,1.73-1.94.82.34.47v-.59h2.24v3.65l1.47,2,3.26-2,1.11,1.51-3.26,2,16.42,22.47,2.7.82-.68,1.74-.2-.08,4,5.44a5.31,5.31,0,0,1,2.58-1.2,9.52,9.52,0,0,1,1.12,3.67,5.24,5.24,0,0,0-3.05-1.59l5.75,7.87h2v2.74l4.71,6.45.44-1.17-11-27.22c-.4.08-.84.19-1.32.32a11.39,11.39,0,0,1-3,.54,29.09,29.09,0,0,0,2.36-5.76l-2.58-6.35-2.67-1.29.67-1.74.95.44-10.61-26.21q-2.21.46-5,1.32v.74h-2.23v0l-.69.23.69-.69v-2.77h2.23v.84a3.92,3.92,0,0,1,2-.85l2.63.24-6.38-15.79-2.37-5.82a3.66,3.66,0,0,1-2.59.83c-.89,0-1.34.21-1.34.64a1.77,1.77,0,0,0,.67,1.09l-2.91-2.38c.91-.36,2.17-.88,3.75-1.55l-1.9-.89,1.9-4.66-.06-3.67-4-1.66,1.55-8.34-4-1.65-4.46-11-38.76-12-7.64,6.49H189v2.16h-8.11L166.2,406v.05h-.06l-1.8,1.52v.58h-.68L152,418.05l18.36-7.62V409l2.71.28,19-7.89H207l7.56,19.41H201l.17,1.73c.3,3,.22,5.05-.22,6.06a5,5,0,0,1-2.8-1.3c-1.12-.87-1.68-1.58-1.68-2.16a5,5,0,0,0,2.69,1.08q.45-1.29,2-5.19a9.69,9.69,0,0,1-1.13-.22H178.22L182,422l-.67,1.73-4.25-1.51v-1.4h-4l-1.55,3.22-1.8-.65,1.25-2.57Zm1.43,11.05h1.44V434h-4.48v-2.16h.41l-1.16-1.13,1.34-1.08,2.45,2.21Zm63.38-2.17a11.82,11.82,0,0,0-3,.54,11.66,11.66,0,0,1-3,.53q2.69-5.19,2.69-8a7.68,7.68,0,0,0,3.35,1.29v5.64Zm-37.09-5.86H195.4v-2.16h3.36v2.16ZM245,442.6h-2.23v-3.24H245v3.24Zm3.58,6.06h-2v-3.25h2v3.25Zm-7.38-8.87L239.63,443l-1.79-.87,1.57-3,1.79.65ZM91.37,421.22l-.48.27-.3-.25.78,0ZM56.51,383.07l-5-.45,3.3-.94,1.74,1.39ZM35.1,370.68a6.61,6.61,0,0,0-1.92,1.47c-1.13,1.17-1.64,2.15-1.53,3a6.61,6.61,0,0,0-1.36-.21v-.71H28.05v.64h-.42l-5.07,6.34c3.23-2.15,5-3.29,5.29-3.43l.66-.31h1.78v-.54a5,5,0,0,1,3.25.46q.12.91-3.25,4.41l-4.71,4.84-2.1-.7a47.51,47.51,0,0,0-10-1.06H4.24V366.5L1,363.19l6.42-6.63-3.21-3.31v-1.5l1.6,1.66q5.37-2.6,5.37-6.05a10.92,10.92,0,0,1-7,2.75V341l2.88,4.28,1.57-1.08-2.92-4.33L4.24,341V308.64l.69-1.23-.69.3V297.09l2.16,1.07-1.07.39,1.57,4.11H8.69l-1.33-4,12.37,6.14L5.15,330.19l.67.28-.05.11,1.6.52c3,1.23,8.73,3.56,15.26,6.14v2.2h-.52l.52.54v6.71h0v2.69l-.45.34c-1.64,1.3-2.46,2.09-2.46,2.38a14.38,14.38,0,0,1,2.91-.91v.9l3.35,3-5.09,7,.91,1.1,2.31,2.06,2.1,3a66.11,66.11,0,0,1,8.89,2.39Zm189.54,50.94-3.14,3.24a31,31,0,0,1-3.12-4.54,13.29,13.29,0,0,1,3.12.64,13.31,13.31,0,0,0,3.14.66Zm-37.24,8-1.34,6.71h-2.24l1.35-6.71Zm-51.24.87-4.47,2.81-1.12-1.52,4.47-2.81,1.12,1.52Zm-55.94-3-1.57,3.24-1.79-.86,1.79-3,1.57.65Zm49.45-2.81-3.58,1.51v-1.74l2.91-1.51.67,1.74Zm15.62,9.54H140.6V432h4.69v2.17ZM16.36,344.74v4.78H18.6v-5.85H17.38v-2.18H15.15v3.25Zm3.72,17.92a8.62,8.62,0,0,0-1.35-2.92,8.81,8.81,0,0,1-1.34-2.92c-.3,1.16-1.49,3.24-3.58,6.27s-3.58,4.55-4.47,4.55a23,23,0,0,1-3.58-.43c-.9-.3-1.35-.22-1.35.21q8.06,0,8.06,2.81a11.51,11.51,0,0,1-.34,2.39A11.81,11.81,0,0,0,11.8,375a6.15,6.15,0,0,0,2,4.54c0-1.87,1-2.82,2.91-2.82A4.61,4.61,0,0,1,14,372.18q0-1.95,3.58-10.6a3.49,3.49,0,0,1,2.46,1.08Zm-8-20.93-1.79-.65-1.57,3,1.79.86,1.57-3.24Zm-.41-26.21v-2.59c-.15.28-.9.43-2.24.43-.75,0-1.64-.58-2.68-1.73S5,309.9,4.54,309.9a9.17,9.17,0,0,1,2.68,6.92,7.17,7.17,0,0,0,2.24-.64,6.89,6.89,0,0,1,2.24-.66Zm269.06,207,.56,1.4-.7-1,.14-.44Zm-51.69-70.11L226,448.16c1.27-.83,2-1.3,2.19-1.38,2.18-1.09,4.08-1.22,5.68-.38.09.61-1,2.07-3.25,4.4Z"/></g><g id="Layer_3" data-name="Layer 3"><polygon class="cls-1" points="393.23 62.27 391.89 63.35 388.76 60.32 390.1 59.02 393.23 62.27 393.23 62.27"/><polygon class="cls-1" points="16.43 215.39 8.14 214.31 8.14 212.14 16.43 213.44 16.43 215.39 16.43 215.39"/><polygon class="cls-1" points="20.88 86.05 16.18 86.05 16.18 83.88 20.88 83.88 20.88 86.05 20.88 86.05"/><polygon class="cls-1" points="10.87 177.87 6.39 177.87 6.39 175.7 10.52 175.7 11.82 172.99 13.61 173.64 12.04 176.89 10.87 176.46 10.87 177.87 10.87 177.87"/><polygon class="cls-1" points="16.45 145.18 14.89 141.5 13.32 142.15 14.35 144.48 13.84 144.21 13.16 145.94 16.52 147.67 17.19 145.94 15.71 145.18 16.45 145.18 16.45 145.18"/><polygon class="cls-1" points="13.99 139.77 12.43 143.02 10.64 142.37 12.21 139.12 13.99 139.77 13.99 139.77"/><polygon class="cls-1" points="13.99 151.46 10.86 148.64 9.52 149.72 12.65 152.75 13.99 151.46 13.99 151.46"/><polygon class="cls-1" points="20.81 99.4 17.46 99.4 17.46 97.45 20.81 97.45 20.81 99.4 20.81 99.4"/><polygon class="cls-1" points="11.64 122.12 10.3 128.83 8.06 128.83 9.4 122.12 11.64 122.12 11.64 122.12"/><polygon class="cls-1" points="11.64 133.59 11.64 130.56 9.4 130.56 9.4 133.59 11.64 133.59 11.64 133.59"/><polygon class="cls-1" points="17.41 165.02 16.74 163.29 13.83 164.81 13.83 165.28 7.12 166.5 7.12 168.67 14.28 167.37 14.28 166.35 17.41 165.02 17.41 165.02"/><path class="cls-1" d="M10.25,147.24a4.6,4.6,0,0,0,.9-3c-.15-1.3-.52-2-1.12-2s-2.09,1.09-4.47,3.25a6.41,6.41,0,0,1,2.34.87,6.3,6.3,0,0,0,2.35.86Z"/><path class="cls-1" d="M413.66,270.33a4.08,4.08,0,0,0-2.46-1.08,31.64,31.64,0,0,0,1-3.58c.52-2.08.93-3.13,1.23-3.13a17.76,17.76,0,0,1,.67,4.76,10.94,10.94,0,0,1-2.47,7.14,5.74,5.74,0,0,1,2-4.11Z"/><path class="cls-1" d="M413.87,164.83h-4.7l1.57-3.25c2.08,1.88,3.13,3,3.13,3.25Z"/><path class="cls-1" d="M414.54,172.83c-1.05,1.15-2.76,1.73-5.15,1.73v-3l-.78-.33,1.57-4.12h2l-1.57,5h0a4.4,4.4,0,0,0,1.47,1.16,2,2,0,0,0,2.46-.44Z"/><path class="cls-1" d="M412.31,246.87a3.52,3.52,0,0,0-.35-.58,2.1,2.1,0,0,0-1.56-.61l.56-.63c-.41-.47-.92-1-1.52-1.64,1.95,0,2.92-.36,2.92-1.08v1.17l.94-1.07q2.25,0,4.26,3.68l2.46-2.59c.9.86,1.34,2.52,1.34,5a4.85,4.85,0,0,0-1.57-2.59q-5.15,1.72-8.05,2.38a1.54,1.54,0,0,0,.57-1.41Z"/><polygon class="cls-1" points="413.02 204.02 413.02 201.86 409.66 201.86 409.66 204.02 413.02 204.02 413.02 204.02"/><path class="cls-1" d="M422.87,209v-5.62a7.94,7.94,0,0,1-3.36-1.3c0,1.88-.89,4.54-2.68,8a11.75,11.75,0,0,0,3-.54,11.92,11.92,0,0,1,3-.55Z"/><polygon class="cls-1" points="419.07 238.43 419.07 236.48 414.6 236.48 414.6 238.43 419.07 238.43 419.07 238.43"/><polygon class="cls-1" points="417.97 196.46 417.08 198.2 413.94 196.68 414.61 194.95 417.97 196.46 417.97 196.46"/><polygon class="cls-1" points="414.61 197.11 412.82 196.46 411.03 199.49 412.82 200.36 414.61 197.11 414.61 197.11"/><polygon class="cls-1" points="422.79 282.51 422.12 284.25 417.87 282.74 417.87 281 422.79 282.51 422.79 282.51"/><path class="cls-1" d="M422.34,222.15a6,6,0,0,0-4.7-1.73c1.65-1.3,2.84-1.95,3.58-1.95a9.46,9.46,0,0,1,1.12,3.68Z"/><polygon class="cls-1" points="416.52 222.15 407.8 226.26 407.8 224.31 415.86 220.42 416.52 222.15 416.52 222.15"/><path class="cls-1" d="M412.86,193.53c-1.19,1.3-3.06,1.95-5.59,1.95-.3-.14-.45-.29-.45-.44q0,.87,2.9-4.54l3.14,3Z"/><polygon class="cls-1" points="415.55 212.57 414.88 214.31 410.62 212.79 410.62 211.06 415.55 212.57 415.55 212.57"/><path class="cls-1" d="M68.81,3H60.19l-.57.4v8.49c0,.77,0,1.52-.06,2.28H60V20H58.85a43.29,43.29,0,0,1-3.51,10.64L54,33l-1.83,3.12L52,37.52a20.79,20.79,0,0,0,3.26-3.94Q58.36,29,58.8,27.3a8.82,8.82,0,0,0,1.34,2.93,8.6,8.6,0,0,1,1.35,2.91A3.49,3.49,0,0,0,59,32.06q-3.57,8.65-3.57,10.61a4.62,4.62,0,0,0,2.68,4.54c-1.94,0-2.91.94-2.91,2.81a6.13,6.13,0,0,1-2-4.54,11.9,11.9,0,0,1,.33-2.38,11.43,11.43,0,0,0,.34-2.38c0-.95-.7-1.66-2.08-2.13L51.6,40l-7.84,2.17-.57,3.91c-1,.8-2,1.57-3,2.29q1.83-.77,4.37-1.89c0,2.46-1.19,3.68-3.58,3.68-.89,0-1.34.22-1.34.65a1.73,1.73,0,0,0,.67,1.08l-2.45-2a47.21,47.21,0,0,1-24.63,6.89H4V83.88h9.27v2.17H4v22.62l2.25.7-.75-2.69H7.73l1.35,5.62h-2l-.27-1-.09.17L4,110.5v3.28l.09.1,2.17.66-.49,1.29,1.07,1.26-3.76,4.37-.4,4,.81.94L4,130l1.76,3.51L0,138.9l.47.94c1.07-.6,2.06-1.13,3-1.58a2.94,2.94,0,0,1-1.12,2.81l2,1.73q2-1.08,2-2.16A7.11,7.11,0,0,0,10,142.15a5.86,5.86,0,0,0-3.14,1.19C5.64,144.13,5,145,5,145.83q0,2.82,6,8.65c-.59,0-1.52.08-2.79.22a26.22,26.22,0,0,1-2.8.22c-1,0-1.49-.44-1.34-1.3.44-1.3.52-2.09.22-2.38a1.93,1.93,0,0,1-.75.45L4,158.51v28.16H4l.84.24a13.4,13.4,0,0,0,3.14.64l-3.14,3.25L4,189.73v15.91l1.51-.55,1.57,4.76H5.29L4,206.47v47.4l3.21,3.32L.79,263.81,4,267.13v19.22A162.13,162.13,0,0,0,22.39,296v-1.26l-2.63-3.31,4.1-5.16.66-2.09-2.13-2.68V267.89l-2.63-3.31L25,258l-2.63-3.31v-7.31L19.76,244,25,237.4l-2.62-3.31-1.84-3.31,3.67-6.63-1.83-3.31v-8.57L19.76,209l2.83-3.56.16-.31.06,0,2.2-2.77L22.39,199v-1.27l-1.88-1.54c.52-.2,1.14-.46,1.88-.76v-.62l-.3-3.19.1-2.8-1.12,1.09-1.34-1.3,2.56-2.48.22-6.24-1.09-1.53-1-2-1.39-2.73h-3v-2.16h3.36v.46l4.67-5.11-1.82-3.57-.63-1.46-1.1-2,1.21-2.19,1.84-5.55-1.21-2.19v-.18L21,147.23l-.19-1.35.84-1.51q-.71-.93-1.59-2l-2.68,2.37a14.82,14.82,0,0,0-.67-3.45,14.72,14.72,0,0,1-.68-3.69c2.12,1.47,3.81,2.61,5.1,3.43v-3.85h1.64l-.4-.72v-9.74a15.61,15.61,0,0,0-2.31-.15h-4v-6.93a33.16,33.16,0,0,1,6.34,3v-2.77h0q-1.68-1.29-1.68-2.16a6.91,6.91,0,0,0,1.68.89v-2.2H19.64v-2.16h2.75v-1.42c-.59-.21-1.23-.45-1.91-.74a11.75,11.75,0,0,0,1.91-.14v-3.21l-.24-.23.24-.23V73.92a65.54,65.54,0,0,0,21.14-6.7l-.45-1.72a6.9,6.9,0,0,1,2.11.84l1.57-.9v-.79h1.31A64.84,64.84,0,0,0,59,56.15q2-1.87,3.72-3.91l1.05-1.54.2-3.84,7.12-3.39.21-3.83L72,38.15c.27-.56.53-1.13.78-1.69L71.93,36l1.56-3,.62.23a60.79,60.79,0,0,0,3.24-12.47H146.1l3.43-1.67,3.17,1.56V17h2.24v4.82l1.44.71,3.42-1.67,2.87-2a4.18,4.18,0,0,1-.75-.83h-.8V16h3.36V18H162.4a6.74,6.74,0,0,0,2.15.26,4.66,4.66,0,0,0,3.36-1.07,8,8,0,0,0-1.11,3.24L165.41,20,170,23.43,173.5,21l8.53.39,3.19-2.72,7,4.65,1.34-1.14v-.74h.87l1-.83,11.21.16h17.75l.43-.22.08.22H249V19.2h-1.22V16H250v2.18h1.21v2.63h11.35L276.39,23l1,.95,1.91-1.78.94-.74,3.32-1.71,6.74,3.2,3.33-1.7,8.67-.29,1.67,0,2.41-1.33h.12a7.91,7.91,0,0,1-.77-.28,4,4,0,0,1-2-2.38c0,.87,1,1.29,3.13,1.29a4.68,4.68,0,0,0,3.36-1.07,9.91,9.91,0,0,0-1.08,2.8l.24.13,3.74,1.39,3.25-2.35,6.46,4.75,3.25-2.36,2.06,1.14,3.42-1.89h20.22a60.82,60.82,0,0,0,5.52,17.76l4.82,8.18q.66,1,1.38,1.92l2.76,2.86,4.34.31,1.44,8.3,4.34.3L381,63.79c.33-.85.74-1.89,1.24-3.14a20.13,20.13,0,0,1-4.92-1.51q4.24,0,4.25-2.17,0-1.5.67,5.2c.1,1,.15,1.89.17,2.66L383.93,66l.31.17,12.44,5.4,7.77,1.86L406.73,76l-2.26,6.38.62.69,4.79-2.31.67,1.73-4.21,2,.4.46v18.5l.59-.65c1.5,0,2.91,1.23,4.25,3.67l2.46-2.59q1.35,1.29,1.35,5a4.87,4.87,0,0,0-1.57-2.6c-2.89,1-5.24,1.69-7.08,2.14v15.8c.29-.87.53-1.3.72-1.3a17.44,17.44,0,0,1,.67,4.77,11.1,11.1,0,0,1-1.39,5.55V168.4l2.58.22a17.28,17.28,0,0,0-2.58.23v9.92l2.48,3.32-4.94,6.62,0,.06h4.52v2.16h-2.9l.8,1.09v5.51l2,3.31-4,6.62,2,3.31v21.65a16.39,16.39,0,0,0,2-3.94,8.7,8.7,0,0,0,1.35,2.92,8.81,8.81,0,0,1,1.34,2.92,3.47,3.47,0,0,0-2.46-1.08c-.93,2.25-1.68,4.17-2.26,5.74v8.46a4.89,4.89,0,0,0,1.37.94,4,4,0,0,0-1.37.21v9l1.69,2-3.89,7.24-.58.69.82,1,1.75,3.2,0,.58h2v3.09h1.74l-.55,2.69.21.21-.33.35-1.79,8.65h-2l.93,1v0l2.8,3.32-3.91,4.63a158.83,158.83,0,0,0,19.51-10.28V257.22l-.33-.23.33-.44V239.73H422v-2.16h3.16v-4.43l-3.37-3.31,6.73-6.62-3.36-3.31v-5.06l-1.9-3.31L427,204.9l-1.89-3.31v-12a5,5,0,0,1-.53-.12c-1.05-.14-1.57-.43-1.57-.86.15.14.85-.11,2.1-.74v-4.65a35,35,0,0,0-3.22-3.71c-.59.58-.89,1.74-.89,3.47a10.58,10.58,0,0,0-2-2.81q3.38-2.17,6.13-3.59V165h-3.06v-2.17h3.06v-21.3H422v-2.16h3.17v-6.95l-1.9-3.31,2.29-4-2.22.88v-1.73l3.13-1.51.17.45.42-.71-1.89-3.31V106.9l-1.4-.57,1.4-2.9V95.32L422.56,92l5.15-6.63-2.57-3.31v-6l-2.69-3.32,5.37-6.62-2.68-3.31V59.6a2,2,0,0,1-2.44.39,5.44,5.44,0,0,1-2.59-3.22h5v2.82c-1.05,1.14-2.76,1.7-5.12,1.7V56.77h-4.08c-1.48,0-2.93-.06-4.37-.2l.42.2-.89,1.73L408,57l.32-.82c-1-.16-1.94-.35-2.89-.57l-.87-.27a10.15,10.15,0,0,1-3.23.46c-.3-.14-.45-.29-.45-.43,0,.32.29,0,.87-.93l-3.94-1.25a47.44,47.44,0,0,1-5.92-3l-1.16-.76-1.45.91-1.11-1.52.84-.52-.86-.57a44.73,44.73,0,0,1-4.94-4.16,45.44,45.44,0,0,1-8.07-10.44,32.47,32.47,0,0,0-5.22,12.33q-3-2.27.27-6.36a7.63,7.63,0,0,0,1.09-3.3,7.41,7.41,0,0,1,1.08-3.28l1.6-1.64a44.78,44.78,0,0,1-2.21-5.41L369.37,27l2-2.54a42.76,42.76,0,0,1-1.82-10.22l-.06-5.79V3h-64.3L301.8,6,295,0l-3.42,3h-6.46l-3.43,1.33-1.87-.73v.93h-2.24V2.73L274.8,1.67,271.37,3h-5.82l-3.42,3-6.85-6-3.42,3h-12l-7.66,1.08V5.68a8.11,8.11,0,0,0-.73-1.51l-.22,0-7.08-1.77h-.37l1.48.77-.67,1.73-3.36-1.73.53-1.37-.14,0-1.6-1-.82.53,0,.18a4.65,4.65,0,0,1-.89,3A6.32,6.32,0,0,1,216,3.64,10.85,10.85,0,0,0,214.43,3l-1.31.42q.28,2.82,6,8.38c-.59,0-1.52.07-2.8.21a26.08,26.08,0,0,1-2.79.22c-1,0-1.49-.43-1.34-1.3.45-1.3.52-2.09.22-2.38a2.33,2.33,0,0,1-2.29.47l1.46,2-1.79,1.08-2.91-4.33,1.57-1.08.87,1.2c.32-.13.71-.32,1.19-.56a7.45,7.45,0,0,1,2.57-1c-.58-.87-1.14-1.68-1.69-2.42l-.42.13L209.46,5.2l-2.13.61-2.8-1.57L200,3.91l-1.21.91-1.67-1-4.46-.1-2.46.06-3.63,1.62L180.37.48,176.75,2.1l-1.34.08-.55,0-3.28,2.47-5.86-3.42h-.43V1l-.83-.49L161.19,3h-7l-13.5.26-7.62.36-5.48.46-.64.25L120.1,1.67,116.68,3Z"/><polygon class="cls-1" points="23.39 138.27 24.23 139.76 23.39 141.26 23.39 138.27 23.39 138.27"/><path class="cls-1" d="M3.51,149.55l-.16-2.91c.54.75,1.1,1.56,1.69,2.43a4.43,4.43,0,0,0-1.53.48Z"/><polygon class="cls-1" points="425.14 178.82 425.14 178.96 425.06 178.89 425.14 178.82 425.14 178.82"/><polygon class="cls-1" points="405.79 287.25 403.48 284.94 407.17 281.12 405.79 287.25 405.79 287.25"/><polygon class="cls-1" points="408.2 276.54 407.2 275.52 408.43 275.52 408.2 276.54 408.2 276.54"/><path class="cls-1" d="M406.74,131.7V130a5.06,5.06,0,0,1,.94.64,8.31,8.31,0,0,0-.94,1.06Z"/><polygon class="cls-1" points="390.04 66.93 388.48 62.17 386.69 62.82 388.26 66.93 390.04 66.93 390.04 66.93"/><polygon class="cls-1" points="424.28 100.04 416 100.04 416 97.87 424.28 97.87 424.28 100.04 424.28 100.04"/><polygon class="cls-1" points="407.04 64.32 403.69 64.32 403.69 62.16 407.04 62.16 407.04 64.32 407.04 64.32"/><path class="cls-1" d="M416.89,69.31a11.69,11.69,0,0,0-3,.54,11.82,11.82,0,0,1-3,.54c1.78-3.46,2.68-6.13,2.68-8a7.73,7.73,0,0,0,3.35,1.3v5.63Z"/><polygon class="cls-1" points="413.09 98.73 408.61 98.73 408.61 96.79 413.09 96.79 413.09 98.73 413.09 98.73"/><polygon class="cls-1" points="363.29 34.77 360.15 34.77 360.15 32.82 363.29 32.82 363.29 34.77 363.29 34.77"/><polygon class="cls-1" points="408.64 57.41 406.85 60.66 405.06 59.79 406.85 56.77 408.64 57.41 408.64 57.41"/><polygon class="cls-1" points="416.81 142.82 416.14 144.55 411.89 143.04 411.89 141.48 408.32 141.48 408.32 139.32 413.02 139.32 413.02 141.48 412.47 141.48 416.81 142.82 416.81 142.82"/><path class="cls-1" d="M416.36,82.45a6,6,0,0,0-4.69-1.73c1.64-1.3,2.83-2,3.58-2a9.68,9.68,0,0,1,1.11,3.68Z"/><polygon class="cls-1" points="421.06 92.19 418.83 92.19 418.83 88.73 421.06 88.73 421.06 92.19 421.06 92.19"/><polygon class="cls-1" points="424.87 112.96 420.62 118.58 418.83 117.29 423.08 111.66 424.87 112.96 424.87 112.96"/><polygon class="cls-1" points="396.59 68.55 390.55 68.55 390.55 66.39 396.59 66.39 396.59 68.55 396.59 68.55"/><polygon class="cls-1" points="409.57 72.88 408.9 74.61 404.64 73.09 404.64 71.36 409.57 72.88 409.57 72.88"/><polygon class="cls-1" points="295.46 12.61 290.98 12.61 290.98 10.45 295.46 10.45 295.46 12.61 295.46 12.61"/><polygon class="cls-1" points="275.55 10.23 267.26 10.23 267.26 8.07 275.55 8.07 275.55 10.23 275.55 10.23"/><path class="cls-1" d="M257.64,17.59q0-.64-2.9-3.68c1.93,0,2.9-.36,2.9-1.08v4.76Z"/><polygon class="cls-1" points="264.35 8.93 259.88 8.93 259.88 6.99 264.35 6.99 264.35 8.93 264.35 8.93"/><polygon class="cls-1" points="246.91 7.85 238.4 5.04 239.07 3.31 246.91 5.91 246.91 7.85 246.91 7.85"/><polygon class="cls-1" points="241.31 18.67 239.74 19.75 236.83 15.43 238.4 14.34 241.31 18.67 241.31 18.67"/><polygon class="cls-1" points="222.06 8.72 220.72 10.02 217.58 6.99 218.93 5.91 222.06 8.72 222.06 8.72"/><polygon class="cls-1" points="147.12 7.38 140.18 7.38 140.18 5.21 147.12 5.21 147.12 7.38 147.12 7.38"/><path class="cls-1" d="M138.17,10q0,.86-3.36,4.11a1.37,1.37,0,0,0,.9.21,4.47,4.47,0,0,0,2.23-.86,3.24,3.24,0,0,1,1.12,2.38,4.3,4.3,0,0,1-.89,2.37,18,18,0,0,0-6.71-1.72,7.44,7.44,0,0,0-2.69.43q2.23-2.39,9.4-6.92Z"/><polygon class="cls-1" points="266.07 19.92 263.83 19.92 262.49 12.78 264.73 12.78 266.07 19.92 266.07 19.92"/><path class="cls-1" d="M191.11,15.16a6,6,0,0,0-4.7-1.73c1.64-1.3,2.84-1.95,3.58-1.95a9.56,9.56,0,0,1,1.12,3.68Z"/><polygon class="cls-1" points="185.29 15.16 176.56 19.27 176.56 17.32 184.62 13.43 185.29 15.16 185.29 15.16"/><polygon class="cls-1" points="253.46 5.58 248.98 8.62 247.86 6.88 252.34 4.07 253.46 5.58 253.46 5.58"/><polygon class="cls-1" points="244.73 16.19 243.17 19.44 241.38 18.57 242.94 15.54 244.73 16.19 244.73 16.19"/><polygon class="cls-1" points="273.68 21 271.44 21 271.44 15.38 273.68 15.38 273.68 21 273.68 21"/><path class="cls-1" d="M156.12,9.05a6.5,6.5,0,0,1-4.48-2.17c-1.49,1.45-2.46,2.17-2.91,2.17l1.35-3.25c1.78,0,3.8,1.08,6,3.25Z"/><polygon class="cls-1" points="184.31 5.58 183.64 7.32 179.39 5.8 179.39 4.07 184.31 5.58 184.31 5.58"/><polygon class="cls-1" points="33.28 68.67 25 67.59 25 65.42 33.28 66.72 33.28 68.67 33.28 68.67"/><path class="cls-1" d="M119,13.18a8,8,0,0,0-1.12,3.24c-1.94-.58-3.06-.93-3.36-1.08a3.93,3.93,0,0,1-2-2.38c0,.87,1,1.3,3.13,1.3A4.68,4.68,0,0,0,119,13.18Z"/><polygon class="cls-1" points="104.25 8.63 99.77 8.63 99.77 6.46 104.25 6.46 104.25 8.63 104.25 8.63"/><polygon class="cls-1" points="84.33 6.26 76.05 6.26 76.05 4.09 84.33 4.09 84.33 6.26 84.33 6.26"/><path class="cls-1" d="M66.43,13.61q0-.64-2.91-3.68,2.91,0,2.91-1.08v4.76Z"/><polygon class="cls-1" points="45.2 61.84 42.96 61.84 42.96 58.59 45.2 58.59 45.2 61.84 45.2 61.84"/><polygon class="cls-1" points="41.39 59.02 39.82 62.27 38.04 61.4 39.6 58.37 41.39 59.02 41.39 59.02"/><polygon class="cls-1" points="23.94 63.13 22.15 63.13 20.58 59.02 22.37 58.37 23.94 63.13 23.94 63.13"/><polygon class="cls-1" points="73.14 4.95 68.67 4.95 68.67 3.01 73.14 3.01 73.14 4.95 73.14 4.95"/><polygon class="cls-1" points="74.86 15.94 72.62 15.94 71.28 8.8 73.52 8.8 74.86 15.94 74.86 15.94"/><path class="cls-1" d="M68.29,21.3a17.42,17.42,0,0,0-7.16,1.3c0-.29.81-1.08,2.46-2.38l2.24-1.73a2,2,0,0,0-1.8-1.3q2.91,0,4.26,4.11Z"/><polygon class="cls-1" points="82.47 17.02 80.23 17.02 80.23 11.4 82.47 11.4 82.47 17.02 82.47 17.02"/></g><g id="Layer_4" data-name="Layer 4"><path class="cls-2" d="M213.16,189.18s-2.2,3.48-11.29,2.23-11.3-4.47-11.3-4.47-.55,4.22-8,2.73c-6.14-1.23-12.84.93-16.07,5.92h-2.63v2h1.59a12.78,12.78,0,0,0-.51,1.55c-1.93,7.46,0,16.91,5.23,18.64a37.21,37.21,0,0,0,15.72,1.73l-2.63,2.67-2.72,1.34.19-.19a11.29,11.29,0,0,1-2.78-.59,11.33,11.33,0,0,0-2.77-.59,22.06,22.06,0,0,0,2,3.07l-.66.33-8-1.44-3.45-4-.18-.21-.27,0-5.61-1,5.07,2.49,2.5,2.9-1,.36-.11-.37-1.59.59.14.38-3.95,1.5c0-.73-.06-1.55-.15-2.47q-.6-6.15-.6-4.76c0,1.32-1.25,2-3.76,2A17.91,17.91,0,0,0,160,222.8c-.93,2.37-1.52,4-1.79,4.76a4.36,4.36,0,0,1-2.37-1c0,.53.49,1.2,1.48,2a4.38,4.38,0,0,0,2.48,1.18,7.58,7.58,0,0,0,.35-2.79l4.31-.81.89,2.42h1.58l-.86-2.73,1.62-.3,9.11,1.94,7.83-3.31,11.76-8.33c4.37-2.06,4.94-2.17,6.07-2.78,1.38-.75-2.75-7.95,1.93-11.43,3.61-2.69,8.21-8.35,8.81-12.43Zm163.43,2.29h-5.27a7.49,7.49,0,0,0,1.67-3.59l3.6,3.59Zm-261.85,116a3.55,3.55,0,0,0-2.18-1,27.88,27.88,0,0,0,.89-3.28c.47-1.9.83-2.86,1.09-2.86a16.29,16.29,0,0,1,.6,4.35,10.3,10.3,0,0,1-2.18,6.55,5.29,5.29,0,0,1,1.78-3.77Zm.19-96.64h-4.17l1.39-3c1.85,1.71,2.78,2.71,2.78,3ZM129,209.07h-1.65V211h-5.15v-2h5l-1.38-5.1h2l1.18,5.16Zm85.87,52h-4v-2h4v2Zm-17.64-2.18h-7.33v-2h7.33v2Zm-23.53,8.22h-1.07v-3h2v2h1.07v5.35h-2v-4.37Zm-40.91,18.63h-2V285l-.45.83-1.39-.6,1.39-3,1.24.46h1.19v3Zm57.9-55a10.14,10.14,0,0,0-2.68.49,10.1,10.1,0,0,1-2.67.5c1.58-3.17,2.38-5.62,2.38-7.33a6.91,6.91,0,0,0,3,1.19v5.15ZM189.21,284l-1.59-.6-1.38,2.77,1.58.8,1.39-3Zm-17.36-27.29v-1.78l-6.94-2.38-.59,1.59,7.53,2.57Zm-61.74,55.59H108.2v-3h2v2.83h1.55L109.55,323h-1.79l2.35-10.76Zm47.71-86.92h-3v-2h3v2Zm-10.74,56.31h-4v-2h3.65l1.16-2.48,1.58.6-1.39,3-1-.39v1.28Zm51.1-53.2c0,2.24-1.05,3.37-3.17,3.37-.79,0-1.18.2-1.18.59a1.56,1.56,0,0,0,.59,1l-2.58-2.18q2-.8,6.34-2.77Zm.6,14.07h-2v-3h2v3Zm3.17,5.55h-1.78v-3H202v3ZM195.41,240l-1.39,3-1.58-.79,1.39-2.78,1.58.59ZM201,253.64h-2v-3h2v3ZM98.12,277.7l-1.59-.6-1.38,2.78,1.58.79,1.39-3Zm1,9.52-2.57-4-1.39,1,2.58,4,1.38-1Zm39.14-73.05-5.55-.6v-1.79l5.55.6v1.79Zm14.62,55.74-.59-1.58-2.58,1.39v.43l-5.94,1.12v2l6.35-1.2v-.93l2.76-1.21Zm-51.14,33.73v-1.59l-3.17,1.39.59,1.58,2.58-1.38Zm80.36,11.48h-2v-3h2v3ZM130,291.33l-3.76,5.16-1.59-1.19,3.77-5.16,1.58,1.19Zm-24.51,6.26-6.54-1.38c0,.53.46,1,1.39,1.38a2.34,2.34,0,0,0,2.37-.39,2.71,2.71,0,0,0,1.59,1,1.71,1.71,0,0,0,1.19-.6Zm-7.53-1.78-1.39-3.36-1.59.79,1.39,2.57Zm-5.75-1.19v-4.16H90.38v4.16Zm90.84-22c-.8-2.52-2-3.77-3.77-3.77a1.79,1.79,0,0,1,1.59,1.18l-2,1.59c-1.45,1.19-2.17,1.92-2.17,2.18a15.08,15.08,0,0,1,6.34-1.18Zm-13.08-8.33-1.59-.6L167,266.51l1.59.79,1.39-3Zm-15.27,13.48v-2h-3v2Zm-63.42,1.78v-4.36a7.16,7.16,0,0,1-5.15-2.38,24,24,0,0,0,5.15,6.74Zm69.8-63-2.77,2.78-1.19-1.19,2.77-2.78,1.19,1.19Zm135.88,65.31-1.19,1L293,280.06l1.19-1.19,2.77,3Zm30.83,40.81h-2V322l-.45.83-1.38-.59,1.38-3,1.25.47h1.18v3Zm25.4-36.6v-4.71h-2v3.51c-1.14-.74-2.65-1.79-4.52-3.13a13.67,13.67,0,0,0,.6,3.37,13.44,13.44,0,0,1,.59,3.17l2.38-2.18a22.26,22.26,0,0,1,3.57,5.55v-5.35a1.82,1.82,0,0,1-.64-.23ZM339.5,327.5a11.45,11.45,0,0,1-2.78-.6,11.57,11.57,0,0,0-2.77-.58,28.5,28.5,0,0,0,2.77,4.16l2.78-3Zm2.56-8.89h-4v-2h3.65l1.15-2.48,1.59.59-1.39,3-1-.39v1.28Zm-48-32.5-1.38-4.36-1.59.59,1.39,3.77Zm30.33,30.33h-7.33v-2h7.33v2Zm-37.26-36.07A18,18,0,0,1,282.8,279c2.51,0,3.77-.66,3.77-2,0-.92.19.66.59,4.76.26,2.77.2,4.63-.2,5.55a4.39,4.39,0,0,1-2.47-1.19c-1-.79-1.49-1.45-1.49-2a4.33,4.33,0,0,0,2.38,1c.26-.79.86-2.38,1.78-4.75ZM347,288.68h-.66l1.31.7-.59,1.59-3-1.59.59-1.58.46.24-.91-2.13,1.38-.6,1.39,3.37Zm-2.18-4.95-1.58-.6-1.39,3,1.58.6,1.39-3Zm0,10.7-2.78-2.58-1.19,1,2.78,2.78,1.19-1.19Zm-2.58,2.77a24.32,24.32,0,0,0-2.48.2,24.17,24.17,0,0,1-2.47.2c-.93,0-1.33-.4-1.19-1.19.39-1.19.46-1.92.19-2.18a2,2,0,0,1-2,.43l1.3,1.86-1.59,1-2.57-4,1.39-1,.77,1.1c.27-.12.63-.29,1.05-.51a6.49,6.49,0,0,1,2.28-.89,42.64,42.64,0,0,0-5.16-6.74c-.52.53-.78,1.58-.78,3.17a10.09,10.09,0,0,0-1.79-2.58,60.57,60.57,0,0,1,6.34-3.76,2.69,2.69,0,0,1-1,2.57l1.78,1.59c1.19-.66,1.79-1.32,1.79-2a6.16,6.16,0,0,0,3.17,1.39,5.14,5.14,0,0,0-2.77,1.08,3,3,0,0,0-1.59,2.28q0,2.58,5.35,7.93Zm-33.09-13.47v-2h-3v2Zm8.72,4.56v-5.15a6.74,6.74,0,0,1-3-1.19c0,1.72-.8,4.16-2.38,7.33a10,10,0,0,0,2.67-.49,10.23,10.23,0,0,1,2.68-.5Zm24.86-10.23v-2.77h-2v2.77Zm-46,62.52V339l-3.17,1.38.6,1.59,2.57-1.39Zm20.7-40.25a5.21,5.21,0,0,0-4.16-1.58c1.46-1.2,2.51-1.79,3.17-1.79a9,9,0,0,1,1,3.37Zm4.16,8.92h-2v-3.17h2v3.17Zm6.74,2.57-1.38,4.37-1.59-.6,1.39-3.77Zm-41.16,19.75V327.4h-1.79v4.17Zm54.37-41a5.5,5.5,0,0,1-2.09-.79,5.49,5.49,0,0,0-2.08-.8q3.18-3,4-3c.52,0,.85.59,1,1.79a4.33,4.33,0,0,1-.79,2.77Zm-41.63-3v-2h-5.34v2Zm11.5,4-.59,1.59L307,291.76v-1.59l4.36,1.39Zm-42.55,51.73h-4.17v-2h4.17v2Zm-41,13.31h-4.16l1.38-3c1.85,1.71,2.78,2.71,2.78,3Zm.59,7.33q-1.38,1.59-4.56,1.59v-2.73l-.69-.31,1.39-3.76h1.78l-1.38,4.55h0a3.83,3.83,0,0,0,1.3,1.06,1.66,1.66,0,0,0,2.18-.4Zm-16.05,4.37v-2h-3v2Zm46-1H256.6l-.24-.87-.07.15-3.57-1.38v-1.59l3.15,1-.66-2.46h2l1.19,5.15Zm10.39-11.82h-3v-1.78h3v1.78Zm-17.64,4.36-5.54-.59v-1.78l5.54.59v1.78Zm-62.83,5.55h-2.77v-1.78h2.77v1.78Zm85.63-3.17L271.15,365,270,363.85l2.78-2.78,1.19,1.19ZM78.83,168.44c0-.68-1.49-2.62-4.45-5.82,3,0,4.45-.57,4.45-1.71v7.53ZM98.19,202.9v-7.19H94.77v7.19Zm-5.82-2.74L90.59,204A3.73,3.73,0,0,1,93,202.73c.17,1.29-.59,3-2.25,5.18a44.14,44.14,0,0,1,22.7,5.08h0l.28.15,19.14,10.32.7-1.49,1.58.59-.79,1.7.58.32,1-.43.51,1.25,7,3.77c-.44-1.27-.82-2.62-1.18-4l-3.63-1.34v-1.58l3.14,1c-.28-1.16-.54-2.28-.77-3.31l-1.18-.47v-1.58l.79.25-1-4.39,2.6-1.68-.36-1c-1.14-3.23-2.31-6.32-3.45-9.42l-19.85-8.84c-1.24-.54-2.4-1.1-3.51-1.66-2.63-.66-5.19-1.37-7.67-2.15v.49H99.11v-2h4c-10.62-4-19.37-9.65-24.82-19,0,0,11.5,10.33,25.14,14.74-7.78-7.21-9.4-14.67-13.51-21.05l1.8,9.9H88.29l-2.05-11.29H89a24.43,24.43,0,0,0-6.32-6.09h-.39v-.25a32.6,32.6,0,0,0-4.55-2.44,15.36,15.36,0,0,0-7.14-1.3l-5,3.49-1.19-1.9a18.25,18.25,0,0,0-8.76,9.1c-2.58,5.78-2.27,10.35.24,15.2a12.73,12.73,0,0,0,1.83-1.52,7.19,7.19,0,0,1-.81,3.31,45.25,45.25,0,0,0,2.82,4,30.66,30.66,0,0,0-9.74,2l-.48.24,0,0c-3.52,1.64-6.11,4.34-8.1,8.82a18.69,18.69,0,0,0-1.62,7.72h.94v3.6h-.53c.08.38.18.75.29,1.13l2.23-2.24a15.82,15.82,0,0,1,1.14-9.12c2.08-4.69,4.89-7,8.63-8.23a17.38,17.38,0,0,0-2.86,4.57c-2.38,5.36-1.62,11.79,2.12,16a22.19,22.19,0,0,0,3.13.29c1.37,0,3.64-2.39,6.84-7.18s5-8.1,5.48-9.93q0,1,2,4.63t2.05,4.61a5.22,5.22,0,0,0-3.76-1.71,126.3,126.3,0,0,0-5.12,14.49,23.81,23.81,0,0,0,9.85-.36c4-.89,7.64-2.14,11.53-3l1.54-2a14.93,14.93,0,0,1,3.56.26,2.85,2.85,0,0,1,.73-2l-2.35-1.17,2.39-4.8,2.74,1ZM81.66,180.6a26.06,26.06,0,0,0-11,2.06q0-.67,3.77-3.77l3.42-2.74a3.09,3.09,0,0,0-2.74-2.05q4.45,0,6.5,6.5Zm288.86,15.89a13.17,13.17,0,0,0-1.71,5.13q-4.44-1.37-5.13-1.7a6.77,6.77,0,0,1-2.32-2.14h-1.22V194.7h5.14v3.08h-3.19a10.21,10.21,0,0,0,3.3.42,7,7,0,0,0,5.13-1.71Zm-4.78-27.71H363l-2.4-6.5,2.74-1,2.39,7.53Zm-15.05,35.94v-8.56h-3.43v8.56Zm-40.36,11.65-4.45-6.85-2.74,1.71,4.45,6.85,2.74-1.71ZM160.49,308.86h.08v.92h2v-.92h3.78l-2.36,3.5h0v.05l-1.12,1.65a6.71,6.71,0,0,0-2.14-.93l.75,3c-1.43,2.09-2.93,4.27-4.52,6.55-2,2.84-4.13,5.87-6.44,9s-4.75,6.44-7.39,9.92c-.54.72-.13,1.38.94,1.49,2,.21,3.94.4,5.95.6-1.79,2.66-3.65,5.43-5.63,8.31s-4.07,5.82-6.27,8.86a3.67,3.67,0,0,1-3.4,1.19c-5.89-1.13-11.78-2.43-17.67-3.75-1.21-.27-1.46-1.07-.63-1.83,5.49-5,10.45-9.81,14.86-14.47s8.49-9.27,12.07-13.47q4.53-5.3,8.32-10.05c2.57-3.2,4.95-6.21,7.14-9a2.48,2.48,0,0,1,1.73-.65Zm23.36,6.37c-.68-1.55-1.32-3.11-1.93-4.7L179.21,309c-2.32,4.75-4.62,9.47-6.94,14.15l-4.78,9.51Q165,337.68,162,343.31a2.89,2.89,0,0,1-2.66,1.23l-6-.49c-1.69,2.71-3.45,5.53-5.32,8.47s-3.86,5.92-5.94,9.07c-.62,1-.14,1.86,1.07,2.05q8.81,1.46,17.65,2.63a3,3,0,0,0,3-1.58c2.86-6.84,5.43-13.1,7.76-18.82s4.46-11,6.33-15.69c1-2.47,2-5,2.92-7.44s2-5,2.95-7.51Zm81.9-6.37h5.85a2.58,2.58,0,0,1,1.75.65l2.64,3.36h-4.27v2h5.15V314l3.59,4.5q3.81,4.71,8.37,10l1.34,1.56-.25.12,1.39,2.58h1.21c2.57,2.93,5.33,6,8.36,9.19,1.33,1.42,2.73,2.86,4.18,4.3h-1.88v3h1.91L302.74,360h1.79l2.18-10.91h-1.55v-2.72q3.9,3.9,8.29,8v1.48l2.55.94c.49.68.11,1.34-1,1.57-5.89,1.26-11.79,2.51-17.66,3.61a3.7,3.7,0,0,1-3.39-1.22q-3.33-4.53-6.28-8.83t-5.61-8.32l6-.58c1.06-.1,1.48-.75.94-1.46-2.64-3.48-5.12-6.78-7.4-9.92s-4.43-6.17-6.41-9c-3.53-5-6.64-9.61-9.43-13.75Zm-12.87.1q1.86,3.82,3.73,7.62l-.75,1.05,2,1.54,1.92,3.88q2.2,4.45,4.75,9.51c1.69,3.34,3.54,6.88,5.49,10.63a2.87,2.87,0,0,0,2.65,1.22l6-.48c1.66,2.69,3.42,5.5,5.31,8.43s3.82,5.94,5.93,9.08c.63.94.16,1.85-1.07,2-5.47.86-10.95,1.71-16.4,2.43-.12-1-.18-1.27-.18-.76a1.62,1.62,0,0,1-.2.81l-.87.11a3,3,0,0,1-3-1.59q-4.32-10.16-7.78-18.73l-1-2.46h2.69v-2H258.6c-1.63-4-3.12-7.73-4.5-11.2-1-2.45-2-4.92-2.95-7.4s-2-5-2.91-7.48c.67-1.55,1.32-3.11,1.9-4.68l2.74-1.59Zm-5.73,8.52a41.87,41.87,0,0,1-5.59,8.55c.84,3.1,1.69,6.21,2.53,9.3s1.71,6.18,2.57,9.26c.23.81-.44,1.51-1.5,1.56-2,.09-4,.18-5.95.25l.65,3.23h.83l1.19,5.16h-1l.26,1.25c.68,3.39,1.42,6.94,2.2,10.68a2.55,2.55,0,0,0,2.64,1.87h0l.41-.89,1.59.6-.08.14,3.58-.29V368l.35.11c3.92-.34,7.85-.73,11.78-1.13a1.53,1.53,0,0,0,1.44-2.13c-2.7-6.91-5.13-13.2-7.32-18.94l-1-2.63h-3v-2H256c-1.5-4-2.89-7.68-4.18-11.13q-2.34-6.31-4.7-12.7ZM226.86,336.7a35.32,35.32,0,0,1-9.63,1.06c0,5,.1,10,.14,14.94q0,3.41.07,6.81l6.34.57a25.33,25.33,0,0,0-6.31,1.11l.08,6.43a2.14,2.14,0,0,0,2.23,2.06c4.93-.07,9.86-.22,14.79-.42q2.25-1.41,4.14-2.35a2.72,2.72,0,0,1-.49,2,1.79,1.79,0,0,0,1.09-2c-.63-3.59-1.25-7-1.8-10.26h-2.43v-2h2.08l-1.39-8.24-6,.16a1.9,1.9,0,0,1-2.07-1.46q-.45-4.24-.87-8.49Zm-12,1.07c-.06,5-.14,10-.18,15,0,2.76-.06,5.52-.1,8.29q-.76.67-1.68,1.65l1.67-.57c0,1.85,0,3.71-.05,5.56a2.13,2.13,0,0,1-2.24,2.05c-5.45-.08-10.91-.2-16.35-.42a34.31,34.31,0,0,1,4.54-7.71,20.62,20.62,0,0,1,7.28-6.15q-1.66.21-4.18-1.73c1.7-2.19,2.47-3.93,2.31-5.24a4.16,4.16,0,0,0-2.76,1.64c-1,1.06-1.45,2-1.36,2.7a14.93,14.93,0,0,0-3.56-.26l-3.76,4.87.19-1.13c.58-3.42,1.15-6.64,1.69-9.71l6,.16a2,2,0,0,0,2.07-1.51q.42-4.24.86-8.51a35,35,0,0,0,9.64,1.07Zm-20.32,31.44a8.45,8.45,0,0,0,.83-2.82,6.88,6.88,0,0,1,1-3l4.22-4.49c2-2.14,3-3.48,2.88-4.05q-2.13-1.14-5,.36c-.26.11-1.59,1-4,2.7l-1.59,9.17a1.83,1.83,0,0,0,1.78,2.14Zm-4-43.16a42.36,42.36,0,0,1-5.57-8.57c-1.59,4.28-3.16,8.52-4.72,12.77-1.78,4.76-3.76,10-6,15.8s-4.63,12.05-7.31,19a1.54,1.54,0,0,0,1.44,2.15c5.87.61,11.78,1.13,17.66,1.56a2.5,2.5,0,0,0,2.63-1.86c.75-3.75,1.51-7.33,2.19-10.72s1.37-6.63,2-9.69c-2-.06-4-.12-6-.22-1.07-.05-1.74-.74-1.51-1.57.86-3.08,1.69-6.17,2.53-9.28s1.71-6.21,2.58-9.34Zm28.43-136.87s2.2,3.48,11.29,2.23,11.3-4.47,11.3-4.47.55,4.22,8,2.73,15.7,2,17.63,9.45,0,16.91-5.23,18.64a37.21,37.21,0,0,1-15.72,1.73l2.63,2.67,6.77,3.37,8-1.44,3.45-4,.18-.21.27,0,5.61-1L268,221.3l-2.5,2.9,8,3-9.05-1.7-9.12,1.94-7.82-3.31-11.76-8.34c-4.37-2.05-4.94-2.16-6.07-2.77-1.38-.75,2.75-7.95-1.93-11.43-3.61-2.69-8.21-8.35-8.81-12.43ZM162.7,175.83c-2.2,3.36-5,7.5-7,10a15.46,15.46,0,0,0-3.28,9.77h-.66v2h.68c.19,4.92,1.12,9-3,10.85-1-3-2.49-6.48-4-10.85h3.77v-2h-4.44c-.71-2.11-1.43-4.4-2.13-6.91-2.21-8-1-16.46,1.2-25.05,2.87,1.05,5.36,2.15,6,3l.77,1.13,1.24.39.47,1.21c-2-.23-3-.88-3-2a6.21,6.21,0,0,0,3.08,3.76q.68.34,5.13,1.71a5.44,5.44,0,0,1,.2-1.37l.1,0,4.85,4.29Zm125.55-12.2c-2.87,1.05-5.35,2.15-6,3l-.78,1.13-1.24.39-.47,1.22-2.15,1.67-3.36.48-4.86,4.29c2.21,3.36,5,7.5,7,10,7.29,9.21-.94,19.44,6.25,22.6,1.67-4.73,4.39-10.91,6.83-19.74,2.22-8,1-16.46-1.2-25.05Zm-72.2-60s21.07-2,49.72,17.41a45.26,45.26,0,0,1,9.84,9.25,40.52,40.52,0,0,0-9.43,7.21l-4.67-6-.62-7.26-6.95-5.75,5,7,.17,5.38-8.62-1.73-10.3-6-18.45,1.2,18,.48,9.82,7.19,6.95,1,3.59,5.51-5,3.83-1.7,5.67-4.89-6.51,1.91,6.44,1.89,5.22,5,4-10.06,6-11.5-1.67-4.43-5.32-2.58-12.23-7.55-6,5.63,6.52,1.35,8.28-8.24-2.28L228,155l6.94,9.82,13.19,1.2,8.86-1.2,1.91,3.83,6.23,1.45,1.81,4.35c3,9.23,9.22,15.1,7.77,22.3-2.38,11.77-.85,14.58,8.68,20.75-.46,2.1-2,9.08-3.44,11.81a26.94,26.94,0,0,1-4.31,5.87c-10,6.49-24-4.6-37.57,8.8,0,0,5-2,8.82-1a32.55,32.55,0,0,0-2.76,8.95c-.67,4.21.28,4.22.1,7.71l-1.59.58-.05-1.17-4.4,2.24c-.8.41-1.64.9-2.4,1.39l-.41-1.61H233a9.3,9.3,0,0,0-4,1.4,4.45,4.45,0,0,0-1.2,1,5,5,0,0,0-2.38-1l-.76-.11-.72.23a7.7,7.7,0,0,0-2.68,1.49,6,6,0,0,0-4.78-2.52h-.74a6,6,0,0,0-4.78,2.52,7.7,7.7,0,0,0-2.68-1.49l-.72-.23-.77.11a5,5,0,0,0-2.37,1,4.6,4.6,0,0,0-1.2-1,9.3,9.3,0,0,0-4-1.4h-2.44l-.41,1.61c-.76-.49-1.6-1-2.4-1.39l-4.41-2.24,0,1.17-1.59-.58c-.18-3.49.76-3.5.1-7.71A32.55,32.55,0,0,0,185.2,243c3.86-1,8.81,1,8.81,1-9.72-9.59-19.63-6.63-28.16-6.56-.21-.19-.42-.42-.65-.67-.92-1.06-1.59-1.59-2-1.59a7.79,7.79,0,0,1,1.57,2.25,21.19,21.19,0,0,1-3.51-.35c.94-1.7,1.71-3.09,2.29-4.18l-.89.41-.29.11a23.64,23.64,0,0,1,.2-4.56l-3.76,2,2.78,2.79a4.39,4.39,0,0,1-.82.07,29.23,29.23,0,0,0-9.08-5.35,83.41,83.41,0,0,1-3-10.83c9.53-6.17,11.05-9,8.68-20.75-.63-3.15.2-6,1.59-9.09v1.83h3v-2H159c1.78-3.85,4.43-7.93,6.11-13.06l1.8-4.35,6.23-1.45,1.92-3.83L184,166l13.18-1.2,7-9.82,8.15-4.55L204,152.74l1.35-8.28,5.63-6.52-7.55,6-2.57,12.23-4.44,5.32-11.5,1.67-10.06-6,4.95-4,1.89-5.22,1.9-6.44L178.71,148l-1.7-5.67-5-3.83,3.6-5.51,6.95-1,9.82-7.19,18-.48-18.45-1.2-10.3,6L173,130.86l.17-5.38,5-7-6.94,5.75-.62,7.26-4.67,6a40.37,40.37,0,0,0-9.44-7.21,45.42,45.42,0,0,1,9.85-9.25c28.65-19.39,49.72-17.41,49.72-17.41Zm-56.65,133v-.93c-.58-.58-1.71-.9-3.41-1l.46.5a13.27,13.27,0,0,0,3,1.41Zm56.65,8c-2.64,2.67-5.92,4.11-7.09,3.47-1.37-.74-6.75-4.1-5.51-11.93s7-10.82,8.26-17.77a14.26,14.26,0,0,1,4.34-8.44,14.2,14.2,0,0,1,4.33,8.44c1.24,6.95,7,9.94,8.26,17.77s-4.13,11.19-5.5,11.93c-1.18.64-4.45-.8-7.09-3.47Zm0,20,.37-.22a3,3,0,0,1,2.55,1.8c.9,1.8,2.07,5.22,2.07,5.22a8.25,8.25,0,0,1,1.93-5,4.12,4.12,0,0,0,1,.78c.27.13,1.26.46,3,1a3.37,3.37,0,0,1,.15-.91,14.53,14.53,0,0,1,1.51,4.9s.14-6.34,1.93-7.33a6.37,6.37,0,0,1,2.41-1,42,42,0,0,1,1,5.41,11.4,11.4,0,0,1-.41,4.53s2.2-2.86,2.2-4.66.56-3.35,1.59-4,2.34-1.36,2.34-1.36.14,2.92.21,4.47-.07,3.48-.07,3.48,1.44-3.23,1.44-4.78v-3.17l2.21-.81s1.58,5.84.27,7.21l-2.27,2c3.18-.72,2.82.24,2.89,2.15.06,1.57.16,3.56-.49,3.63s-2.06-2.18-2.06-2.18-.2,4.23-1.79,4.85-3,1.68-3.16,1.24,1-4.35.55-6-1.1-2-1.72-2.17a11.32,11.32,0,0,0-1.65-.12s2.06.68,2.06,2.42-.69,5.78-2,6.09-2.2-.25-2.61-2-.56-4.1-1.45-5a8.22,8.22,0,0,0-1.45-1.18,13.57,13.57,0,0,1,1.31,5.59c-.14,2.61-1,4.11-2.13,3.79a16.2,16.2,0,0,1-3.17-1.73s.48-4.11,1-5a9.8,9.8,0,0,1,.83-1.18s-2.9.25-3.72.25-1.51-2.3-1.51-2.3l-.56,3.35h3.44s-.34,4.29-1.24,5.53a2.23,2.23,0,0,1-3.1.63c-.61-.56-1-5.6-1-5.6-1.64,8.69-3.92,8.69-5.57,0,0,0-.34,5-1,5.6a2.23,2.23,0,0,1-3.1-.63c-.9-1.24-1.24-5.53-1.24-5.53h3.44l-.55-3.35s-.68,2.3-1.51,2.3-3.72-.25-3.72-.25a9.8,9.8,0,0,1,.83,1.18c.55.87,1,5,1,5a16.2,16.2,0,0,1-3.17,1.73c-1.1.32-2-1.18-2.13-3.79a13.57,13.57,0,0,1,1.31-5.59A8.22,8.22,0,0,0,202,275c-.9.87-1,3.23-1.45,5s-1.3,2.3-2.61,2-2-4.35-2-6.09,2.06-2.42,2.06-2.42a11.32,11.32,0,0,0-1.65.12c-.62.12-1.3.5-1.72,2.17s.69,5.6.56,6-1.59-.62-3.17-1.24-1.79-4.85-1.79-4.85-1.45,2.24-2.07,2.18-.54-2.06-.48-3.63c.07-1.91-.28-2.87,2.89-2.15l-2.27-2a3.55,3.55,0,0,1-.52-2.38h1l-.59-3.22c.19-.95.37-1.61.37-1.61l2.21.81v3.17c0,1.55,1.44,4.78,1.44,4.78s-.14-1.93-.07-3.48.21-4.47.21-4.47.53.28,1.19.66v4.35h2V266a6,6,0,0,1,.75,3.15c0,1.8,2.21,4.66,2.21,4.66a11.5,11.5,0,0,1-.42-4.53,43.12,43.12,0,0,1,1-5.41,6.37,6.37,0,0,1,2.41,1c1.79,1,1.93,7.33,1.93,7.33,1-6.59,3.71-7,3.71-7,3.72,1.18,3.86,6.15,3.86,6.15s1.17-3.42,2.07-5.22a3,3,0,0,1,2.55-1.8l.37.22Zm7.3,1.49a7.27,7.27,0,0,0,1.62.14,6.13,6.13,0,0,0,1.26-.12,2.57,2.57,0,0,0-1.34-.86,4.49,4.49,0,0,0-1.54.84Zm-7.3,29.29s-2.7-2.15-9.62-1.54-15.06-2.61-15.06-2.61,2.77,4,10.15,5.69,10.14,2.3,11.83,6.3a54.87,54.87,0,0,1,2.7,10.08,54.87,54.87,0,0,1,2.7-10.08c1.69-4,4.46-4.61,11.83-6.3s10.14-5.69,10.14-5.69-8.14,3.23-15.06,2.61-9.61,1.54-9.61,1.54ZM262.93,154a42.4,42.4,0,0,1,7.47-5.87c.39-2.86,2.21-9.21,10.44-13.37,0,0-5.42,4.28-5.68,10.72,1.42-.7,2.84-1.33,4.28-1.9a16.2,16.2,0,0,1,2.5-5.86l-1.27-.64,2.74-4.79,2.39,1-.23.5a22.79,22.79,0,0,1,4.13-2.65S284.25,135.48,284,142c1.37-.43,2.75-.82,4.12-1.17.44-2.92,2.33-9.13,10.42-13.22,0,0-6.23,4.92-5.64,12.14,1.28-.25,2.55-.48,3.82-.7.94-3.22,3.43-7.9,10-11.2,0,0-5.31,4.2-5.65,10.53l4.57-.63c.75-3.2,3.06-8.45,10.19-12.05,0,0-5.83,4.59-5.68,11.43,1.37-.2,2.72-.39,4-.61.63-3.14,2.81-8.72,10.28-12.5,0,0-5.92,4.67-5.66,11.6,1.31-.3,2.57-.64,3.77-1,.63-3.14,2.81-8.72,10.28-12.5,0,0-5.33,4.21-5.66,10.57,5-2.71,8.31-7.09,8.92-14.8-4.52,3-13.58,5.35-29.95,7.41-32.26,4.06-43.48,18.42-43.21,28.76Zm-93.76,0a42.4,42.4,0,0,0-7.47-5.87c-.4-2.86-2.21-9.21-10.44-13.37,0,0,5.42,4.28,5.67,10.72q-2.12-1-4.27-1.9c-.65-3.15-2.86-8.67-10.27-12.41,0,0,5.46,4.31,5.68,10.79-1.38-.43-2.75-.82-4.12-1.17-.44-2.92-2.33-9.13-10.42-13.22,0,0,6.23,4.92,5.64,12.14-1.28-.25-2.55-.48-3.82-.7-.94-3.22-3.44-7.9-10-11.2,0,0,5.31,4.2,5.66,10.53l-4.57-.63c-.74-3.2-3.06-8.45-10.19-12.05,0,0,5.82,4.59,5.68,11.43-1.38-.2-2.72-.39-4-.61-.59-2.95-2.56-8.08-9-11.82v-1.19h-3.43v3.21a19.37,19.37,0,0,0-2.5-2.3l.11-.23-.85-.31a24.29,24.29,0,0,0-3-1.78,13.35,13.35,0,0,1,1.18,1.11l-.1,0-1.79,3.57A20.29,20.29,0,0,1,96,117.83c4.51,3,13.57,5.35,29.94,7.41,32.26,4.06,43.48,18.42,43.22,28.76Zm-68.83-24.88a17.12,17.12,0,0,0,4.59,3.51,13.89,13.89,0,0,0-2.51-7l-1.73,3.7-.35-.17Zm6.67-.52a16.3,16.3,0,0,1,2.55,6c.56.18,1.15.35,1.74.51v-2h1.84a15.79,15.79,0,0,0-4.23-7.89v3.44ZM93.7,31.2a53.18,53.18,0,0,1,1,7.23l.83-.32.33,1a44,44,0,0,0-1.25-5.57c6.48,13.91,5.79,27.27,2.31,39.65a8.52,8.52,0,0,0,6.79-1.58c-2.41,3.69-5.32,4.77-7.78,4.86q-.78,2.39-1.65,4.72a10.3,10.3,0,0,0,7.74-2.16c-2.84,4.31-6.34,5.51-9.12,5.65-.68,1.68-1.4,3.34-2.13,5a10.25,10.25,0,0,0,8.62-2c-3.27,4.94-7.39,5.8-10.3,5.64Q88,95.69,86.94,98a10.18,10.18,0,0,0,2.76.6,12.25,12.25,0,0,0,.08-1.31c.81.49,1.56.89,2.23,1.21a10.32,10.32,0,0,0,4.79-2.13,14.51,14.51,0,0,1-2.49,2.92,3.23,3.23,0,0,0,.6,0v3.3c4.93-10.59,14.31-26,8.18-49.44l-3.48-.47V49.27l2.47.4A92.34,92.34,0,0,0,93.7,31.2ZM89,101.83a45.22,45.22,0,0,1-2.33,6,10,10,0,0,1-4.31-.39c.86-1.84,1.77-3.73,2.71-5.66a11.36,11.36,0,0,0,3.93,0Zm-1.14,7.84a10.71,10.71,0,0,1-7.19,1.57c-.91,2.11-1.72,4.15-2.37,6.12a10.24,10.24,0,0,0,9.16-1.86c-3.24,4.9-7.32,5.78-10.23,5.64a24.7,24.7,0,0,0-.69,6.4A10.19,10.19,0,0,0,86,124c-2.15,5.4-5.91,7.12-8.78,7.58a14.19,14.19,0,0,0,3.68,5.86,10.22,10.22,0,0,0,6.56-6.95c.2,4.68-1.54,7.6-3.48,9.4A32.81,32.81,0,0,0,90,143c1.79.72,3.62,1.4,5.46,2.07a3.28,3.28,0,0,0,.61-.49l-.29.6c14.17,5.08,29.48,8.73,40.79,12h.08v0c8.51,2.48,14.74,4.74,16.45,7.24a14.54,14.54,0,0,0,7.41.49c-8.11-12.21-30.39-14.25-47.86-19.56v2.43h-3.42v-3.54c-15.06-5.22-25.2-13.8-16.68-35.51l.07-.25c-.71.14-1.49.34-2.35.59s-1.71.46-2.43.61Zm7-65.05C94.08,64,83,80.51,74.69,94.86a13.74,13.74,0,0,0,3.07.54L73,100.54l-.85-1.11c-7,12.85-10.26,23.88.51,33.59C56.22,112.35,96.86,81.24,96.45,45.64H95.24l-.37-1ZM338.4,31.2a53.15,53.15,0,0,0-.58,19.52l-1.08-.31-.94-.27a44.91,44.91,0,0,1,1.64-16.55,51.49,51.49,0,0,0-4.55,15.87,7.42,7.42,0,0,0-.94-.08c.22.45.49.93.79,1.45a62,62,0,0,0,2.39,22.41,8.52,8.52,0,0,1-6.79-1.58c2.41,3.69,5.33,4.77,7.78,4.86.31,1,.64,1.93,1,2.89l-2.07.78.41,1.1A10.36,10.36,0,0,1,330,79.08a12,12,0,0,0,6.51,5.2l.89,2.41H340c.43,1,.87,2,1.32,3a10.25,10.25,0,0,1-8.62-2c2.85,4.31,6.35,5.51,9.13,5.64v.39l1.44.19.82,1.72c-.66,0-1.38,0-2.17,0l-2.14,2.76a10.29,10.29,0,0,1-4.44-2.07,13.63,13.63,0,0,0,3.29,3.56L336.92,102c-6.42-13.62-19.43-35,1.48-70.84Zm2.37,70c-.78.51-1.87,1.24-3.25,2.18a30.88,30.88,0,0,1,2,5.39c.47,1.18.86,2.31,1.21,3.41l2.79-3a13.86,13.86,0,0,1-3.2-3.49,10.3,10.3,0,0,0,4.53,2.08l1.08-1.15c.85-.91,1.59-1.74,2.22-2.48L347,101.8a10.91,10.91,0,0,1-6.26-.65Zm8.75,5.86.21.45c-.29.09-.59.17-.87.23l.66-.68Zm-3.26,3.67a10.9,10.9,0,0,0,5.17.56c.91,2.11,1.71,4.15,2.36,6.12a10.22,10.22,0,0,1-9.15-1.86c3.24,4.9,7.31,5.78,10.22,5.64a24.3,24.3,0,0,1,.7,6.4,10.22,10.22,0,0,1-9.48-3.57c2.16,5.4,5.92,7.12,8.79,7.58a14.19,14.19,0,0,1-3.68,5.86,10.25,10.25,0,0,1-6.57-6.95c-.19,4.68,1.54,7.6,3.49,9.4a33.14,33.14,0,0,1-6,3.09c-26.06,10.39-58.8,15.18-63.1,21.46a14.54,14.54,0,0,1-7.41.49c15-22.53,78.15-10.43,70.41-48.14a62.7,62.7,0,0,1,3.83-5.51l.45-.57Zm-7.72-56-1.8,1.93h0c2.46,12,8.65,23.47,14.45,34a7.91,7.91,0,0,1,2.7-1.76c-6-10.26-12.57-21.59-15.34-34.19ZM355,90.71a10.63,10.63,0,0,1-.55,1.65h0v3.09l-.68-.09c1,1.74,1.87,3.46,2.73,5.15a5.43,5.43,0,0,0,1.86.12c-.48.23-.95.47-1.42.73,3.26,6.45,5.74,12.5,6.3,18.07h3.1v.64c.64-8.72-4.93-18.42-11.37-29.36Zm10.94,32.14A19.82,19.82,0,0,1,359.47,133a17.46,17.46,0,0,0,3.87-10.17ZM353.18,299.6c-2.58,2.86-5.9,4-10.11,4.59l-2.32-3,5-.37a32.23,32.23,0,0,0,7.45-1.24ZM61.82,180.82c-2.61-3.36-4.49-6.33-5.08-9.58l-.06.13L53.94,170l2.39-4.8.69.26a20.45,20.45,0,0,1,1-2.93,15.65,15.65,0,0,1,9-8.4,15.93,15.93,0,0,0-3.25,4.74c-2.78,6.25-1.56,10.64,1.73,15.53V171H63.72v-5.14h3.43v3.45H69v9.24h-.32l2,2.55-5,.37c-1.08.08-2.12.18-3.11.31l-.75-1ZM269.31,291.49l3,1.34v-1.61h3l-4.45-2a23.15,23.15,0,0,1-1.5,2.25Zm3.84,1.71h5.29v-.57l1.93.86-.49,1.24a3,3,0,0,0,1.37-.85l1.08.48a60.29,60.29,0,0,1,13.89,8.28,4.7,4.7,0,0,1-2.33.51,6.93,6.93,0,0,1-1.58-.15l-.13-.09h1.64v-1.79h-3V302a64.23,64.23,0,0,0-9.6-5.19l-8.1-3.61Zm21.4,11.51a37.57,37.57,0,0,1,7.22,7.82l.45-.66c.42-.62.79-1.2,1.13-1.73l-.36-.48a39.68,39.68,0,0,0-6.47-6.78,6.1,6.1,0,0,0-.65,2.25l-1.32-.42Zm9.12,10.85c1.21,2.13,2.21,4.23,3.21,6.27l.45-.52c-.37-.43-.81-.93-1.35-1.5,1.43,0,2.26-.23,2.51-.68a76.39,76.39,0,0,0-3.64-6.76c-.46,1.19-.86,2.26-1.18,3.19Zm3.25,6.33c.38.78.76,1.54,1.16,2.31a1.36,1.36,0,0,0,.44-1.21,2.73,2.73,0,0,0-.31-.55,1.76,1.76,0,0,0-1.29-.55Zm1.19,2.35c2.72,5.15,6.08,9.79,14,13.33a14.82,14.82,0,0,0,2,.72l2.19-1.1.6,1.59-.09,0c7,.71,14.18-3.41,17.38-10.63s2-12.37-2.29-18.59l-3.19.6v-2l1.93-.36-.52-.68c1.65-.13,3.18-.3,4.61-.55l2.5-1.35.26.72c5-1.43,8.47-4.26,11-9.87a18.61,18.61,0,0,0,1.42-4.85l-.61-.21.6-1.59.19.06a17,17,0,0,0-5.1-13.22l-.6,1.06v-1.59a15.52,15.52,0,0,0-3.72-2.34,29.21,29.21,0,0,0-8.58-2.46l-.52,2.72h-2l.56-2.87c-4.52-.16-8.44,1-12.59,2.16h0c-5.15,1.47-10.65,3-18.12,2.17l1.05.51.09-.25,3,1.38-.08.16c2.46,1,4.89,1.8,7.19,2.48v-2.85a5.12,5.12,0,0,0,2.37,3.17,1.7,1.7,0,0,0,2.19-.4,3.88,3.88,0,0,1-1.28,1,79.53,79.53,0,0,0,10,1.89c-8.37,1.75-16.44.43-24.43-2.79l-.51.95-1.59-.79.48-.84a96.68,96.68,0,0,1-14.27-7.95l-.21.14-.39-.54-.06,0L277,263.26a29.26,29.26,0,0,0-.78,3.2,3,3,0,0,1-.91-3.95l-1.35-.6,0,.06v12l0-.07,1.39.59L274.12,277a22.75,22.75,0,0,1-1.7,9l15.69,4.71a55.53,55.53,0,0,1,17.16,11.24l6.39-3.19.6,1.58-5.83,2.83c.82.9,1.6,1.85,2.35,2.84a49.4,49.4,0,0,1,4.48,7.47h1.25v1.78h-.35c.87,1.75,1.75,3.53,2.77,5.33a24.29,24.29,0,0,0,5.91,7.21l.51-.7,1.6,1.19-.52.69a29.2,29.2,0,0,0,4.59,2.49,12.82,12.82,0,0,0,9.51.38c-3.94,4-9.85,5.71-15.29,3.28a23.71,23.71,0,0,1-12.09-10.88l-.4-.71c-1,.3-1.89.53-2.64.71Zm.65-4.58-.19-.38v.61l.19-.23ZM41.61,208.91l2-2a12.91,12.91,0,0,0,6.67,6.84,25,25,0,0,0,8.63,2.33,17.54,17.54,0,0,0-.31,2.66,28.51,28.51,0,0,1-9.41-2.55,15.54,15.54,0,0,1-7.58-7.27ZM63,218.69a7.7,7.7,0,0,1-.86-2.62,28.88,28.88,0,0,0,4.3-.64c5.18-1.16,9.66-2.89,14.94-3.57l-.59.76,1.21-.83.74-.08a38.15,38.15,0,0,1,6.23,0c-.38.45-.82,1-1.33,1.5l-1,1.06c-9.73-.1-16.06,3.74-23.64,4.46Zm25.84-4.37a22.35,22.35,0,0,1,2.51-2.39,55.51,55.51,0,0,1,11,2.76,18,18,0,0,0-2.17,2,45.84,45.84,0,0,0-11.39-2.36Zm11.65,2.45c1.48-.52,2.84-1,4.09-1.3,1.12.43,2.24.88,3.35,1.34l3,1.26v1.72a7.92,7.92,0,0,0,3-.48l8.72,3.63c-1,.58-2,1.24-3.1,2l-12.7-5.64a68.28,68.28,0,0,0-6.36-2.49Zm20.93,9a2.69,2.69,0,0,1,.63-1.38,29.07,29.07,0,0,1,2.31,2.69l-2.94-1.31Zm5.79,2.58v-.18a3,3,0,0,1,1.59-2.29l.32-.21,15.44,6.43c.15.32.29.63.44.92l.24.44-.52,2.67-17.5-7.78Zm19,8.45,1.65.73c-.39-.52-.77-1.05-1.13-1.58l-.17.85Zm-18.88-11.87a6.45,6.45,0,0,1-.72.46l-1.6-1.43,2.32,1ZM51.83,207.06q7.8.72,7.79,4.26v.12a31.88,31.88,0,0,1-3.57-1.36,12.78,12.78,0,0,1-4.22-3ZM78.92,299.6c2.57,2.86,5.89,4,10.11,4.59l2.31-3-5-.37a32.14,32.14,0,0,1-7.45-1.24ZM370.28,180.82c2.58-3.33,4.45-6.28,5.06-9.47h.42v-3.43h-.24a17,17,0,0,0-1.49-5.39,15.65,15.65,0,0,0-9-8.4,16,16,0,0,1,3.25,4.74l-2.42-2.59-2.05,2.06,4.79,4.79.88-.73a12.89,12.89,0,0,1,.08,5.52h-3v3.43h1.79a33.86,33.86,0,0,1-3.81,5.81l-3.06,3.94,5,.37c1.08.08,2.12.18,3.11.31l.75-1ZM162.79,291.5a24.68,24.68,0,0,1-1.51-2.26l-3,1.34-2.15,2.15-.83-.83-5.52,2.46c-8,3.56-15.36,8.21-20.67,15.3-3.54,4.72-5.32,9.58-8.15,14.58a23.75,23.75,0,0,1-12.09,10.88c-5.45,2.43-11.35.68-15.29-3.28a12.82,12.82,0,0,0,9.51-.38,23.71,23.71,0,0,0,12.09-10.88c2.83-5,4.62-9.86,8.15-14.58,4.59-6.12,10.71-10.43,17.44-13.78a22,22,0,0,1-1.79-2.85,11.24,11.24,0,0,1,2.77.59,12.37,12.37,0,0,0,2.72.6L159.68,286a23,23,0,0,1-1.71-8.61,1.87,1.87,0,0,1-.34,0c-.78-1.19-1.51-1.78-2.17-1.78.25-.09,1.16-.5,2.71-1.24V262l0-.06-19,8.44c-2.43,1.63-4.86,3.15-7.29,4.53h1.47L132,279.24l-1.59-.59,1.36-3.69c-1.61.91-3.22,1.77-4.83,2.55h2.55v2h-7a51.45,51.45,0,0,1-7.87,2.48q1.91.11,3.64,3.37l2.18-2.38c.79.79,1.18,2.31,1.18,4.56a4.39,4.39,0,0,0-1.39-2.38q-4.55,1.58-7.13,2.18a1.39,1.39,0,0,0,.5-1.28,2.52,2.52,0,0,0-.31-.55,1.85,1.85,0,0,0-1.38-.55l.5-.58c-.36-.42-.81-.93-1.34-1.5q2.11,0,2.49-.66a42.42,42.42,0,0,1-6,.75l0,.31a4.25,4.25,0,0,0,2.38,4.16,2.28,2.28,0,0,0-2.58,2.58,5.71,5.71,0,0,1-1.78-4.17,11.77,11.77,0,0,1,.29-2.18l.14-.66a36.36,36.36,0,0,1-7.71-.78,75.56,75.56,0,0,0,7.76-1.36c-.41-1-1.9-1.63-4.45-1.85v.28h-2v-.38h-.59c0-.28.19-.4.59-.36v-2.79l-3-1,.59-1.59,6.94,2.38v1.78l-2.58-.89v2.5a13.65,13.65,0,0,0,1.79.17q1.18,0,4-4.16l.67-1c-6.33-1.63-11.71-3.89-18.73-2.83l1.66,2.16-1.58,1-2-2.78a32.16,32.16,0,0,0-5.8,2,15.6,15.6,0,0,0-3.88,2.49h4.34v2H76.74v-1.22a16.59,16.59,0,0,0-2.33,3l.35.79H74a18,18,0,0,0-.36,15.63c3.57,8,9.09,10.36,18.34,11.05-5.69,7.33-7.64,13-4.08,21,3.94,8.85,13.83,13.06,22.08,9.39,21.33-9.48,9.69-26.88,40.9-40.76l11.94-5.31Zm-52.54-17a37.34,37.34,0,0,0,12.42.69c-1,.51-2.09,1-3.14,1.43v-.07h-4v1.59c-2.63.93-5.17,1.66-7.46,2.23.46-1.48,1.18-3.43,2.14-5.87Zm3.34,7.71.81-.17-.81.93v-.76Zm258.8-99.72c5.69-7.33,7.64-13,4.08-21-3.93-8.85-13.82-13.06-22.07-9.39-.54.24-1.06.49-1.56.74q.21,1.11.93,8.45c.45,4.79.34,8-.35,9.58h-.21l1.43.61L353,175l-1.91-.95,1.88-3.28a4.15,4.15,0,0,1-.48-.11,37.89,37.89,0,0,1-7.44,8.07q3.4.84,7.48,4.91-3.44,0-6.85-3.42c-2.28,2.28-3.77,3.42-4.45,3.42l1.17-2.93c-5.88,4.08-12.94,6.95-20.73,9.18-.52.55-1.1,1.14-1.73,1.78a2,2,0,0,0,1.37.34,6.69,6.69,0,0,0,3.42-1.37,5.24,5.24,0,0,1,1.71,3.76A7,7,0,0,1,325,198.2q-6.16-2.73-10.27-2.74a11,11,0,0,0-4.1.69,38.31,38.31,0,0,1,4.78-4.23l-1.95.9-19.86,8.84c-1.13,3.1-2.3,6.19-3.44,9.42l-.36,1,2.61,1.68-1.2,5.44a99.78,99.78,0,0,1-2.6,10l5.45-2.94v-1.79h3.32l2.31-1.25h0l1.71-2.39,1.17.84,11.68-6.3-2.58,0c1.83-1.82,2.74-3.31,2.74-4.45a4.46,4.46,0,0,0,1.66,3.49l2.28-1.23a44.28,44.28,0,0,1,25.19-5.09c.84.07,1.65.17,2.44.3l-3.79-5.18,2.39-1.71,6.06,7.87c3,.77,6,1.71,9.2,2.42.59.13,1.17.25,1.74.35l.71-1.92,6.16,2.12a26.6,26.6,0,0,0,7.57-2.23,13.3,13.3,0,0,0,7.71-10.82v-2.5l.1,0a15.8,15.8,0,0,0-1.36-5.77,17.36,17.36,0,0,0-2.85-4.57c3.71,1.21,6.52,3.51,8.6,8.14l2.39-1.19c-3.56-7.87-9.07-10.18-18.25-10.86ZM391.63,196A17.55,17.55,0,0,1,389,211.3a29.38,29.38,0,0,0-1.36-2.74,14.23,14.23,0,0,0,1.53-3.74h2.48v-2.4h-2.07a15.89,15.89,0,0,0-.41-5.22l2.45-1.2Zm-3.08,15.89a15.39,15.39,0,0,1-4.88,3.93c.53-1.37,1.1-2.86,1.74-4.46.16-.15.32-.31.47-.47a4.92,4.92,0,0,1,2.67,1Zm-12.64,6.52a24.48,24.48,0,0,1-6.07.35v-2.69l.74,0,3.72,1.27V216a22.41,22.41,0,0,0,3.35-.69l.63.17a32,32,0,0,1-2.37,3Zm-9.49-.1c-1.61-.3-3.2-.71-4.8-1.16l-.34-.12v0a85.78,85.78,0,0,0-9.13-2.27v-1a11.38,11.38,0,0,1-6.67-2.22c1,0,1.94,0,2.93.07l.32.44.58-.37h.05c5.88.54,10.68,2.46,16.29,3.72l.78.16v2.72ZM346,214.23a40.6,40.6,0,0,0-10,1.25V215h-7.21a52.33,52.33,0,0,1,15.49-3.39c.51.88,1.08,1.76,1.68,2.62Zm-18.77,4.19c-.64.27-1.28.54-1.94.84l-2.64,1.17-1.1-2.52,2.65-1.1c1-.41,2-.8,2.94-1.18v2.79Zm-7,3.08-11,4.9,0,0v-1.92h-2.67l-.25-.19L318.86,219l1.34,2.49Zm-14.34,6.37-21.64,9.62A30.87,30.87,0,0,0,287.1,233c.15-.29.29-.6.43-.92l13.5-5.62h1.38v-.57l.52-.22,2.93,2.22Zm45.75-57.5a12,12,0,0,1-2.47-1.59c-1.71-1.37-2.56-2.51-2.56-3.42a7.53,7.53,0,0,0,4.11,1.71c.46-1.37,1.48-4.11,3.08-8.22a28.58,28.58,0,0,1-6.9-2.12c-6.7,5.85-7.84,13.31-13.21,20.87h5.06v1.32a87.31,87.31,0,0,0,12.89-8.55ZM334.47,181a54,54,0,0,1-5.8,2.26c.81-.75,1.55-1.5,2.24-2.26Zm12.75-24.58q5.52-.25,5.52-3.4v-.19a28,28,0,0,0-5.52,3.59ZM214,286a3.68,3.68,0,0,1-.7-.49,5.65,5.65,0,0,1-5.59-.78,11.45,11.45,0,0,1-2.45,1.12,4.39,4.39,0,0,1-1.77.13,4.18,4.18,0,0,1-2.8-1.57,5.31,5.31,0,0,1-3.46.23,3.6,3.6,0,0,1-.74-.26c-1.36.64-2.64.13-3.88-.47v1.62h-2V283a4.91,4.91,0,0,1-2.27-2.34,2.36,2.36,0,0,1-.46,0c-4.15-.41-3.45-6.42-3.16-9.54a25,25,0,0,1-5.41-8.31l-.51-.55h.29a38.33,38.33,0,0,1-2-7.19l-3.34,2.34-1-1.58,4-2.58.06.1a60,60,0,0,1-.62-8.84c-6.1,0-12.82-.07-17.81-1.85a55.23,55.23,0,0,0,2.11,6.33,78.71,78.71,0,0,0,5.78,10.68v5.87l.7,1.08-.7.5v4.23a8,8,0,0,0,2.94-1.85q0,2.49-2.94,4.5v1.34a15.23,15.23,0,0,0,3.08,11.47,25.35,25.35,0,0,0,2.16-2.89,24.32,24.32,0,0,0,3.18-5.75,8,8,0,0,0,1.18,2.68A7.9,7.9,0,0,1,177,283.5a3,3,0,0,0-2.17-1c-1.3,3.24-2.2,5.7-2.7,7.4,4.15,4.61,5.94,7.62,10.56,9.81.27-5.63-2.52-15.77-2.52-15.77a50.76,50.76,0,0,1,5.56,10.11H186v.76c3.37,7.94,5.85,16.11,11.56,21.27,5,4.48,8,6.46,18.46,6.22,10.47.24,13.49-1.74,18.46-6.22C243,308.47,244.33,294.27,252,284c0,0-2.79,10.14-2.52,15.77,5.23-2.49,6.83-6,12.34-11.72a14.92,14.92,0,0,0,3.53-5.85h-3.69a6.26,6.26,0,0,0,1.39-3l2.46,2.46a14.78,14.78,0,0,0,.44-6.32V259.65s.79-1.19,1.85-3h-.13v-1.79h1.14a63.58,63.58,0,0,0,2.93-5.9,55.23,55.23,0,0,0,2.11-6.33c-5,1.78-11.71,1.85-17.81,1.85,0,15.47-5.08,23.15-8.59,26.61.29,3.12,1,9.13-3.16,9.54a2.3,2.3,0,0,1-.45,0,5,5,0,0,1-2.53,2.45c-1.79.7-3.62,2.23-5.62,1.3a3.6,3.6,0,0,1-.74.26,5.3,5.3,0,0,1-3.46-.23,4.18,4.18,0,0,1-2.81,1.57,4.36,4.36,0,0,1-1.76-.13,11.24,11.24,0,0,1-2.45-1.12,5.65,5.65,0,0,1-5.59.78,4,4,0,0,1-.7.49A5.45,5.45,0,0,1,214,286Z"/></g></g></svg>