<svg id="Layer_1" data-name="Layer 1" xmlns="http://www.w3.org/2000/svg" xmlns:xlink="http://www.w3.org/1999/xlink" viewBox="0 0 1167.84 342.45"><defs><style>.cls-1{fill:url(#radial-gradient);}.cls-2{font-size:200px;fill:#fff;font-family:Menlo-BoldItalic, Menlo;font-weight:700;font-style:italic;letter-spacing:-0.06em;}</style><radialGradient id="radial-gradient" cx="393.57" cy="224.66" r="416.34" gradientUnits="userSpaceOnUse"><stop offset="0.06" stop-color="#9e0000"/><stop offset="0.18" stop-color="#a20000"/><stop offset="0.29" stop-color="#ae0202"/><stop offset="0.41" stop-color="#c20505" stop-opacity="0.99"/><stop offset="0.52" stop-color="#df0808" stop-opacity="0.99"/><stop offset="0.62" stop-color="#ff0c0c" stop-opacity="0.98"/><stop offset="0.66" stop-color="#ff1212" stop-opacity="0.96"/><stop offset="0.71" stop-color="#ff2424" stop-opacity="0.91"/><stop offset="0.76" stop-color="#ff4242" stop-opacity="0.81"/><stop offset="0.82" stop-color="#ff6c6c" stop-opacity="0.68"/><stop offset="0.88" stop-color="#ff9f9f" stop-opacity="0.51"/><stop offset="1" stop-color="#fff" stop-opacity="0"/></radialGradient></defs><path class="cls-1" d="M156.08,299h24.25v24.24H156.08Zm29-95.17h24.24v24.24H185.13ZM288,149.55h24.24V173.8H288Zm-48.26,27.67H264v24.25H239.71Zm38.08,28h41.65v41.65H277.79ZM236,226.73h24.26V251H236V226.73Zm-50.75,35.8h24.25v24.24H185.21ZM371.45,424.31h27.42v27.44H371.45Zm-30.6-200.4v37.82h28.44v28.44H340.85V261.73H300.76v35h-.45v.1H262.67v-.1h-.05v-27h-40.5V317H258v39.69l.11,11.41H258v.15H229.44v34.92h35.49V380.51h40.81l2.34,0V353.06H283.57V328.54h24.52v24.51h27.47v27.47H308.1v30.27h31.4v40.95h32v26L397.79,492c89-40.44,151.6-99.16,182.4-180C630.7,138.28,446.07,112.43,397.81,196.26,383,174.88,363.86,161.41,338,155.84v36.58h30.49v31.49ZM280.65,410.8h27.43v27.43H280.65Zm31.42,40.95H339.5v27.43H312.07ZM203.82,333.31h24.25v24.24H203.82Z" transform="translate(-156.08 -149.55)"/><text class="cls-2" transform="translate(513.78 234.96)">Sorry.</text></svg>