<svg xmlns="http://www.w3.org/2000/svg" xmlns:xlink="http://www.w3.org/1999/xlink" viewBox="0 0 1400 680"><defs><style>.cls-1,.cls-13,.cls-14{fill:#0d1117;}.cls-2{font-size:22.78px;fill:#e8e9ed;letter-spacing:-0.06em;}.cls-18,.cls-2{font-family:Menlo-Regular, Menlo;}.cls-3,.cls-5{fill:#62c4ff;}.cls-3{letter-spacing:-0.06em;}.cls-4{fill:#b685ff;}.cls-6{fill:url(#linear-gradient);}.cls-7{fill:#fcd321;}.cls-8{fill:#d4145a;}.cls-9{fill:url(#linear-gradient-2);}.cls-10{fill:url(#linear-gradient-3);}.cls-11,.cls-15{fill:#ff0;}.cls-11{stroke:#fcd621;stroke-miterlimit:10;stroke-width:7px;}.cls-12{font-size:32.9px;letter-spacing:-0.04em;}.cls-12,.cls-13,.cls-14,.cls-17{font-family:Menlo-Bold, Menlo;}.cls-12,.cls-13,.cls-14,.cls-17,.cls-19{font-weight:700;}.cls-13,.cls-14{font-size:83.14px;}.cls-13{letter-spacing:-0.04em;}.cls-14{letter-spacing:-0.04em;}.cls-16{fill:#fcd621;}.cls-17{font-size:70.66px;letter-spacing:-0.04em;}.cls-18{font-size:27.71px;fill:#fff;letter-spacing:-0.04em;}.cls-19{font-family:Menlo-BoldItalic, Menlo;font-style:italic;}</style><linearGradient id="linear-gradient" x1="604.59" y1="184.84" x2="692.86" y2="184.84" gradientUnits="userSpaceOnUse"><stop offset="0" stop-color="#b63fff"/><stop offset="1" stop-color="#62a9ff"/></linearGradient><linearGradient id="linear-gradient-2" x1="519.03" y1="309.35" x2="570.68" y2="386.67" gradientUnits="userSpaceOnUse"><stop offset="0.3" stop-color="#b63fff"/><stop offset="1" stop-color="#a5005a"/></linearGradient><linearGradient id="linear-gradient-3" x1="767.74" y1="319.04" x2="707.07" y2="418.61" gradientUnits="userSpaceOnUse"><stop offset="0.16" stop-color="#66a4ff"/><stop offset="0.24" stop-color="#6c94ef"/><stop offset="0.39" stop-color="#7c6ac4"/><stop offset="0.6" stop-color="#962681"/><stop offset="0.72" stop-color="#a5005a"/></linearGradient></defs><g id="Layer_3" data-name="Layer 3"><rect class="cls-1" width="1400" height="680"/></g><g id="Layer_6" data-name="Layer 6"><text class="cls-2" transform="translate(32.12 665.01)">&gt;<tspan class="cls-3" x="12.41" y="0">quobix.com</tspan></text></g><g id="Layer_8" data-name="Layer 8"><path class="cls-4" d="M616.82,282.55A194.8,194.8,0,0,1,648.73,85.42,194.23,194.23,0,0,0,499.73,16c-107.5,0-194.64,87.14-194.64,194.63,0,95.57,68.88,175,159.69,191.5A194.89,194.89,0,0,1,616.82,282.55Z"/><path class="cls-5" d="M992.36,210.63C992.36,103.14,905.22,16,797.72,16a194.19,194.19,0,0,0-149,69.42A194.79,194.79,0,0,1,680.2,283.61a195,195,0,0,1,146,119.58C920.18,389.43,992.36,308.46,992.36,210.63Z"/><path class="cls-6" d="M679.27,281.92a197.93,197.93,0,0,0-61.49-1,193.32,193.32,0,0,1,31-193.14,193.35,193.35,0,0,1,30.54,194.16Z"/><path class="cls-7" d="M648.73,90.13a191.86,191.86,0,0,1,29.59,190.11,199.39,199.39,0,0,0-59.57-1,191.33,191.33,0,0,1,30-189.12m0-4.71a194.8,194.8,0,0,0-31.91,197.13,196.5,196.5,0,0,1,63.38,1.06A194.79,194.79,0,0,0,648.73,85.42Z"/><path class="cls-8" d="M648.73,335.85a194.85,194.85,0,0,1-184,66.28,194.13,194.13,0,0,0-14.15,73c0,107.49,87.14,194.63,194.63,194.63S839.89,582.6,839.89,475.11a194.18,194.18,0,0,0-13.72-71.92,196.22,196.22,0,0,1-28.45,2.08A194.19,194.19,0,0,1,648.73,335.85Z"/><path class="cls-9" d="M499.73,404.27a196,196,0,0,1-33.55-2.9,194.19,194.19,0,0,1,150-117.71,195.17,195.17,0,0,0,31.24,52.18A193.3,193.3,0,0,1,499.73,404.27Z"/><path class="cls-7" d="M615.55,284.76a196.16,196.16,0,0,0,30.56,51.08,192.84,192.84,0,0,1-178.53,64.75,192.89,192.89,0,0,1,148-115.83m1.27-2.21a194.89,194.89,0,0,0-152,119.58,194.85,194.85,0,0,0,184-66.28,194.33,194.33,0,0,1-31.91-53.3Z"/><path class="cls-10" d="M797.72,404.27A193.3,193.3,0,0,1,650,335.84a194.82,194.82,0,0,0,30.79-51.1A193.92,193.92,0,0,1,824.76,402.38,195.88,195.88,0,0,1,797.72,404.27Z"/><path class="cls-7" d="M681.44,285.87a193,193,0,0,1,141.91,115.7,194.81,194.81,0,0,1-25.63,1.7,192.33,192.33,0,0,1-146.38-67.43,196.09,196.09,0,0,0,30.1-50m-1.24-2.26a194.53,194.53,0,0,1-31.47,52.24,194.19,194.19,0,0,0,149,69.42,196.22,196.22,0,0,0,28.45-2.08,195,195,0,0,0-146-119.58Z"/><path class="cls-11" d="M616.82,282.55a194.33,194.33,0,0,0,31.91,53.3,194.53,194.53,0,0,0,31.47-52.24,196.5,196.5,0,0,0-63.38-1.06Z"/><text class="cls-12" transform="translate(638.77 313.91)">E</text><text class="cls-13" transform="translate(447.37 233.48)">UX</text><text class="cls-13" transform="translate(596.33 511.76)">DX</text><text class="cls-14" transform="translate(761.44 233.48)">UI</text><path class="cls-15" d="M999,571.83a422.27,422.27,0,0,1-65.71-109.68,426.68,426.68,0,0,1,130.5,2.2A422.84,422.84,0,0,1,999,571.83Z"/><path class="cls-16" d="M991.37,461.17a425.43,425.43,0,0,1,68.15,5.51A419.53,419.53,0,0,1,999,567.1a419.39,419.39,0,0,1-61.45-102.49,426.38,426.38,0,0,1,53.85-3.44m0-6A430,430,0,0,0,929,459.72,426.32,426.32,0,0,0,999,576.51,426.22,426.22,0,0,0,1068,462a429.47,429.47,0,0,0-76.58-6.87Z"/><text class="cls-17" transform="translate(979.19 524.42)">E</text><text class="cls-18" transform="translate(1074.4 499.15)">Experience<tspan x="0" y="31">Engineering</tspan><tspan class="cls-19"><tspan x="0" y="62">Epicenter</tspan></tspan></text></g></svg>