<svg xmlns="http://www.w3.org/2000/svg" viewBox="0 0 1400 680"><defs><style>.cls-1{fill:#0d1117;}.cls-2{font-size:22.71px;fill:#e8e9ed;letter-spacing:-0.06em;}.cls-2,.cls-6{font-family:Menlo-Regular, Menlo;}.cls-3,.cls-4,.cls-5{fill:#62c4ff;}.cls-3{letter-spacing:-0.06em;}.cls-5{stroke:#000;stroke-linecap:round;}.cls-10,.cls-11,.cls-12,.cls-14,.cls-5,.cls-8,.cls-9{stroke-miterlimit:10;}.cls-13,.cls-6{font-size:24px;letter-spacing:-0.04em;}.cls-6,.cls-7{fill:#fff;}.cls-10,.cls-11,.cls-12,.cls-14,.cls-8,.cls-9{fill:none;stroke:#b685ff;}.cls-10,.cls-11,.cls-12,.cls-8,.cls-9{stroke-width:3px;}.cls-9{stroke-dasharray:5 5;}.cls-10{stroke-dasharray:5.01 5.01;}.cls-11{stroke-dasharray:4.92 4.92;}.cls-12{stroke-dasharray:5;}.cls-13,.cls-15{fill:#b685ff;}.cls-13{font-family:Menlo-Bold, Menlo;font-weight:700;}.cls-14{stroke-width:8px;}</style></defs><g id="Layer_3" data-name="Layer 3"><rect class="cls-1" width="1400" height="680"/></g><g id="Layer_6" data-name="Layer 6"><text class="cls-2" transform="translate(5.41 668.63)">&gt;<tspan class="cls-3" x="12.38" y="0">quobix.com</tspan></text></g><g id="Layer_5" data-name="Layer 5"><path class="cls-4" d="M800.77,74.43c.26-.26,7,1.26,10.17,2.27,18,5.8,32.87,16.15,46.69,28.27a367.88,367.88,0,0,1,37,37.86c11.74,13.63,22.43,27.76,32.87,42.15,9.65,13.38,19.3,26.76,28.69,40.39,12,17.41,23.48,35.33,35,53,7,10.86,23.74,36.35,23.74,36.35V573.18H800.51C800.77,573.44,800.77,75.69,800.77,74.43Z"/><path class="cls-4" d="M783.33,573.44H611.42V218.55s11-15.4,15.13-21.45c5.22-7.32,10.18-14.64,15.39-21.71,5.74-7.82,11.74-15.9,17.74-23.47,7.57-9.34,15.13-18.43,23-27.26,12.26-13.63,25.56-26.25,41-36.6a109.74,109.74,0,0,1,27.13-13.89,74.08,74.08,0,0,1,26.87-3c2.35.25,5.74.5,5.74.75V573.44Z"/><path class="cls-4" d="M1032.37,324.83c177.13,237.39,326.34,248.61,326.34,248.61H1032.37Z"/><path class="cls-4" d="M521.19,325V573.17H395.58v-108C448.83,421.82,521.19,325,521.19,325Z"/><path class="cls-4" d="M118.61,569c7-.52,14.35-1.56,21.39-2.35,1.83-.26,3.65-.26,5.48-.52,14.61-2.09,29-4.17,43.56-6.52,7.05-1,13.83-2.61,20.87-4.17,7.57-1.83,15.13-3.66,22.7-5.74,11.21-3.39,22.43-6.79,33.39-10.44a434.47,434.47,0,0,0,52.17-22.17c43.56-21.91,61.82-40.17,62.35-40.44v96.26H62C61.74,573.17,108.17,569.78,118.61,569Z"/><line class="cls-5" x1="253.74" y1="599" x2="253.74" y2="599"/><line class="cls-5" x1="708.99" y1="599" x2="708.99" y2="599"/><line class="cls-5" x1="458.25" y1="599" x2="458.25" y2="599"/><line class="cls-5" x1="911.11" y1="599" x2="911.11" y2="599"/><line class="cls-5" x1="1181.63" y1="599" x2="1181.63" y2="599"/><text class="cls-6" transform="translate(144.68 614.37)">innovators</text><text class="cls-6" transform="translate(417.73 614.37)">early <tspan x="-13.49" y="23">adopters</tspan></text><path class="cls-7" d="M676.6,606.73v1h-9.34v.07a5.2,5.2,0,0,0,1,3.86,4.16,4.16,0,0,0,3.16,1.17,7.65,7.65,0,0,0,2.15-.33,13,13,0,0,0,2.4-1v2.15a14.39,14.39,0,0,1-2.37.76,10.77,10.77,0,0,1-2.21.25,6.22,6.22,0,0,1-4.78-1.84,7.08,7.08,0,0,1-1.72-5,7.19,7.19,0,0,1,1.69-5,5.74,5.74,0,0,1,4.5-1.87,4.91,4.91,0,0,1,3.95,1.69A6.5,6.5,0,0,1,676.6,606.73Zm-2.15-.64a4.29,4.29,0,0,0-1-2.35,3.07,3.07,0,0,0-2.45-1,3.41,3.41,0,0,0-2.56,1,3.63,3.63,0,0,0-1.11,2.32Z"/><path class="cls-7" d="M689.38,606.88v7.49h-2.17v-2a4.44,4.44,0,0,1-1.74,1.73,5.4,5.4,0,0,1-2.55.56,4.48,4.48,0,0,1-3.2-1.13,4.46,4.46,0,0,1,.28-6.36,6.94,6.94,0,0,1,4.31-1.14h2.9v-.34a3,3,0,0,0-.8-2.28,3.69,3.69,0,0,0-2.51-.71,8.22,8.22,0,0,0-2.22.32,9.48,9.48,0,0,0-2.19.93v-2.16a16.34,16.34,0,0,1,2.29-.69,10.53,10.53,0,0,1,2.12-.22,7.26,7.26,0,0,1,2.79.48,4.39,4.39,0,0,1,1.87,1.44,3.8,3.8,0,0,1,.63,1.44A13.6,13.6,0,0,1,689.38,606.88Zm-4.19.89h-.71a5,5,0,0,0-2.84.66,2.24,2.24,0,0,0-1,2,2.37,2.37,0,0,0,.72,1.84,2.83,2.83,0,0,0,2,.65,3.45,3.45,0,0,0,2.8-1.23,5.3,5.3,0,0,0,1-3.42v-.48Z"/><path class="cls-7" d="M704,604a5,5,0,0,0-1.41-.79,4.88,4.88,0,0,0-1.57-.24,3.81,3.81,0,0,0-3.08,1.26,5.57,5.57,0,0,0-1.06,3.66v6.53H694.7V601.24h2.17v2.57a4.42,4.42,0,0,1,1.65-2.14,4.66,4.66,0,0,1,2.66-.74,5.48,5.48,0,0,1,1.49.19,4.7,4.7,0,0,1,1.32.63Z"/><path class="cls-7" d="M712.37,609.62a3.76,3.76,0,0,0,.53,2.19,1.85,1.85,0,0,0,1.58.74H717v1.82h-2.73a3.7,3.7,0,0,1-3-1.24,5.2,5.2,0,0,1-1.07-3.51V597.75h-3.45v-1.69h5.61Z"/><path class="cls-7" d="M727.49,610.15c-.36.91-.82,2.12-1.37,3.61a37.16,37.16,0,0,1-1.56,3.77,3.63,3.63,0,0,1-1.35,1.37,3.73,3.73,0,0,1-1.89.46h-1.73v-1.81h1.28a2,2,0,0,0,1.49-.55,9.68,9.68,0,0,0,1.37-2.84l-5.08-12.92h2.29l3.89,10.27,3.83-10.27H731Z"/><path class="cls-7" d="M651.17,625.58a2.93,2.93,0,0,1,1-1.25,2.62,2.62,0,0,1,1.48-.4,2.3,2.3,0,0,1,2.23,1.22,10.93,10.93,0,0,1,.65,4.61v7.61h-2v-7.51a10.89,10.89,0,0,0-.32-3.46,1.14,1.14,0,0,0-1.13-.67,1.29,1.29,0,0,0-1.28.72,10,10,0,0,0-.35,3.41v7.51h-2v-7.51a10.27,10.27,0,0,0-.34-3.47,1.22,1.22,0,0,0-1.2-.66,1.2,1.2,0,0,0-1.19.72,10.52,10.52,0,0,0-.33,3.41v7.51h-2V624.24h2v1.13a3,3,0,0,1,1-1.08,2.47,2.47,0,0,1,1.32-.36,2.52,2.52,0,0,1,1.49.41A2.62,2.62,0,0,1,651.17,625.58Z"/><path class="cls-7" d="M669.14,629.88v7.49H667v-2a4.44,4.44,0,0,1-1.74,1.73,5.33,5.33,0,0,1-2.54.56,4.46,4.46,0,0,1-3.2-1.13,4.47,4.47,0,0,1,.27-6.36,7,7,0,0,1,4.32-1.14H667v-.34a3,3,0,0,0-.79-2.28,3.71,3.71,0,0,0-2.51-.71,8.29,8.29,0,0,0-2.23.32,9.48,9.48,0,0,0-2.19.93v-2.16a16.75,16.75,0,0,1,2.29-.69,10.56,10.56,0,0,1,2.13-.22,7.21,7.21,0,0,1,2.78.48,4.33,4.33,0,0,1,1.87,1.44,3.66,3.66,0,0,1,.64,1.44A13.77,13.77,0,0,1,669.14,629.88Zm-4.18.89h-.72a5,5,0,0,0-2.84.66,2.26,2.26,0,0,0-.95,2,2.4,2.4,0,0,0,.71,1.84,2.86,2.86,0,0,0,2,.65,3.44,3.44,0,0,0,2.8-1.23,5.25,5.25,0,0,0,1-3.42v-.48Z"/><path class="cls-7" d="M677.25,637.6V625.92h-3.71v-1.68h5.87V637.6a5.28,5.28,0,0,1-1,3.52,3.67,3.67,0,0,1-3,1.24h-3v-1.83h2.74a1.83,1.83,0,0,0,1.59-.73A3.78,3.78,0,0,0,677.25,637.6Zm0-18.47h2.16v2.73h-2.16Z"/><path class="cls-7" d="M690.93,623.93a5.1,5.1,0,0,1,4.18,1.77,9.82,9.82,0,0,1,0,10.24,5.81,5.81,0,0,1-8.35,0,9.82,9.82,0,0,1,0-10.24A5.06,5.06,0,0,1,690.93,623.93Zm0,1.82a2.79,2.79,0,0,0-2.48,1.28,8.85,8.85,0,0,0,0,7.57,2.79,2.79,0,0,0,2.48,1.28,2.82,2.82,0,0,0,2.5-1.28,8.95,8.95,0,0,0,0-7.57A2.82,2.82,0,0,0,690.93,625.75Z"/><path class="cls-7" d="M710.74,627a5.13,5.13,0,0,0-1.41-.79,4.92,4.92,0,0,0-1.57-.24,3.81,3.81,0,0,0-3.08,1.26,5.57,5.57,0,0,0-1.07,3.66v6.53h-2.17V624.24h2.17v2.57a4.38,4.38,0,0,1,1.66-2.14,4.63,4.63,0,0,1,2.65-.74,5.48,5.48,0,0,1,1.49.19,4.89,4.89,0,0,1,1.33.63Z"/><path class="cls-7" d="M714.39,624.29h5.52v11.4h4.28v1.68H713.48v-1.68h4.28V626h-3.37Zm3.37-5.1h2.15v2.72h-2.15Z"/><path class="cls-7" d="M731.37,620.52v3.72h4.9v1.68h-4.9V633a3,3,0,0,0,.55,2,2.63,2.63,0,0,0,1.93.57h2.42v1.73h-2.63a4.85,4.85,0,0,1-3.43-1,4.58,4.58,0,0,1-1-3.35v-7.12h-3.51v-1.68h3.51v-3.72Z"/><path class="cls-7" d="M747.72,633.15c-.36.91-.81,2.12-1.37,3.61a32.72,32.72,0,0,1-1.56,3.77,3.68,3.68,0,0,1-1.34,1.37,3.73,3.73,0,0,1-1.89.46h-1.74v-1.81h1.28a2,2,0,0,0,1.49-.55,9.18,9.18,0,0,0,1.37-2.84l-5.07-12.92h2.28l3.89,10.27,3.83-10.27h2.29Z"/><path class="cls-7" d="M883.65,609.62a3.76,3.76,0,0,0,.53,2.19,1.83,1.83,0,0,0,1.58.74h2.52v1.82h-2.73a3.73,3.73,0,0,1-3-1.24,5.2,5.2,0,0,1-1.06-3.51V597.75H878v-1.69h5.62Z"/><path class="cls-7" d="M901.12,606.88v7.49H899v-2a4.44,4.44,0,0,1-1.74,1.73,5.4,5.4,0,0,1-2.55.56,4.5,4.5,0,0,1-3.2-1.13,4,4,0,0,1-1.19-3,4,4,0,0,1,1.47-3.33,7,7,0,0,1,4.32-1.14H899v-.34a3,3,0,0,0-.79-2.28,3.71,3.71,0,0,0-2.51-.71,8.23,8.23,0,0,0-2.23.32,9.48,9.48,0,0,0-2.19.93v-2.16a16.75,16.75,0,0,1,2.29-.69,10.56,10.56,0,0,1,2.13-.22,7.25,7.25,0,0,1,2.78.48,4.39,4.39,0,0,1,1.87,1.44,3.51,3.51,0,0,1,.63,1.44A12.81,12.81,0,0,1,901.12,606.88Zm-4.18.89h-.72a5,5,0,0,0-2.84.66,2.24,2.24,0,0,0-1,2,2.36,2.36,0,0,0,.71,1.84,2.86,2.86,0,0,0,2,.65,3.44,3.44,0,0,0,2.8-1.23,5.25,5.25,0,0,0,1-3.42v-.48Z"/><path class="cls-7" d="M909.4,597.52v3.72h4.89v1.68H909.4V610a2.9,2.9,0,0,0,.55,2,2.59,2.59,0,0,0,1.92.57h2.42v1.73h-2.63a4.8,4.8,0,0,1-3.42-1,4.53,4.53,0,0,1-1-3.35v-7.12h-3.5v-1.68h3.5v-3.72Z"/><path class="cls-7" d="M928.81,606.73v1h-9.34v.07a5.2,5.2,0,0,0,1,3.86,4.17,4.17,0,0,0,3.16,1.17,7.6,7.6,0,0,0,2.15-.33,13,13,0,0,0,2.41-1v2.15a14.19,14.19,0,0,1-2.38.76,10.7,10.7,0,0,1-2.21.25,6.23,6.23,0,0,1-4.78-1.84,7.12,7.12,0,0,1-1.72-5,7.19,7.19,0,0,1,1.69-5,5.74,5.74,0,0,1,4.5-1.87,4.91,4.91,0,0,1,3.95,1.69A6.5,6.5,0,0,1,928.81,606.73Zm-2.15-.64a4.29,4.29,0,0,0-1-2.35,3.05,3.05,0,0,0-2.45-1,3.43,3.43,0,0,0-2.56,1,3.61,3.61,0,0,0-1.1,2.32Z"/><path class="cls-7" d="M856.17,625.58a2.93,2.93,0,0,1,1-1.25,2.62,2.62,0,0,1,1.48-.4,2.3,2.3,0,0,1,2.23,1.22,10.93,10.93,0,0,1,.65,4.61v7.61h-2v-7.51a10.89,10.89,0,0,0-.32-3.46,1.14,1.14,0,0,0-1.13-.67,1.29,1.29,0,0,0-1.28.72,10,10,0,0,0-.35,3.41v7.51h-2v-7.51a10.27,10.27,0,0,0-.34-3.47,1.22,1.22,0,0,0-1.2-.66,1.2,1.2,0,0,0-1.19.72,10.52,10.52,0,0,0-.33,3.41v7.51h-2V624.24h2v1.13a3,3,0,0,1,1-1.08,2.47,2.47,0,0,1,1.32-.36,2.52,2.52,0,0,1,1.49.41A2.62,2.62,0,0,1,856.17,625.58Z"/><path class="cls-7" d="M874.14,629.88v7.49H872v-2a4.44,4.44,0,0,1-1.74,1.73,5.33,5.33,0,0,1-2.54.56,4.46,4.46,0,0,1-3.2-1.13,4.47,4.47,0,0,1,.27-6.36,7,7,0,0,1,4.32-1.14H872v-.34a3,3,0,0,0-.79-2.28,3.71,3.71,0,0,0-2.51-.71,8.29,8.29,0,0,0-2.23.32,9.48,9.48,0,0,0-2.19.93v-2.16a16.75,16.75,0,0,1,2.29-.69,10.56,10.56,0,0,1,2.13-.22,7.21,7.21,0,0,1,2.78.48,4.33,4.33,0,0,1,1.87,1.44,3.66,3.66,0,0,1,.64,1.44A13.77,13.77,0,0,1,874.14,629.88Zm-4.18.89h-.72a5,5,0,0,0-2.84.66,2.26,2.26,0,0,0-.95,2,2.4,2.4,0,0,0,.71,1.84,2.86,2.86,0,0,0,2,.65,3.44,3.44,0,0,0,2.8-1.23,5.25,5.25,0,0,0,1-3.42v-.48Z"/><path class="cls-7" d="M882.25,637.6V625.92h-3.71v-1.68h5.87V637.6a5.28,5.28,0,0,1-1,3.52,3.67,3.67,0,0,1-3,1.24h-3v-1.83h2.74a1.83,1.83,0,0,0,1.59-.73A3.78,3.78,0,0,0,882.25,637.6Zm0-18.47h2.16v2.73h-2.16Z"/><path class="cls-7" d="M895.93,623.93a5.1,5.1,0,0,1,4.18,1.77,9.82,9.82,0,0,1,0,10.24,5.81,5.81,0,0,1-8.35,0,9.82,9.82,0,0,1,0-10.24A5.06,5.06,0,0,1,895.93,623.93Zm0,1.82a2.79,2.79,0,0,0-2.48,1.28,8.85,8.85,0,0,0,0,7.57,2.79,2.79,0,0,0,2.48,1.28,2.82,2.82,0,0,0,2.5-1.28,8.95,8.95,0,0,0,0-7.57A2.82,2.82,0,0,0,895.93,625.75Z"/><path class="cls-7" d="M915.74,627a5.13,5.13,0,0,0-1.41-.79,4.92,4.92,0,0,0-1.57-.24,3.81,3.81,0,0,0-3.08,1.26,5.57,5.57,0,0,0-1.07,3.66v6.53h-2.17V624.24h2.17v2.57a4.38,4.38,0,0,1,1.66-2.14,4.63,4.63,0,0,1,2.65-.74,5.48,5.48,0,0,1,1.49.19,4.89,4.89,0,0,1,1.33.63Z"/><path class="cls-7" d="M919.39,624.29h5.52v11.4h4.28v1.68H918.48v-1.68h4.28V626h-3.37Zm3.37-5.1h2.15v2.72h-2.15Z"/><path class="cls-7" d="M936.37,620.52v3.72h4.9v1.68h-4.9V633a3,3,0,0,0,.55,2,2.63,2.63,0,0,0,1.93.57h2.42v1.73h-2.63a4.85,4.85,0,0,1-3.43-1,4.58,4.58,0,0,1-1-3.35v-7.12h-3.51v-1.68h3.51v-3.72Z"/><path class="cls-7" d="M952.72,633.15c-.36.91-.81,2.12-1.37,3.61a32.72,32.72,0,0,1-1.56,3.77,3.68,3.68,0,0,1-1.34,1.37,3.73,3.73,0,0,1-1.89.46h-1.74v-1.81h1.28a2,2,0,0,0,1.49-.55,9.18,9.18,0,0,0,1.37-2.84l-5.07-12.92h2.28l3.89,10.27,3.83-10.27h2.29Z"/><text class="cls-6" transform="translate(1115.68 614.37)">laggards</text><line class="cls-8" x1="62" y1="573" x2="62" y2="570.5"/><line class="cls-9" x1="62" y1="565.5" x2="62" y2="68"/><polyline class="cls-8" points="62 65.5 62 63 64.5 63"/><line class="cls-10" x1="69.51" y1="63" x2="517.99" y2="63"/><polyline class="cls-8" points="520.5 63 523 63 523 65.5"/><line class="cls-11" x1="523" y1="70.42" x2="523" y2="304.08"/><line class="cls-8" x1="523" y1="306.54" x2="523" y2="309.04"/><polyline class="cls-12" points="611.42 199.71 611.42 63 1358.71 63 1358.71 573.43"/><text class="cls-13" transform="translate(183.96 42.33)">early market</text><text class="cls-13" transform="translate(870.23 42.33)">mainstream market</text><text class="cls-13" transform="translate(534 42.88)">chasm</text><line class="cls-14" x1="568.2" y1="63" x2="568.2" y2="120.3"/><polygon class="cls-15" points="548.25 114.46 568.2 149 588.14 114.46 548.25 114.46"/></g></svg>