<?xml version="1.0" encoding="UTF-8"?><svg id="Layer_27" xmlns="http://www.w3.org/2000/svg" viewBox="0 0 1400 680"><defs><style>.cls-1{letter-spacing:0em;}.cls-2{letter-spacing:0em;}.cls-3{letter-spacing:0em;}.cls-4{letter-spacing:0em;}.cls-5{letter-spacing:.01em;}.cls-6{letter-spacing:0em;}.cls-7{fill:#bf94ff;}.cls-8{fill:#62c4ff;font-size:50.79px;}.cls-8,.cls-9,.cls-10{font-family:BioSans-Bold, 'Bio Sans';}.cls-11{letter-spacing:0em;}.cls-12{letter-spacing:0em;}.cls-13{letter-spacing:0em;}.cls-14{stroke:#b685ff;}.cls-14,.cls-15,.cls-16{fill:none;stroke-miterlimit:10;stroke-width:7px;}.cls-15{stroke:#62c4ff;}.cls-17{letter-spacing:0em;}.cls-18{fill:#afb6c3;}.cls-19{letter-spacing:0em;}.cls-20{letter-spacing:0em;}.cls-21{letter-spacing:0em;}.cls-9{fill:#a3abba;font-size:42.89px;}.cls-22{letter-spacing:0em;}.cls-23{letter-spacing:0em;}.cls-24{letter-spacing:0em;}.cls-25{letter-spacing:0em;}.cls-16{stroke:#a3abba;}.cls-10{fill:#b685ff;font-size:45.15px;}.cls-26{letter-spacing:0em;}.cls-27{letter-spacing:0em;}</style></defs><text class="cls-8" transform="translate(382.3 110.26)"><tspan class="cls-12" x="0" y="0">R</tspan><tspan x="32.3" y="0">ule</tspan><tspan class="cls-6" x="103.57" y="0">S</tspan><tspan class="cls-21" x="132.67" y="0">e</tspan><tspan x="160.71" y="0">t </tspan><tspan class="cls-1" x="191.24" y="0">(</tspan><tspan class="cls-5" x="208.15" y="0">c</tspan><tspan x="235.43" y="0">oll</tspan><tspan class="cls-26" x="292.11" y="0">e</tspan><tspan class="cls-23" x="320.25" y="0">c</tspan><tspan x="347.27" y="0">tion </tspan><tspan class="cls-19" x="449.42" y="0">o</tspan><tspan class="cls-20" x="477.92" y="0">f rul</tspan><tspan class="cls-3" x="570.51" y="0">e</tspan><tspan class="cls-4" x="598.75" y="0">s</tspan><tspan x="624.86" y="0">)</tspan></text><rect class="cls-15" x="172.91" y="46.62" width="1029.44" height="97.17"/><rect class="cls-16" x="151.76" y="540.89" width="214.21" height="86.24"/><rect class="cls-16" x="441.86" y="540.89" width="214.21" height="86.24"/><rect class="cls-16" x="721.82" y="540.89" width="214.21" height="86.24"/><rect class="cls-16" x="1019.79" y="540.89" width="214.21" height="86.24"/><rect class="cls-14" x="175.47" y="290.21" width="150.96" height="87.5"/><rect class="cls-14" x="352.69" y="290.21" width="150.96" height="87.5"/><rect class="cls-14" x="528.77" y="290.21" width="150.96" height="87.5"/><rect class="cls-14" x="703.73" y="290.21" width="150.96" height="87.5"/><rect class="cls-14" x="874.59" y="290.28" width="150.96" height="87.5"/><rect class="cls-14" x="1051.81" y="290.28" width="150.96" height="87.5"/><text class="cls-10" transform="translate(201.7 347.3)"><tspan class="cls-24" x="0" y="0">R</tspan><tspan x="28.72" y="0">ule</tspan></text><text class="cls-10" transform="translate(379.38 346.95)"><tspan class="cls-24" x="0" y="0">R</tspan><tspan x="28.72" y="0">ule</tspan></text><text class="cls-10" transform="translate(555.47 346.95)"><tspan class="cls-24" x="0" y="0">R</tspan><tspan x="28.72" y="0">ule</tspan></text><text class="cls-10" transform="translate(731.56 346.95)"><tspan class="cls-27" x="0" y="0">R</tspan><tspan class="cls-13" x="28.71" y="0">ule</tspan></text><text class="cls-10" transform="translate(900.88 346.95)"><tspan class="cls-27" x="0" y="0">R</tspan><tspan class="cls-13" x="28.71" y="0">ule</tspan></text><text class="cls-10" transform="translate(1080.35 346.95)"><tspan class="cls-27" x="0" y="0">R</tspan><tspan class="cls-13" x="28.71" y="0">ule</tspan></text><text class="cls-9" transform="translate(172.35 596.76)"><tspan class="cls-2" x="0" y="0">F</tspan><tspan class="cls-25" x="23.8" y="0">un</tspan><tspan class="cls-17" x="72.87" y="0">c</tspan><tspan x="95.69" y="0">tion</tspan></text><text class="cls-9" transform="translate(464.7 596.76)"><tspan class="cls-2" x="0" y="0">F</tspan><tspan class="cls-25" x="23.8" y="0">un</tspan><tspan class="cls-17" x="72.87" y="0">c</tspan><tspan x="95.69" y="0">tion</tspan></text><text class="cls-9" transform="translate(744.54 596.76)"><tspan class="cls-22" x="0" y="0">F</tspan><tspan x="23.8" y="0">un</tspan><tspan class="cls-11" x="72.87" y="0">c</tspan><tspan x="95.69" y="0">tion</tspan></text><text class="cls-9" transform="translate(1041.5 596.76)"><tspan class="cls-22" x="0" y="0">F</tspan><tspan x="23.8" y="0">un</tspan><tspan class="cls-11" x="72.87" y="0">c</tspan><tspan x="95.69" y="0">tion</tspan></text><polygon class="cls-7" points="303.98 289.73 251.36 144.12 198.74 289.73 303.98 289.73"/><polygon class="cls-7" points="481.2 289.73 428.58 144.12 375.96 289.73 481.2 289.73"/><polygon class="cls-7" points="653.33 289.73 600.71 144.12 548.1 289.73 653.33 289.73"/><polygon class="cls-7" points="832.24 289.73 779.62 144.12 727.01 289.73 832.24 289.73"/><polygon class="cls-7" points="1002.69 289.73 950.07 144.12 897.45 289.73 1002.69 289.73"/><polygon class="cls-7" points="1179.91 289.73 1127.29 144.12 1074.67 289.73 1179.91 289.73"/><polygon class="cls-18" points="251.36 377.78 273.96 400.38 269.47 404.87 254.54 389.93 254.54 540.32 248.19 540.32 248.19 389.93 233.25 404.87 228.76 400.38 251.36 377.78"/><polygon class="cls-18" points="1127.85 377.78 1150.45 400.38 1145.97 404.87 1131.03 389.93 1131.03 540.32 1124.68 540.32 1124.68 389.93 1109.74 404.87 1105.25 400.38 1127.85 377.78"/><polygon class="cls-18" points="605.23 377.78 627.83 400.38 623.34 404.87 608.41 389.93 608.41 540.32 602.06 540.32 602.06 389.93 587.12 404.87 582.63 400.38 605.23 377.78"/><polygon class="cls-18" points="773.42 377.78 796.02 400.38 791.53 404.87 776.59 389.93 776.59 540.32 770.24 540.32 770.24 389.93 755.31 404.87 750.82 400.38 773.42 377.78"/><polygon class="cls-18" points="424.63 381.73 453.91 394.54 451.37 400.35 432.01 391.89 489.67 539.16 483.75 541.48 426.1 394.2 417.64 413.56 411.82 411.01 424.63 381.73"/><polygon class="cls-18" points="961.71 381.73 974.52 411.01 968.7 413.56 960.24 394.2 902.58 541.48 896.67 539.16 954.33 391.89 934.97 400.35 932.43 394.54 961.71 381.73"/></svg>